<svg id="Layer_1" data-name="Layer 1" xmlns="http://www.w3.org/2000/svg" viewBox="0 0 841.89 595.28"><defs><style>.cls-1{fill:none;stroke:#ef7846;stroke-miterlimit:10;stroke-width:2px;}.cls-2{font-size:19px;fill:#ef7846;font-family:InkFree, Ink Free;}</style></defs><path class="cls-1" d="M413.73,252a4.22,4.22,0,0,1,1.63,0,3.31,3.31,0,0,1,1.19.52,5.11,5.11,0,0,1,.91.86c.31.37.69.82,1.16,1.35.59.74,1,1.31,1.29,1.72a3,3,0,0,1,.44.81c.07,1.67.15,3.26.24,4.79s.24,3.24.26,4.95c0,.41-.07.86-.07,1.35.23.69.45,1.42.65,2.2s.38,1.55.55,2.34c.16.61.3,1.3.43,2.07s.25,1.66.36,2.66q.27,1.86.42,3c.11.78.18,1.31.23,1.6a4.44,4.44,0,0,0,.16.66,5.35,5.35,0,0,0,.31.82c.12.38.3.86.54,1.43l.45,2.66a73.73,73.73,0,0,0,2.28,7.26,40,40,0,0,0,2.34,6,4.05,4.05,0,0,1,.47-.34l2.29-6.47c.09-.51.21-1.16.35-1.95s.31-1.71.51-2.75a55.9,55.9,0,0,0,2-10.31,147.16,147.16,0,0,0,.8-14.71,12.88,12.88,0,0,1,.7-4,3.48,3.48,0,0,1,1.55-2l3.53-2a2.83,2.83,0,0,1,1.57.8,3.23,3.23,0,0,1,.71,1.64,31.12,31.12,0,0,1,.24,4.32q0,3-.19,7.62c.08.65.14,1.47.18,2.44s.09,2.13.14,3.45c-.06,1.06-.1,1.89-.13,2.5a7.7,7.7,0,0,0,0,1.13c.12.73.28,1.57.46,2.51s.4,2,.62,3.17c.3,1.43.53,2.62.69,3.58l.34,2c.35,1.88.65,3.3.91,4.25s.48,1.42.65,1.39.62-.72,1-2a50.82,50.82,0,0,0,1.3-5.86q.58-3,1-5.6T452,279a3.35,3.35,0,0,0,.45-1.43,9.66,9.66,0,0,0,0-2.21c.24-1.28.47-2.63.66-4s.42-2.87.65-4.39c.14-.89.27-2,.38-3.32s.24-2.89.4-4.71l-.85-1.69c0-.35.09-.79.17-1.33A17.89,17.89,0,0,0,454,254a16.67,16.67,0,0,1,1.58-3.09c.5-.72.93-1.11,1.3-1.18a.63.63,0,0,1,.67.35,4.52,4.52,0,0,1,.4,1.39c.29,1.71.48,3.05.57,4a7.38,7.38,0,0,1,0,1.88c-.13.43-.23.83-.31,1.2s-.15.69-.2.93l.9,2a14.06,14.06,0,0,0-.23,2.24c-.06,1.06-.08,2.45-.08,4.16s-.06,2.92-.13,3.89a7.41,7.41,0,0,1-.32,2,10.73,10.73,0,0,1-.23,2c-.15.8-.34,1.76-.56,2.87a12.38,12.38,0,0,0-.26,1.8c-.06.81-.15,1.78-.25,2.89-.09.68-.21,1.49-.37,2.43s-.34,2.08-.52,3.41a7,7,0,0,0-.57,1.62,15.26,15.26,0,0,0-.35,2.45,20.74,20.74,0,0,1-.45,2.09c-.24.93-.52,2.11-.86,3.56s-.68,2.67-1,3.51a3.91,3.91,0,0,1-.68,1.41l-.91.76a1.74,1.74,0,0,1-.75.72,4.17,4.17,0,0,1-1.29.32,11.63,11.63,0,0,1-1.21.94,2.35,2.35,0,0,1-.87.41,3.12,3.12,0,0,1-2.79-.84,8.74,8.74,0,0,1-2-3.65c-.29-1.19-.59-2.4-.89-3.6s-.62-2.44-.95-3.69c-.16-.61-.4-1.42-.73-2.42s-.78-2.19-1.36-3.57c-.4,1.23-.82,2.49-1.25,3.8s-.88,2.67-1.33,4.11a5.53,5.53,0,0,1-.28,1.95c-.26,1.06-.62,2.53-1.09,4.4s-1,4-1.6,6a8,8,0,0,1-1.68,2.82,4.16,4.16,0,0,1-2.37,1.25c-.45.08-.95-.2-1.49-.84a14.52,14.52,0,0,1-1.81-3c-.4-.83-.8-1.67-1.18-2.52l-1.2-2.6c.07-.42.11-.76.13-1a10.11,10.11,0,0,1-.88-1.5c-.33-.64-.7-1.42-1.12-2.33-.18-.58-.42-1.32-.72-2.23s-.64-2-1-3.21c-.09-.39-.19-.79-.29-1.19s-.19-.8-.28-1.2a4.31,4.31,0,0,0-.41-1,9.44,9.44,0,0,0-.78-1.17,6.93,6.93,0,0,1-.36-1.22c-.15-.66-.36-1.57-.61-2.74a12.93,12.93,0,0,0-.66-2.35,2,2,0,0,0-.84-1.14l-1.29-.65a7.67,7.67,0,0,1-.71-1.77,26.29,26.29,0,0,1-.66-3,93.49,93.49,0,0,1-1.11-10.06q-.3-5.29-.13-11.23a4.42,4.42,0,0,1,.68-2.42A2.67,2.67,0,0,1,413.73,252Z"/><path class="cls-1" d="M460.84,283.51a9.78,9.78,0,0,1,.78-1.55,12.38,12.38,0,0,1,1.32-1.71l0-1.31a11.51,11.51,0,0,0-.08-1.31,9.57,9.57,0,0,1,.13-1.13q.1-.64.24-1.41c.12-.51.29-1.15.5-1.92s.52-1.65.91-2.63c.37-.57.76-1.2,1.16-1.88l1.19-2.05a5.62,5.62,0,0,1,.69-.69,8.46,8.46,0,0,0,.74-.73,8.42,8.42,0,0,1,.84-.37,6.05,6.05,0,0,1,1.06-.28,4.54,4.54,0,0,1,1.34-.06,1.7,1.7,0,0,1,.92.42,2.55,2.55,0,0,1,.58.7,13,13,0,0,1,.62,1.2c.13.43.29.89.46,1.39,0-.13,0-.07-.08.19s-.09.64-.15,1.19l-.12,1.09a11.64,11.64,0,0,1-1.44,3.95,48.37,48.37,0,0,1-3.51,5.41,2.28,2.28,0,0,0-.29.63,1.77,1.77,0,0,0,0,.76,2.74,2.74,0,0,0,.45,1.16,1.66,1.66,0,0,0,.83.66,2.9,2.9,0,0,0,.89.26,12.63,12.63,0,0,0,1.41.13,11.1,11.1,0,0,0,2.24-.81,10.17,10.17,0,0,0,1.72-1.1l.47-.36a4.34,4.34,0,0,0,.64-.59c.39.58.73,1.1,1,1.56s.55.87.74,1.22a20.22,20.22,0,0,1-2.9,3.31,5.46,5.46,0,0,1-2.63,1.39,3.68,3.68,0,0,1-1.1.67,7.59,7.59,0,0,1-1.56.42,6.18,6.18,0,0,1-2.19,0,4.23,4.23,0,0,1-1.72-.78,4.19,4.19,0,0,1-.81-.85c-.29-.39-.6-.85-.93-1.4a5,5,0,0,0-.73-1,.79.79,0,0,0-.65-.25,1.1,1.1,0,0,0-.54.34,4.1,4.1,0,0,0-.59.86,8.83,8.83,0,0,0-.66-1.13C461.69,284.72,461.31,284.17,460.84,283.51ZM469.27,270c-.48.08-1,.81-1.61,2.19a6.22,6.22,0,0,0-.74,2.95.38.38,0,0,0,.13.26c.06.05.18.05.35,0a.69.69,0,0,0,.53-.48c.11-.27.21-.53.3-.77a9.81,9.81,0,0,0,.58-.81l.55-.85a3.55,3.55,0,0,0,.43-1,2.37,2.37,0,0,0,0-.95.93.93,0,0,0-.19-.45A.37.37,0,0,0,469.27,270Z"/><path class="cls-1" d="M440.29,321.83l.16-.26,0-.34a12.25,12.25,0,0,1,.82-1.3c.24-.31.42-.56.54-.74a2.74,2.74,0,0,1,.65-.54q.51-.36,1.38-.9l.38-.34a11.32,11.32,0,0,1,.64-1.17c.31-.52.69-1.12,1.13-1.8a2.77,2.77,0,0,1,.42-.5,5.54,5.54,0,0,0,.59-.7c.43-.59.87-1.19,1.3-1.81s.83-1.23,1.2-1.82q.24-.35,1-1.26c.52-.61,1.23-1.46,2.11-2.55.14-.13.38-.33.74-.6s.82-.61,1.4-1a1.33,1.33,0,0,0,.53-.74,2.62,2.62,0,0,0,0-1.16,6.15,6.15,0,0,0,.33-1.11,12.58,12.58,0,0,0,.24-1.49c.1-.71.18-1.29.23-1.73a7,7,0,0,1,.13-.91c.2-1,.51-2.26.91-3.68s.91-3,1.49-4.88c.29-1,.63-2,1-3.22a4,4,0,0,1,1-1.42,2.85,2.85,0,0,1,1.37-.65,1,1,0,0,1,.93.31,2.5,2.5,0,0,1,.5,1.29,18.37,18.37,0,0,1,.26,2.7,8.91,8.91,0,0,1-.32,2.49,3.28,3.28,0,0,0-.05.71c0,.31,0,.69.06,1.13a2.25,2.25,0,0,1-.1.92,3.79,3.79,0,0,1-.4.87,3,3,0,0,1,0,.54c0,.22,0,.47,0,.76l-.36.66a1.57,1.57,0,0,0,0,.48l.1.57a2.68,2.68,0,0,1-.1.8c-.09.41-.23,1-.41,1.73s-.4,1.42-.54,1.89a5.19,5.19,0,0,0-.2.87,5.43,5.43,0,0,0-.25.58l-.37.9.22.7-.83,7.82c.14.83.27,1.53.39,2.11a5.55,5.55,0,0,0,.43,1.37,9.76,9.76,0,0,0,.76,1.26,15.41,15.41,0,0,0,1.25,1.54,2.38,2.38,0,0,0,1,.75,2.09,2.09,0,0,0,1.08.11,2.73,2.73,0,0,0,1.2-.56,5.06,5.06,0,0,0,1.1-1.27l1,1.47c.31.46.58.89.81,1.3a5.17,5.17,0,0,0-.59.79c-.29.44-.68,1.05-1.14,1.84a3,3,0,0,1-1.14,1.11,5.72,5.72,0,0,1-1.82.6,6.13,6.13,0,0,1-4.18-.6,7.06,7.06,0,0,1-2.79-3.45l-.38-.87c-.11-.25-.21-.48-.31-.68a5,5,0,0,0-1-1.2q-.17.36-.27.54a6.1,6.1,0,0,0-.74.89,8.57,8.57,0,0,0-.75,1.4,4.34,4.34,0,0,1-.22.86,13,13,0,0,1-.53,1.24l-1.71,2.78c-.57.93-1.16,1.85-1.74,2.75a13.07,13.07,0,0,1-2.3,2.84,4.28,4.28,0,0,1-2,1.13,3.4,3.4,0,0,1-2.54-.36,3.28,3.28,0,0,1-1.18-2.26,6.15,6.15,0,0,1,.2-2.19,6.12,6.12,0,0,0,.22-2.09l-.29-.49Zm14-10.68a1.55,1.55,0,0,0-.21-.46c-.28.38-.61.82-1,1.34s-.88,1.08-1.45,1.71a10.53,10.53,0,0,1-.76,1.82c-.42.84-1,1.89-1.81,3.16a13.68,13.68,0,0,0-.86,1.87l-1.26,3.2c-.16.5-.32,1.09-.47,1.79,0,.13.13.25.33.38a6.55,6.55,0,0,0,2.1-2.11,42.87,42.87,0,0,0,2.71-4.49,35,35,0,0,0,2.23-5A7.15,7.15,0,0,0,454.31,311.15Z"/><text class="cls-2" transform="matrix(0.44, 0.9, -0.9, 0.44, 380.7, 257.37)">BRANDING</text></svg>