<svg id="Layer_1" data-name="Layer 1" xmlns="http://www.w3.org/2000/svg" viewBox="0 0 841.89 595.28"><defs><style>.cls-1{fill:none;stroke:#ef7846;stroke-miterlimit:10;stroke-width:5px;}.cls-2{font-size:99.32px;fill:#ef7846;font-family:InkFree, Ink Free;}</style></defs><path class="cls-1" d="M319.82,45.41a21.82,21.82,0,0,1,8.52.05,17.42,17.42,0,0,1,6.24,2.7,26.31,26.31,0,0,1,4.74,4.53c1.61,1.93,3.63,4.27,6.07,7.05,3.07,3.88,5.31,6.86,6.73,9a15.09,15.09,0,0,1,2.3,4.26Q355,86,355.68,98q1.19,12.51,1.39,25.87a69.52,69.52,0,0,0-.39,7.1q1.81,5.38,3.4,11.47t2.86,12.23c.83,3.2,1.59,6.81,2.27,10.86s1.31,8.67,1.88,13.87q1.43,9.76,2.22,15.86t1.17,8.33a33,33,0,0,0,.81,3.49,30.89,30.89,0,0,0,1.63,4.27q1,3,2.85,7.46l2.33,13.91q1.63,8.37,11.93,38t12.25,31.54a23.12,23.12,0,0,1,2.42-1.76l12-33.81c.46-2.65,1.06-6.05,1.8-10.18s1.64-8.94,2.68-14.42q6.66-21.09,10.34-53.84t4.19-76.89q.57-12.8,3.65-20.81T447.47,80l18.44-10.37a14.87,14.87,0,0,1,8.21,4.19,16.52,16.52,0,0,1,3.71,8.57q1.14,6.84,1.3,22.6t-1,39.79c.43,3.41.75,7.68.95,12.78s.43,11.14.7,18c-.29,5.5-.49,9.86-.64,13.06a42.48,42.48,0,0,0,0,5.91c.64,3.83,1.46,8.19,2.43,13.1s2.06,10.44,3.25,16.6q2.34,11.17,3.6,18.69l1.78,10.6q2.7,14.76,4.76,22.24c1.37,5,2.5,7.41,3.38,7.27q2.2-.37,5.35-10.67t6.75-30.64q3.06-15.51,5.39-29.3t3.93-25.85a18,18,0,0,0,2.38-7.45,52.58,52.58,0,0,0-.14-11.56q1.93-10.08,3.48-21.13t3.4-22.93c.72-4.67,1.39-10.45,2-17.37s1.27-15.11,2.09-24.64l-4.43-8.79c.14-1.84.44-4.16.88-7a81.21,81.21,0,0,0,.83-9.9,89.2,89.2,0,0,1,8.28-16.15c2.62-3.77,4.87-5.82,6.78-6.14a3.21,3.21,0,0,1,3.49,1.8,22.9,22.9,0,0,1,2.12,7.25q2.26,13.47,3,21c.46,5,.51,8.28.17,9.84q-1,3.36-1.66,6.3c-.43,2-.76,3.57-1,4.82L556,94.93a72.39,72.39,0,0,0-1.22,11.68q-.4,8.36-.43,21.75-.12,12.73-.67,20.31c-.36,5.07-.91,8.49-1.67,10.28a56,56,0,0,1-1.17,10.64c-.8,4.22-1.77,9.24-2.92,15a55.89,55.89,0,0,0-1.36,9.42q-.52,6.33-1.33,15.09-.69,5.34-2,12.7t-2.67,17.82a36.57,36.57,0,0,0-3,8.46,77.88,77.88,0,0,0-1.83,12.79,107.37,107.37,0,0,1-2.35,11q-1.85,7.23-4.49,18.58a183.4,183.4,0,0,1-5.09,18.33c-1.54,4.35-2.71,6.81-3.52,7.4l-4.78,4a8.78,8.78,0,0,1-3.91,3.72,21.14,21.14,0,0,1-6.76,1.7,61.54,61.54,0,0,1-6.32,4.92,12.61,12.61,0,0,1-4.52,2.13,16.39,16.39,0,0,1-14.59-4.36q-6.18-5.77-10.7-19.09-2.25-9.37-4.65-18.85t-4.94-19.27q-1.26-4.77-3.83-12.64t-7.11-18.67q-3.15,9.62-6.54,19.84t-7,21.48q.56,1.95-1.45,10.24t-5.68,23q-3.76,15.41-8.38,31.16-3.63,9.46-8.76,14.76A22,22,0,0,1,398,366.71q-3.54.6-7.79-4.37t-9.46-15.67q-3.15-6.5-6.19-13.14l-6.27-13.59a47.22,47.22,0,0,0,.7-5.34,56.9,56.9,0,0,1-4.62-7.86q-2.56-5-5.81-12.18c-1-3-2.22-6.89-3.78-11.64s-3.33-10.33-5.32-16.8q-.75-3.06-1.51-6.22l-1.5-6.22a22.57,22.57,0,0,0-2.11-5.1,48.28,48.28,0,0,0-4.1-6.12,36.17,36.17,0,0,1-1.87-6.38c-.8-3.42-1.87-8.21-3.2-14.34a69.27,69.27,0,0,0-3.43-12.24c-1.3-3.2-2.76-5.18-4.41-6l-6.72-3.41a37.84,37.84,0,0,1-3.72-9.26A138.81,138.81,0,0,1,313.46,175a485.1,485.1,0,0,1-5.79-52.61q-1.57-27.67-.67-58.7.24-8,3.55-12.62A13.68,13.68,0,0,1,319.82,45.41Z"/><path class="cls-1" d="M566.09,210a44.16,44.16,0,0,1,4.06-8.11A64.12,64.12,0,0,1,577,193q-.06-3.48-.11-6.88a65.43,65.43,0,0,0-.45-6.82,51.84,51.84,0,0,1,.68-5.89q.55-3.4,1.29-7.38.9-4,2.59-10a137.94,137.94,0,0,1,4.77-13.72c1.93-3,4-6.29,6-9.84s4.16-7.14,6.23-10.75a39.15,39.15,0,0,1,3.59-3.58,49.57,49.57,0,0,0,3.91-3.8,38.18,38.18,0,0,1,4.39-2,28.44,28.44,0,0,1,5.52-1.45,23.23,23.23,0,0,1,7-.31,9.26,9.26,0,0,1,4.81,2.16,15.25,15.25,0,0,1,3,3.69,56.64,56.64,0,0,1,3.24,6.27c.71,2.22,1.53,4.64,2.44,7.28-.11-.68-.26-.36-.45,1s-.45,3.39-.79,6.25l-.61,5.69q-1,8.57-7.53,20.67a256.08,256.08,0,0,1-18.32,28.24,10.71,10.71,0,0,0-1.54,3.32,8.81,8.81,0,0,0-.2,4,14.82,14.82,0,0,0,2.33,6.08,9,9,0,0,0,4.33,3.46,16.85,16.85,0,0,0,4.68,1.31,59.63,59.63,0,0,0,7.37.69,55.83,55.83,0,0,0,11.69-4.24,52,52,0,0,0,9-5.71c.5-.44,1.33-1.07,2.47-1.9a20.58,20.58,0,0,0,3.32-3.09c2,3,3.83,5.76,5.4,8.18s2.86,4.53,3.86,6.34a103.82,103.82,0,0,1-15.18,17.32q-7.08,6.17-13.71,7.28a19.64,19.64,0,0,1-5.79,3.51,39.11,39.11,0,0,1-8.11,2.15,31.41,31.41,0,0,1-11.45,0,21,21,0,0,1-9-4.08,20.51,20.51,0,0,1-4.24-4.44c-1.5-2-3.14-4.45-4.89-7.31a26.28,26.28,0,0,0-3.82-5,3.91,3.91,0,0,0-3.36-1.27,5.31,5.31,0,0,0-2.84,1.79,21.56,21.56,0,0,0-3.1,4.45,42.81,42.81,0,0,0-3.43-5.88Q569.75,215.18,566.09,210Zm44-70.7q-3.74.63-8.38,11.45t-3.88,15.42a2.06,2.06,0,0,0,.68,1.37,2.62,2.62,0,0,0,1.85.13,3.56,3.56,0,0,0,2.73-2.47l1.59-4c1.06-1.35,2.08-2.77,3-4.28l2.85-4.4a19.12,19.12,0,0,0,2.25-5.27,12.35,12.35,0,0,0,.23-4.93,4.68,4.68,0,0,0-1-2.37A2,2,0,0,0,610.12,139.33Z"/><path class="cls-1" d="M458.66,410.29l.82-1.36.23-1.78A69.55,69.55,0,0,1,464,400.4c1.23-1.67,2.18-3,2.84-3.89a15.08,15.08,0,0,1,3.37-2.84q2.66-1.85,7.25-4.71l2-1.73a55,55,0,0,1,3.34-6.16q2.46-4.08,5.93-9.38a13.78,13.78,0,0,1,2.18-2.64,26.57,26.57,0,0,0,3.05-3.66q3.43-4.59,6.8-9.44t6.27-9.53c.85-1.19,2.63-3.38,5.36-6.58s6.41-7.63,11-13.3a41,41,0,0,1,3.83-3.18q2.78-2.14,7.34-5.17a6.9,6.9,0,0,0,2.76-3.87,13.73,13.73,0,0,0,.11-6.05,37,37,0,0,0,1.74-5.79,71.65,71.65,0,0,0,1.22-7.82q.81-5.55,1.19-9a42.52,42.52,0,0,1,.69-4.74q1.61-8.14,4.8-19.25t7.77-25.51q2.22-7.53,5.38-16.81a21.29,21.29,0,0,1,5.39-7.46,14.67,14.67,0,0,1,7.13-3.37,4.93,4.93,0,0,1,4.89,1.61c1.24,1.44,2.11,3.67,2.62,6.73A93.76,93.76,0,0,1,581.59,231a45.58,45.58,0,0,1-1.66,13,15.57,15.57,0,0,0-.25,3.72q.06,2.43.29,5.89a11.93,11.93,0,0,1-.5,4.8,18.09,18.09,0,0,1-2.12,4.55,14.68,14.68,0,0,1,.14,2.86c0,1.12-.06,2.43,0,3.94l-1.87,3.46a8.09,8.09,0,0,0,.08,2.52l.5,3a14,14,0,0,1-.52,4.2c-.46,2.11-1.18,5.12-2.15,9q-1.75,6.24-2.8,9.91a28.46,28.46,0,0,0-1.06,4.54,27.08,27.08,0,0,0-1.33,3c-.52,1.37-1.16,2.94-1.92,4.69l1.14,3.66-4.31,40.91q1.1,6.47,2,11a28.88,28.88,0,0,0,2.25,7.13,51.58,51.58,0,0,0,4,6.59,80.1,80.1,0,0,0,6.51,8.08,12.38,12.38,0,0,0,5.21,3.93,11,11,0,0,0,5.68.53,13.93,13.93,0,0,0,6.24-2.89,26.24,26.24,0,0,0,5.78-6.65q2.79,4.08,5.23,7.68t4.2,6.81a27.32,27.32,0,0,0-3.07,4.1q-2.29,3.45-6,9.66a15.87,15.87,0,0,1-5.93,5.8,29.17,29.17,0,0,1-9.53,3.08q-12.75,2.14-21.85-3.13t-14.55-18l-2-4.56c-.56-1.3-1.11-2.5-1.64-3.57a27.58,27.58,0,0,0-5.25-6.28c-.6,1.27-1.09,2.22-1.44,2.86a28.92,28.92,0,0,0-3.85,4.67,43.29,43.29,0,0,0-3.92,7.3,22.74,22.74,0,0,1-1.18,4.48,69.53,69.53,0,0,1-2.75,6.49q-4.38,7.2-8.92,14.52t-9.11,14.37q-6.22,9.8-12,14.87c-3.86,3.38-7.37,5.35-10.54,5.88q-8.51,1.43-13.25-1.88t-6.18-11.81q-.66-3.9,1-11.44t1.14-10.94l-1.48-2.55Zm73.28-55.79a8.19,8.19,0,0,0-1.11-2.43q-2.13,3-5.29,7T518,368a56.38,56.38,0,0,1-4,9.5q-3.25,6.57-9.45,16.53a69.93,69.93,0,0,0-4.48,9.75q-2.68,6.84-6.61,16.76a94.5,94.5,0,0,0-2.46,9.32,3.26,3.26,0,0,0,1.73,2q4.85-2.39,11-11a230.49,230.49,0,0,0,14.15-23.44q8.19-15.71,11.64-26.33T531.94,354.5Z"/><text class="cls-2" transform="matrix(0.44, 0.9, -0.9, 0.44, 147.14, 73.31)">BRANDING</text></svg>