<svg id="Layer_1" data-name="Layer 1" xmlns="http://www.w3.org/2000/svg" viewBox="0 0 600 600"><defs><style>.cls-1{fill:none;stroke:#ef7846;stroke-miterlimit:10;stroke-width:5px;}.cls-2{isolation:isolate;font-size:99.5px;fill:#ef7846;font-family:InkFree, Ink Free;}</style></defs><path class="cls-1" d="M206.88,47.77a21.76,21.76,0,0,1,8.51,0,17.37,17.37,0,0,1,6.24,2.7,26.09,26.09,0,0,1,4.74,4.53C228,57,230,59.32,232.44,62.1c3.07,3.88,5.31,6.86,6.73,9a14.91,14.91,0,0,1,2.3,4.26q.59,13,1.26,25,1.2,12.51,1.39,25.87a70.22,70.22,0,0,0-.39,7.1q1.82,5.38,3.4,11.47T250,157c.83,3.2,1.59,6.81,2.27,10.86s1.31,8.67,1.88,13.87q1.44,9.77,2.22,15.86c.53,4.07.92,6.84,1.17,8.33a34.62,34.62,0,0,0,.81,3.49,32.37,32.37,0,0,0,1.63,4.27q1,3,2.85,7.46l2.33,13.91q1.64,8.37,11.93,38t12.25,31.54a23,23,0,0,1,2.42-1.76l12-33.81c.46-2.65,1.06-6.05,1.8-10.18s1.64-8.94,2.68-14.42q6.66-21.09,10.34-53.84t4.19-76.89q.57-12.8,3.65-20.81t8.11-10.55L353,72a14.82,14.82,0,0,1,8.21,4.19,16.44,16.44,0,0,1,3.71,8.57q1.14,6.84,1.3,22.6t-1,39.79c.43,3.41.75,7.68.95,12.78s.43,11.14.7,18c-.29,5.5-.48,9.86-.64,13.06a44.83,44.83,0,0,0,0,5.91c.64,3.83,1.46,8.19,2.43,13.1s2.06,10.44,3.25,16.6q2.34,11.17,3.6,18.69l1.78,10.6q2.7,14.76,4.76,22.24c1.37,5,2.5,7.41,3.38,7.27q2.21-.37,5.35-10.67t6.75-30.64q3.06-15.51,5.4-29.3t3.93-25.85a18.17,18.17,0,0,0,2.38-7.45,52.57,52.57,0,0,0-.15-11.56q1.93-10.08,3.48-21.13t3.4-22.93c.72-4.67,1.4-10.45,2-17.37s1.28-15.11,2.1-24.64l-4.43-8.79c.14-1.84.44-4.16.88-7a84.18,84.18,0,0,0,.83-9.9A88.55,88.55,0,0,1,425.59,42c2.62-3.77,4.87-5.82,6.78-6.14a3.23,3.23,0,0,1,3.49,1.8A23.19,23.19,0,0,1,438,44.92q2.25,13.47,3,21c.46,5,.51,8.28.17,9.84q-1,3.36-1.66,6.3c-.43,2-.76,3.57-1,4.82l4.56,10.41A71.51,71.51,0,0,0,441.84,109q-.4,8.36-.43,21.75-.12,12.74-.67,20.31c-.36,5.07-.91,8.49-1.67,10.28A56.73,56.73,0,0,1,437.9,172c-.8,4.22-1.77,9.24-2.92,15a54.57,54.57,0,0,0-1.36,9.42q-.53,6.33-1.33,15.09-.69,5.34-2,12.7T427.62,242a36,36,0,0,0-3,8.46,76.69,76.69,0,0,0-1.83,12.79,110.87,110.87,0,0,1-2.35,11q-1.86,7.23-4.49,18.58a185,185,0,0,1-5.09,18.33c-1.54,4.35-2.71,6.81-3.52,7.4l-4.78,4a8.84,8.84,0,0,1-3.91,3.72,21.14,21.14,0,0,1-6.76,1.7,61.17,61.17,0,0,1-6.32,4.92,12.69,12.69,0,0,1-4.52,2.13,16.39,16.39,0,0,1-14.59-4.36q-6.18-5.77-10.7-19.09-2.25-9.37-4.65-18.85t-4.94-19.27q-1.26-4.77-3.83-12.64t-7.11-18.67q-3.15,9.62-6.54,19.84t-7,21.48q.56,1.95-1.45,10.24t-5.68,23q-3.76,15.4-8.38,31.16-3.63,9.47-8.76,14.76a22,22,0,0,1-12.37,6.46q-3.54.6-7.79-4.37T267.8,349q-3.15-6.5-6.19-13.14l-6.26-13.59a50.66,50.66,0,0,0,.7-5.34,55.8,55.8,0,0,1-4.62-7.86q-2.56-5-5.81-12.18c-1-3-2.22-6.89-3.78-11.64s-3.33-10.33-5.32-16.8c-.5-2-1-4.11-1.51-6.22l-1.5-6.22a23.45,23.45,0,0,0-2.11-5.1,48.38,48.38,0,0,0-4.1-6.12,35.36,35.36,0,0,1-1.87-6.38c-.8-3.42-1.87-8.21-3.2-14.34a70.16,70.16,0,0,0-3.43-12.24c-1.3-3.2-2.76-5.18-4.41-6l-6.72-3.41a37.33,37.33,0,0,1-3.72-9.26,138.21,138.21,0,0,1-3.44-15.83,488.85,488.85,0,0,1-5.79-52.61q-1.56-27.68-.67-58.7.24-8,3.55-12.62A13.7,13.7,0,0,1,206.88,47.77Z"/><path class="cls-1" d="M453.15,212.36a43.91,43.91,0,0,1,4.06-8.11,64.05,64.05,0,0,1,6.84-8.89c0-2.32-.07-4.61-.1-6.88a67.52,67.52,0,0,0-.46-6.82,55.6,55.6,0,0,1,.68-5.89q.56-3.41,1.29-7.38.92-4,2.59-10a139.17,139.17,0,0,1,4.78-13.72c1.93-3,4-6.29,6-9.84s4.15-7.14,6.22-10.75a38,38,0,0,1,3.6-3.58,48.22,48.22,0,0,0,3.9-3.8,37.08,37.08,0,0,1,4.4-2,28.21,28.21,0,0,1,5.52-1.45,23.15,23.15,0,0,1,7-.31,9.34,9.34,0,0,1,4.81,2.16,15.71,15.71,0,0,1,3,3.69,58,58,0,0,1,3.24,6.27c.71,2.22,1.53,4.64,2.44,7.28-.11-.68-.26-.36-.45,1s-.46,3.39-.79,6.25l-.61,5.69q-1,8.57-7.53,20.67a259.17,259.17,0,0,1-18.32,28.24,10.26,10.26,0,0,0-1.54,3.32,8.6,8.6,0,0,0-.2,4,14.73,14.73,0,0,0,2.33,6.08,9,9,0,0,0,4.33,3.46,16.8,16.8,0,0,0,4.68,1.31,60.64,60.64,0,0,0,7.37.69,56,56,0,0,0,11.69-4.24,52.22,52.22,0,0,0,9-5.71c.5-.44,1.33-1.07,2.47-1.9a20.66,20.66,0,0,0,3.32-3.09c2,3,3.83,5.76,5.4,8.18s2.86,4.53,3.86,6.34A104.33,104.33,0,0,1,532.79,230q-7.08,6.17-13.71,7.28a19.86,19.86,0,0,1-5.79,3.51,38.66,38.66,0,0,1-8.11,2.15,31.48,31.48,0,0,1-11.45,0,20.85,20.85,0,0,1-9-4.08,20.53,20.53,0,0,1-4.24-4.44c-1.5-2-3.14-4.45-4.89-7.31a26.91,26.91,0,0,0-3.82-5,3.92,3.92,0,0,0-3.36-1.27,5.23,5.23,0,0,0-2.84,1.79,21.38,21.38,0,0,0-3.1,4.45,44.22,44.22,0,0,0-3.43-5.88Q456.8,217.54,453.15,212.36Zm44-70.7q-3.75.63-8.38,11.45t-3.88,15.42a2,2,0,0,0,.68,1.37,2.6,2.6,0,0,0,1.84.13,3.55,3.55,0,0,0,2.73-2.47l1.59-4a42.46,42.46,0,0,0,3-4.28l2.85-4.4a18.76,18.76,0,0,0,2.25-5.27,12.23,12.23,0,0,0,.23-4.93,4.61,4.61,0,0,0-1-2.37,2,2,0,0,0-1.89-.62Z"/><path class="cls-1" d="M345.71,412.65l.83-1.36.23-1.78a69.81,69.81,0,0,1,4.28-6.75c1.24-1.67,2.18-3,2.84-3.89a15.27,15.27,0,0,1,3.37-2.84c1.78-1.23,4.19-2.8,7.25-4.71l2-1.73a57.18,57.18,0,0,1,3.34-6.16q2.46-4.08,5.93-9.38a14.18,14.18,0,0,1,2.18-2.64,26,26,0,0,0,3.05-3.66q3.44-4.59,6.8-9.44t6.27-9.53c.85-1.19,2.63-3.38,5.36-6.58s6.41-7.63,11-13.3a42.75,42.75,0,0,1,3.83-3.18q2.79-2.14,7.34-5.17a6.93,6.93,0,0,0,2.77-3.87,13.73,13.73,0,0,0,.1-6.05,36.72,36.72,0,0,0,1.74-5.79,68.71,68.71,0,0,0,1.22-7.82q.81-5.55,1.19-9a47.47,47.47,0,0,1,.69-4.74q1.62-8.14,4.8-19.25t7.77-25.51q2.22-7.53,5.38-16.81a21.48,21.48,0,0,1,5.39-7.46,14.75,14.75,0,0,1,7.13-3.37,4.93,4.93,0,0,1,4.89,1.61c1.24,1.44,2.11,3.67,2.62,6.73a93.11,93.11,0,0,1,1.35,14.14,46,46,0,0,1-1.66,13,15,15,0,0,0-.25,3.72c0,1.62.13,3.58.29,5.89a12,12,0,0,1-.5,4.8,18.5,18.5,0,0,1-2.12,4.55,16.08,16.08,0,0,1,.14,2.86c0,1.12-.06,2.43,0,3.94l-1.87,3.46a7.89,7.89,0,0,0,.08,2.52l.5,3a14.19,14.19,0,0,1-.52,4.2c-.46,2.11-1.18,5.12-2.15,9q-1.75,6.24-2.8,9.91a27.2,27.2,0,0,0-1.06,4.54,25.1,25.1,0,0,0-1.33,3c-.52,1.37-1.16,2.94-1.92,4.69l1.14,3.66L450.31,361q1.1,6.47,2,11a28.44,28.44,0,0,0,2.25,7.13,50.3,50.3,0,0,0,4,6.59,78.79,78.79,0,0,0,6.51,8.08,12.35,12.35,0,0,0,5.21,3.93,11,11,0,0,0,5.68.53,14,14,0,0,0,6.24-2.89,26.46,26.46,0,0,0,5.78-6.65q2.79,4.08,5.23,7.68t4.2,6.81a27.22,27.22,0,0,0-3.07,4.1q-2.29,3.45-6,9.66a15.94,15.94,0,0,1-5.93,5.8,29.18,29.18,0,0,1-9.53,3.08Q460.13,428,451,422.73t-14.55-18l-2-4.56c-.56-1.3-1.11-2.5-1.64-3.57a27.75,27.75,0,0,0-5.25-6.28c-.6,1.27-1.09,2.22-1.44,2.86a28.21,28.21,0,0,0-3.85,4.67,43.09,43.09,0,0,0-3.92,7.3,23.1,23.1,0,0,1-1.18,4.48q-1.21,3.31-2.75,6.49-4.38,7.2-8.92,14.52T396.42,445q-6.23,9.8-12,14.87c-3.86,3.38-7.37,5.35-10.54,5.88q-8.52,1.42-13.25-1.88t-6.18-11.81q-.66-3.9,1-11.44t1.14-10.94l-1.48-2.55ZM419,356.86a8,8,0,0,0-1.1-2.43q-2.14,3-5.29,7t-7.55,8.93a55.73,55.73,0,0,1-4,9.5q-3.24,6.57-9.45,16.53a71,71,0,0,0-4.48,9.75q-2.67,6.84-6.61,16.76-1.45,4.59-2.46,9.32a3.26,3.26,0,0,0,1.74,2q4.84-2.39,11-11a230.3,230.3,0,0,0,14.14-23.44q8.2-15.7,11.65-26.33T419,356.86Z"/><text class="cls-2" transform="translate(34.19 75.67) rotate(63.95)">BRANDING</text></svg>