<?xml version="1.0" encoding="UTF-8"?><svg id="a" xmlns="http://www.w3.org/2000/svg" viewBox="0 0 600 600"><defs><style>.b{fill:#ef7846;font-family:InkFree, Ink Free;font-size:99.5px;isolation:isolate;stroke-width:3px;}.b,.c{stroke:#ef7846;stroke-miterlimit:10;}.c{fill:none;stroke-width:8px;}</style></defs><path class="c" d="M206.88,47.77c2.81-.56,5.7-.56,8.51,0,2.24,.48,4.36,1.4,6.24,2.7,1.76,1.3,3.36,2.83,4.74,4.53,1.63,2,3.63,4.32,6.07,7.1,3.07,3.88,5.31,6.86,6.73,9,.99,1.29,1.77,2.72,2.3,4.26,.39,8.67,.81,17,1.26,25,.8,8.34,1.26,16.96,1.39,25.87-.25,2.36-.38,4.73-.39,7.1,1.21,3.59,2.35,7.41,3.4,11.47,1.05,4.06,2.01,8.13,2.87,12.2,.83,3.2,1.59,6.81,2.27,10.86s1.31,8.67,1.88,13.87c.96,6.51,1.7,11.8,2.22,15.86,.53,4.07,.92,6.84,1.17,8.33,.21,1.18,.48,2.34,.81,3.49,.44,1.46,.99,2.89,1.63,4.27,.67,2,1.62,4.49,2.85,7.46l2.33,13.91c1.09,5.58,5.07,18.25,11.93,38,6.86,19.75,10.94,30.27,12.25,31.54,.77-.64,1.58-1.23,2.42-1.76l12-33.81c.46-2.65,1.06-6.05,1.8-10.18s1.64-8.94,2.68-14.42c4.44-14.06,7.89-32.01,10.34-53.84,2.45-21.83,3.85-47.46,4.19-76.89,.38-8.53,1.6-15.47,3.65-20.81s4.76-8.86,8.11-10.55l18.47-10.33c3.11,.49,5.99,1.96,8.21,4.19,2.04,2.44,3.33,5.41,3.71,8.57,.76,4.56,1.19,12.09,1.3,22.6,.11,10.51-.23,23.77-1,39.79,.43,3.41,.75,7.68,.95,12.78s.43,11.14,.7,18c-.29,5.5-.48,9.86-.64,13.06-.13,1.97-.13,3.94,0,5.91,.64,3.83,1.46,8.19,2.43,13.1s2.06,10.44,3.25,16.6c1.56,7.45,2.76,13.68,3.6,18.69l1.78,10.6c1.8,9.84,3.39,17.25,4.76,22.24,1.37,5,2.5,7.41,3.38,7.27,1.47-.25,3.26-3.8,5.35-10.67,2.09-6.87,4.34-17.08,6.75-30.64,2.04-10.34,3.84-20.11,5.4-29.3s2.87-17.81,3.93-25.85c1.32-2.28,2.14-4.82,2.38-7.45,.38-3.85,.32-7.72-.15-11.56,1.29-6.72,2.45-13.76,3.48-21.13s2.17-15.01,3.4-22.93c.72-4.67,1.4-10.45,2-17.37s1.28-15.11,2.1-24.64l-4.43-8.79c.14-1.84,.44-4.16,.88-7,.47-3.28,.75-6.59,.83-9.9,2.19-5.66,4.95-11.08,8.24-16.17,2.62-3.77,4.87-5.82,6.78-6.14,1.44-.26,2.87,.48,3.49,1.8,1.11,2.29,1.83,4.74,2.14,7.26,1.5,8.98,2.5,15.98,3,21,.46,5,.51,8.28,.17,9.84-.67,2.24-1.22,4.34-1.66,6.3-.43,2-.76,3.57-1,4.82l4.56,10.41c-.73,3.86-1.14,7.78-1.23,11.71-.27,5.57-.41,12.82-.43,21.75-.08,8.49-.3,15.26-.67,20.31-.36,5.07-.91,8.49-1.67,10.28-.05,3.58-.44,7.15-1.17,10.66-.8,4.22-1.77,9.24-2.92,15-.73,3.09-1.18,6.25-1.36,9.42-.35,4.22-.8,9.25-1.33,15.09-.46,3.56-1.13,7.79-2,12.7-.87,4.91-1.76,10.84-2.67,17.79-1.35,2.68-2.36,5.53-3,8.46-.97,4.2-1.58,8.48-1.83,12.79-.6,3.7-1.38,7.38-2.35,11-1.24,4.82-2.74,11.01-4.49,18.58-1.38,6.19-3.08,12.31-5.09,18.33-1.54,4.35-2.71,6.81-3.52,7.4l-4.78,4c-.88,1.62-2.25,2.92-3.91,3.72-2.14,.94-4.43,1.51-6.76,1.7-2,1.78-4.11,3.42-6.32,4.92-1.35,1-2.89,1.73-4.52,2.13-5.28,1.03-10.74-.6-14.59-4.36-4.12-3.85-7.69-10.21-10.7-19.09-1.5-6.25-3.05-12.53-4.65-18.85-1.6-6.32-3.25-12.74-4.94-19.27-.84-3.18-2.12-7.39-3.83-12.64-1.71-5.25-4.08-11.47-7.11-18.67-2.1,6.41-4.28,13.03-6.54,19.84-2.26,6.81-4.59,13.97-7,21.48,.37,1.3-.11,4.71-1.45,10.24-1.34,5.53-3.23,13.19-5.68,23-2.51,10.27-5.3,20.65-8.38,31.16-2.42,6.31-5.34,11.23-8.76,14.76-3.31,3.44-7.65,5.71-12.37,6.46-2.36,.4-4.96-1.06-7.79-4.37s-5.99-8.55-9.46-15.72c-2.1-4.33-4.16-8.71-6.19-13.14l-6.26-13.59c.33-1.77,.56-3.55,.7-5.34-1.75-2.49-3.3-5.12-4.62-7.86-1.71-3.33-3.64-7.39-5.81-12.18-1-3-2.22-6.89-3.78-11.64s-3.33-10.33-5.32-16.8c-.5-2-1-4.11-1.51-6.22l-1.5-6.22c-.5-1.78-1.21-3.49-2.11-5.1-1.21-2.14-2.58-4.19-4.1-6.12-.82-2.06-1.45-4.2-1.87-6.38-.8-3.42-1.87-8.21-3.2-14.34-.77-4.18-1.92-8.27-3.43-12.24-1.3-3.2-2.76-5.18-4.41-6l-6.72-3.41c-1.65-2.91-2.9-6.02-3.72-9.26-1.46-5.2-2.6-10.49-3.44-15.83-2.88-17.42-4.81-34.98-5.79-52.61-1.04-18.45-1.26-38.02-.67-58.7,.16-5.33,1.34-9.54,3.55-12.62,2.19-3.07,5.54-5.11,9.28-5.63Z"/><path class="c" d="M453.15,212.36c1.07-2.84,2.43-5.55,4.06-8.11,2.02-3.16,4.3-6.13,6.84-8.89,0-2.32-.07-4.61-.1-6.88-.04-2.28-.19-4.56-.46-6.82,.12-1.97,.35-3.94,.68-5.89,.37-2.27,.8-4.73,1.29-7.38,.61-2.67,1.48-6,2.59-10,1.35-4.65,2.95-9.23,4.78-13.72,1.93-3,4-6.29,6-9.84s4.15-7.14,6.22-10.75c1.12-1.27,2.32-2.47,3.6-3.58,1.37-1.19,2.67-2.46,3.9-3.8,1.42-.76,2.89-1.43,4.4-2,1.79-.67,3.64-1.15,5.52-1.45,2.3-.46,4.66-.56,7-.31,1.78,.24,3.45,.99,4.81,2.16,1.18,1.07,2.19,2.31,3,3.69,1.21,2.02,2.29,4.12,3.24,6.27,.71,2.22,1.53,4.64,2.44,7.28-.11-.68-.26-.36-.45,1s-.46,3.39-.79,6.25l-.61,5.69c-.67,5.71-3.18,12.6-7.53,20.67-5.49,9.8-11.61,19.23-18.32,28.24-.71,1.01-1.23,2.13-1.54,3.32-.38,1.3-.45,2.67-.2,4,.31,2.18,1.11,4.25,2.33,6.08,1.04,1.58,2.56,2.79,4.33,3.46,1.49,.66,3.06,1.1,4.68,1.31,2.44,.38,4.9,.61,7.37,.69,4.04-.97,7.96-2.4,11.69-4.24,3.19-1.59,6.2-3.5,9-5.71,.5-.44,1.33-1.07,2.47-1.9,1.22-.91,2.33-1.94,3.32-3.09,2,3,3.83,5.76,5.4,8.18s2.86,4.53,3.86,6.34c-4.4,6.33-9.49,12.16-15.18,17.37-4.72,4.11-9.29,6.54-13.71,7.28-1.71,1.49-3.67,2.68-5.79,3.51-2.62,1.01-5.34,1.73-8.11,2.15-3.78,.7-7.67,.7-11.45,0-3.28-.62-6.37-2.02-9-4.08-1.63-1.26-3.06-2.76-4.24-4.44-1.5-2-3.14-4.45-4.89-7.31-1.07-1.81-2.36-3.49-3.82-5-.85-.94-2.1-1.41-3.36-1.27-1.12,.27-2.12,.9-2.84,1.79-1.22,1.35-2.26,2.84-3.1,4.45-.99-2.05-2.14-4.01-3.43-5.88-1.5-2.44-3.47-5.39-5.9-8.84Zm44-70.7c-2.5,.42-5.29,4.24-8.38,11.45-3.09,7.21-4.38,12.35-3.88,15.42,.04,.53,.28,1.02,.68,1.37,.58,.27,1.23,.31,1.84,.13,1.3-.25,2.35-1.2,2.73-2.47l1.59-4c1.09-1.36,2.09-2.79,3-4.28l2.85-4.4c1.02-1.63,1.77-3.41,2.25-5.27,.41-1.61,.49-3.29,.23-4.93-.1-.87-.45-1.69-1-2.37-.48-.53-1.19-.76-1.89-.62l-.02-.03Z"/><path class="c" d="M345.71,412.65l.83-1.36,.23-1.78c1.3-2.33,2.73-4.58,4.28-6.75,1.24-1.67,2.18-3,2.84-3.89,.98-1.1,2.12-2.06,3.37-2.84,1.78-1.23,4.19-2.8,7.25-4.71l2-1.73c.99-2.12,2.1-4.18,3.34-6.16,1.64-2.72,3.62-5.85,5.93-9.38,.62-.96,1.35-1.85,2.18-2.64,1.13-1.12,2.15-2.35,3.05-3.66,2.29-3.06,4.56-6.21,6.8-9.44s4.33-6.41,6.27-9.53c.85-1.19,2.63-3.38,5.36-6.58s6.41-7.63,11-13.3c1.21-1.13,2.49-2.2,3.83-3.18,1.86-1.43,4.31-3.15,7.34-5.17,1.35-.92,2.33-2.29,2.77-3.87,.48-1.98,.52-4.05,.1-6.05,.74-1.88,1.32-3.82,1.74-5.79,.56-2.58,.96-5.19,1.22-7.82,.54-3.7,.94-6.7,1.19-9,.15-1.59,.38-3.17,.69-4.74,1.08-5.43,2.68-11.84,4.8-19.25,2.12-7.41,4.71-15.91,7.77-25.51,1.48-5.02,3.27-10.62,5.38-16.81,1.24-2.85,3.08-5.39,5.39-7.46,2.03-1.75,4.49-2.91,7.13-3.37,1.8-.42,3.69,.2,4.89,1.61,1.24,1.44,2.11,3.67,2.62,6.73,.81,4.67,1.26,9.4,1.35,14.14,.07,4.39-.49,8.77-1.66,13-.24,1.22-.32,2.47-.25,3.72,0,1.62,.13,3.58,.29,5.89,.16,1.62-.01,3.25-.5,4.8-.5,1.61-1.21,3.14-2.12,4.55,.13,.95,.18,1.9,.14,2.86,0,1.12-.06,2.43,0,3.94l-1.87,3.46c-.11,.84-.08,1.69,.08,2.52l.5,3c.04,1.42-.14,2.83-.52,4.2-.46,2.11-1.18,5.12-2.15,9-1.17,4.16-2.1,7.46-2.8,9.91-.48,1.48-.84,3-1.06,4.54-.51,.97-.95,1.97-1.33,3-.52,1.37-1.16,2.94-1.92,4.69l1.14,3.66-4.31,40.9c.73,4.31,1.4,7.98,2,11,.43,2.47,1.19,4.86,2.25,7.13,1.16,2.3,2.5,4.5,4,6.59,1.99,2.83,4.16,5.53,6.51,8.08,1.35,1.75,3.15,3.11,5.21,3.93,1.81,.67,3.77,.86,5.68,.53,2.29-.43,4.43-1.42,6.24-2.89,2.28-1.88,4.24-4.13,5.78-6.65,1.86,2.72,3.6,5.28,5.23,7.68,1.63,2.4,3.03,4.67,4.2,6.81-1.15,1.27-2.18,2.64-3.07,4.1-1.53,2.3-3.53,5.52-6,9.66-1.43,2.42-3.48,4.42-5.93,5.8-2.98,1.57-6.2,2.61-9.53,3.08-8.5,1.43-15.79,.39-21.88-3.12-6.09-3.51-10.94-9.51-14.55-18l-2-4.56c-.56-1.3-1.11-2.5-1.64-3.57-1.43-2.34-3.2-4.46-5.25-6.28-.6,1.27-1.09,2.22-1.44,2.86-1.45,1.41-2.74,2.98-3.85,4.67-1.54,2.3-2.85,4.75-3.92,7.3-.24,1.53-.64,3.03-1.18,4.48-.81,2.21-1.72,4.37-2.75,6.49-2.92,4.8-5.89,9.64-8.92,14.52-3.03,4.88-6.05,9.67-9.08,14.36-4.15,6.53-8.15,11.49-12,14.87-3.86,3.38-7.37,5.35-10.54,5.88-5.68,.95-10.1,.32-13.25-1.88s-5.21-6.14-6.18-11.81c-.44-2.6-.11-6.41,1-11.44s1.49-8.67,1.14-10.94l-1.48-2.55-9.4-14.48Zm73.29-55.79c-.23-.87-.6-1.69-1.1-2.43-1.43,2-3.19,4.33-5.29,7-2.1,2.67-4.62,5.64-7.55,8.93-1.04,3.28-2.38,6.46-4,9.5-2.16,4.38-5.31,9.89-9.45,16.53-1.74,3.13-3.23,6.39-4.48,9.75-1.78,4.56-3.98,10.15-6.61,16.76-.97,3.06-1.79,6.17-2.46,9.32,.27,.88,.9,1.61,1.74,2,3.23-1.59,6.89-5.26,11-11,5.17-7.53,9.9-15.35,14.14-23.44,5.47-10.47,9.35-19.24,11.65-26.33s3.1-12.62,2.41-16.59Z"/><text class="b" transform="translate(34.19 75.67) rotate(63.95)"><tspan x="0" y="0">BRANDING</tspan></text></svg>