<svg id="Layer_1" data-name="Layer 1" xmlns="http://www.w3.org/2000/svg" viewBox="0 0 375 812"><defs><style>.cls-1{fill:#f7a721;}</style></defs><path class="cls-1" d="M186.64,14.55c-.24,41.53-.81,83.06-.63,124.59s1.08,83.19,3.84,124.69c1.13,16.94,3.32,33.85,4.15,50.81.46,9.38.57,18.77.95,28.15.88,21.8,2.21,44.85,10.52,65.29,3.43,8.44,8.47,16.76,16.27,21.83a30.84,30.84,0,0,0,12.58,4.59c7.26,1,13.83-1.07,20.66-3.33,6.67-2.22,13.8-4.66,20.93-3.6,5.42.81,9.71,3.92,13.29,7.91,7.35,8.16,11.3,19.11,14.3,29.49,3.59,12.46,5.85,25.27,7.95,38,1.86,11.23,3.29,22.64,6.13,33.68a130.21,130.21,0,0,0,6.5,18.14A79.05,79.05,0,0,0,334,572.54c9.44,12.19,24,18.88,38.15,24.16,1.93.73,3.87,1.4,5.83,2V-4.5H186.69Q186.68,5,186.64,14.55Z"/></svg>