<?xml version="1.0" encoding="UTF-8"?><svg id="a" xmlns="http://www.w3.org/2000/svg" viewBox="0 0 600 600"><defs><style>.b{fill:none;stroke-width:7px;}.b,.c,.d,.e{stroke:#ef7846;stroke-miterlimit:10;}.c{font-family:InkFree, Ink Free;font-size:29.28px;isolation:isolate;stroke-width:2px;}.c,.d,.e{fill:#ef7846;}.d{stroke-width:3px;}.e{stroke-width:4px;}</style></defs><path class="e" d="M594.35,107.01c-1.44,23.45-4.94,46.72-10.47,69.55-1.55,6.45-3.27,12.85-5.16,19.22-.9,3.04,3.85,4.34,4.74,1.31,6.73-22.89,11.44-46.32,14.08-70.03,.74-6.67,1.31-13.36,1.72-20.06,.2-3.17-4.72-3.16-4.92,0Z"/><path class="e" d="M289.34,198.09c14.9-11.92,22.45-30.78,19.89-49.69-1-7-3.64-13.49-6-20.09-2.23-6.31-4.23-13.08-3.29-19.85,.8-5.12,3.06-9.9,6.51-13.76,7.41-8.51,18.75-13.27,29.93-13.59,17.07-.47,33.14,6.81,48.32,13.76,1.2,.65,2.7,.26,3.42-.9,.69-1.19,.29-2.71-.89-3.42-14.1-6.44-28.59-13-44.24-14.25-12.78-1-25.55,2.32-35.56,10.5-4.5,3.62-8.05,8.28-10.34,13.58-2.44,6.15-2.96,12.9-1.5,19.36,1.44,7.15,4.49,13.83,6.67,20.76,5.98,18.07,.93,37.96-12.93,51-1.13,1.06-2.3,2.06-3.53,3-.97,.98-.97,2.56,0,3.54,.99,.94,2.55,.94,3.54,0v.05Z"/><path class="b" d="M271.58,181.25c7.65,15.85,19,23.17,35.52,18.28l26.9,50.47c-8.88,2.75-15.3,7.58-19.61,14.35l-19.05-34.24-24.57,57.59c-13-12.45-29.46-21.18-48-27.49l25.65-49.86-30.65,4.35c5.55-5.39,4.76-13.93,.28-24.3l53.53-9.15Z"/><path class="d" d="M221.5,304.4c14.34-8.98,29.63-16.35,45.59-21.98,4.58-1.62,9.21-3.09,13.9-4.4,3.3-.93,1.89-6.09-1.42-5.15-16.65,4.72-32.73,11.26-47.96,19.48-4.34,2.35-8.62,4.85-12.83,7.48-2.91,1.82-.24,6.41,2.69,4.62l.02-.04Z"/><path class="d" d="M246.23,264.52c3.44,0,3.44-5.34,0-5.34s-3.44,5.34,0,5.34Z"/><path class="e" d="M256.6,309.85c3.22,0,3.23-5,0-5s-3.22,5,0,5Z"/><path class="e" d="M156.51,343.93c16.35,9.84,31.99,20.83,46.79,32.89,4.21,3.42,8.35,6.93,12.41,10.53,.97,.93,2.5,.93,3.47,0,.94-.97,.94-2.51,0-3.48-14.56-12.85-30.01-24.67-46.24-35.35-4.59-3.03-9.24-5.96-13.95-8.79-2.72-1.64-5.19,2.61-2.48,4.24v-.04Z"/><path class="e" d="M148.71,359.5c5.16,5.9,11.43,10.69,17.9,15.07,6.89,4.7,14.01,9.16,21.03,13.71,2.66,1.73,5.13-2.53,2.48-4.24-6.89-4.48-13.85-8.85-20.66-13.48-6.26-4.23-12.28-8.85-17.27-14.54-.96-.96-2.51-.96-3.47,0-.94,.97-.94,2.5,0,3.47h0Z"/><path class="e" d="M126.6,381.07l44.63,32.09,12.58,9c1.2,.68,2.71,.28,3.42-.9,.66-1.2,.26-2.7-.9-3.42l-44.63-32-12.58-9c-1.19-.68-2.71-.29-3.42,.89-.66,1.2-.27,2.7,.9,3.42v-.08Z"/><path class="e" d="M114.58,398.49l40.65,30.72c1.2,.68,2.71,.28,3.42-.9,.66-1.2,.27-2.7-.9-3.42l-40.64-30.72c-1.19-.69-2.72-.29-3.42,.9-.66,1.2-.27,2.7,.89,3.42h0Z"/><text class="c" transform="translate(408.94 109.09) rotate(16.05)"><tspan x="0" y="0">E-COMMERCE</tspan></text><path class="e" d="M196.15,120.8c-26.39,33.29-53.23,66.2-80.08,99.2s-53.6,65.68-80,98.87c-3.17,4-6.34,8-9.49,12-3.31,4.2-6.91,8.3-10,12.69-2.36,3.39-4.06,7.51-5.81,11.25s-3.4,7.63-4.88,11.53c-1.6,4.26-3,8.59-4.25,13s-1,9-.53,13.36c.69,7.95,3.33,15.61,7.68,22.3,5,7.4,12.33,13,18.93,18.81,7.56,6.67,15.18,13.31,22.85,19.94,15.1,12.95,30.43,25.62,46,38,15.7,12.52,31.6,24.79,47.71,36.81,4.21,3.15,8.44,6.28,12.68,9.4,3.53,2.58,6.72,5,11.11,5.85,7.79,1.52,15.8-.79,22.57-4.65,3.49-1.99,6.72-4.4,9.61-7.18,3.51-3.37,6.12-7.67,9-11.59,6.31-8.67,12.65-17.29,19-25.87,12.6-17.02,25.29-33.97,38.08-50.85,25.22-33.34,50.68-66.49,76-99.77,25.68-33.77,51.19-67.67,76.16-102,9.32-12.8,18.54-27.88,17.88-44.36-.32-7.67-3.09-15.03-7.91-21-3-3.77-6.76-6.87-10.39-10s-7.3-6.22-11-9.23c-30.22-24.44-63.43-44.74-95.13-67.15-7.76-5.49-15.43-11.11-22.93-17-2.51-2-6.08,1.56-3.54,3.54,29.84,23.23,62.15,43,92.86,65,7.77,5.57,15.43,11.29,22.91,17.26,7.33,5.85,15.11,11.75,21.55,18.59,5.27,5.48,8.33,12.71,8.62,20.31,.23,7.59-2,15.1-5.14,21.94-3.71,8-8.78,15.08-14,22.19-6.13,8.4-12.29,16.78-18.48,25.15-12.24,16.54-24.57,33.02-37,49.43-24.57,32.52-49.39,64.85-74.07,97.28-25,32.86-49.89,65.83-74.27,99.15-3.09,4.22-6.08,8.51-9.23,12.67-2.53,3.12-5.57,5.79-9,7.88-6.27,4-14.25,7.05-21.76,5.2-4.42-1.09-7.85-4.32-11.44-7-4.12-3.02-8.22-6.06-12.31-9.13-7.93-5.94-15.81-11.94-23.64-18-30.87-23.9-60.89-48.81-90.07-74.74-6.38-5.66-13.73-11.05-18.36-18.32-5.09-8.57-7.41-18.5-6.64-28.44,.39-2.48,1.03-4.91,1.91-7.26,1.28-4,2.7-8,4.3-12s3.31-7.55,5.15-11.23c1-2,1.91-4,3.08-5.89,1.45-2.12,3.02-4.15,4.69-6.09,25.45-32.4,51.41-64.4,77.44-96.34,26.2-32.16,52.48-64.25,78.43-96.61,6.24-7.78,12.46-15.58,18.65-23.4,2-2.49-1.53-6-3.53-3.53l.03,.03Z"/><path class="e" d="M200,125.7l32.25-43.53,8-10.83c2.18-3,4.25-6.13,7-8.55,2.24-2.17,5.64-2.62,8.37-1.1,3.93,2,7.62,4.56,11.37,6.86l25.9,15.9c2.75,1.69,5.26-2.64,2.52-4.32l-24-14.73c-4-2.43-7.88-5-11.91-7.29-3.57-2-7.56-3.21-11.52-1.57-3.58,1.46-6.17,4.46-8.48,7.46-2.74,3.58-5.38,7.25-8.07,10.87l-16.66,22.67-19,25.67c-.69,1.19-.29,2.72,.89,3.42,1.2,.66,2.7,.27,3.42-.89l-.08-.04Z"/><path class="e" d="M315.63,141.19c-8.12-9.34-16.23-18.82-25.81-26.73-8.66-7.15-19.67-14.22-31.44-12.92-5.82,.72-11.27,3.22-15.61,7.16-2.89,2.52-5.43,5.47-8.06,8.24-2.83,3-5.63,6-8.43,8.94-10.97,11.76-21.73,23.72-32.28,35.87-21.01,24.3-41.01,49.44-60,75.42-19.08,26.23-36.93,53.31-53.54,81.22-8.36,14.2-16.41,28.57-24.16,43.11-2,3.72-3.96,7.46-5.89,11.23-.9,1.73-1.79,3.46-2.67,5.2-.79,1.54-1.83,2.94-2.55,4.51-2.49,5.42-1,12.24,1.58,17.34,1.5,2.6,3.46,4.92,5.78,6.83,2.51,2.32,4.98,4.68,7.4,7.08,4.84,4.76,9.55,9.66,14.22,14.59,9.41,9.93,18.66,20,28.46,29.56,18.93,18.42,40.6,35,66.69,41.35,3.15,.77,6.86,2,10.1,1.48,2.78-.58,5.38-1.82,7.58-3.61,5.17-3.93,9.1-9.21,13.09-14.26,2.18-2.55,4.21-5.22,6.08-8,2.28-3.69,4.7-7.29,7.19-10.83,4.75-6.77,9.73-13.36,14.24-20.29,1.13-1.74,2.22-3.49,3.29-5.25,1.35-2,2.81-3.92,4.37-5.75l8-10c5.49-6.84,11-13.62,16.56-20.41,10.91-13.4,21.8-26.81,32.19-40.62,5.22-6.94,10.29-13.99,15.21-21.15,1.14-1.68,2.25-3.38,3.4-5.05,1.23-1.65,2.56-3.21,4-4.68l7.84-8.67,8-8.87c1.19-1.21,2.32-2.48,3.37-3.81,1.22-1.69,2.23-3.54,3.45-5.24,4.28-6,9.33-11.41,14-17.13,4.73-5.57,8.63-11.79,11.59-18.47,.35-1.33-.43-2.7-1.75-3.08-1.33-.33-2.68,.44-3.08,1.75-5.65,13.55-17.33,23.33-25.6,35.17-1,1.43-1.83,3-2.9,4.4s-2.43,2.69-3.63,4l-7.87,8.7-7.78,8.61c-2.6,3.01-5,6.19-7.16,9.53-19,27.87-40.92,53.55-62,79.8-5.32,6.61-11.13,13.12-15.6,20.33-4.29,6.91-9.1,13.46-13.84,20.07-2.33,3.25-4.62,6.51-6.82,9.85-1.19,1.82-2.35,3.65-3.49,5.5-.85,1.27-1.78,2.48-2.8,3.62-4.05,5-7.79,10.32-12.57,14.65-1.86,1.84-4.11,3.23-6.59,4.07-2.73,.76-6.24-.61-8.93-1.28-6.24-1.55-12.32-3.68-18.16-6.35-11.5-5.45-22.21-12.42-31.85-20.72-20.32-17.07-37.29-37.66-56.1-56.3-2.29-2.28-4.62-4.52-7-6.73-2.13-2-4.42-3.75-5.87-6.32-1.38-2.44-2.22-5.15-2.44-7.94-.26-2.48,.38-4.97,1.82-7,.97-1.7,1.85-3.44,2.66-5.22,.99-1.93,1.99-3.86,3-5.79,1.84-3.54,3.7-7.07,5.59-10.59,3.75-7.08,7.63-14.12,11.63-21.13,15.68-27.7,32.6-54.64,50.76-80.83,17.76-25.62,36.6-50.44,56.53-74.45,20.06-24.23,41.15-47.57,62.89-70.31,3.87-4,8.73-7.28,14.37-8,5-.67,10.12,.62,14.63,2.72,10.95,5.11,19.87,14,28,22.79,3.83,4.13,7.51,8.4,11.21,12.66,2.12,2.43,5.64-1.12,3.54-3.54l-.04-.03Z"/><path class="e" d="M468.16,68.7l92.3,29.3,25.76,8.19c3.02,.98,4.32-3.79,1.3-4.74l-92.33-29.3-25.77-8.18c-3.02-.98-4.32,3.78-1.26,4.73Z"/><path class="e" d="M574.69,194.11l-52.35-14.92-52.58-14.99-29.51-8.4c-3.05-.87-4.35,3.88-1.31,4.75l52.36,14.91,52.62,14.99,29.51,8.4c3.05,.88,4.35-3.88,1.31-4.74h-.05Z"/><path class="e" d="M462.51,62.27c-19.53,5.58-38.65,12.48-57.25,20.66-5.25,2.3-10.44,4.7-15.57,7.2-1.16,.69-1.55,2.19-.89,3.36,.71,1.14,2.19,1.53,3.37,.89,17.95-8.73,36.48-16.21,55.46-22.39,5.36-1.75,10.75-3.39,16.18-4.92,3.04-.87,1.75-5.62-1.31-4.74v-.06Z"/><path class="e" d="M387.1,95.16c14.76,16.7,28.94,33.87,42.55,51.53,3.84,4.98,7.62,10,11.36,15.06,.71,1.13,2.18,1.52,3.36,.89,1.17-.69,1.56-2.19,.89-3.36-13.46-18.18-27.51-35.89-42.16-53.12-4.12-4.85-8.29-9.66-12.51-14.43-2.11-2.38-5.57,1.11-3.48,3.47v-.03Z"/><path class="e" d="M314.5,144.2l31.82,19.8c10.36,6.46,20.8,12.8,31.07,19.4,7.19,4.62,15.64,10.81,16.07,20.18,.24,5.39-1.92,10.52-4.45,15.16-2.84,5.23-6.15,10.22-9.28,15.28l-22.26,35.98c-1.7,2.74,2.63,5.26,4.32,2.52,6.81-11.01,13.61-22.02,20.42-33.02,3.32-5.34,6.74-10.63,9.9-16.07,2.92-5,5.47-10.39,6.19-16.22,.63-5.19-.6-10.43-3.47-14.79-2.85-4.09-6.42-7.62-10.55-10.42-4.54-3.27-9.4-6.11-14.15-9.07l-16.23-10.09-36.88-23c-2.74-1.71-5.25,2.62-2.52,4.32v.04Z"/></svg>