<svg id="Layer_1" data-name="Layer 1" xmlns="http://www.w3.org/2000/svg" viewBox="0 0 792 612"><defs><style>.cls-1,.cls-3{fill:#ef7846;}.cls-2{fill:none;stroke:#ef7846;stroke-miterlimit:10;stroke-width:2px;}.cls-3{font-size:8px;font-family:InkFree, Ink Free;}</style></defs><path class="cls-1" d="M476.52,260.07a112.67,112.67,0,0,1-4.32,24.51,1.25,1.25,0,0,0,2.41.66A115.58,115.58,0,0,0,479,260.07c.1-1.6-2.4-1.6-2.5,0Z"/><path class="cls-1" d="M394.16,285.16a15.26,15.26,0,0,0,5.18-7.88,16.15,16.15,0,0,0-.55-9.86c-1.16-3.3-2.62-6.78-.37-10a10.49,10.49,0,0,1,7.82-4.07c4.68-.26,9.13,1.77,13.29,3.67,1.46.66,2.73-1.49,1.26-2.16-6.79-3.1-15.12-6.41-21.88-1.41a9.73,9.73,0,0,0-4.23,8c.11,4,2.67,7.46,2.73,11.48a13.13,13.13,0,0,1-5,10.41c-1.26,1,.52,2.76,1.77,1.77Z"/><path class="cls-2" d="M388.91,280.16c2.09,4.33,5.18,6.33,9.7,5L406,299a9.33,9.33,0,0,0-5.36,3.92l-5.2-9.36-6.7,15.74a35.11,35.11,0,0,0-13.13-7.52l7-13.62-8.39,1.18c1.52-1.48,1.3-3.81.08-6.64Z"/><path class="cls-1" d="M376,313.5a59.19,59.19,0,0,1,15.05-6.69,1.25,1.25,0,0,0-.67-2.41,61.94,61.94,0,0,0-15.65,6.94c-1.36.85-.1,3,1.27,2.16Z"/><path class="cls-1" d="M382.05,303.39a1.25,1.25,0,0,0,0-2.5,1.25,1.25,0,0,0,0,2.5Z"/><path class="cls-1" d="M384.82,315.86a1.25,1.25,0,0,0,0-2.5,1.25,1.25,0,0,0,0,2.5Z"/><path class="cls-1" d="M355.18,326.37a113.13,113.13,0,0,1,16.32,11.95c1.21,1.06,3-.7,1.77-1.76a116.71,116.71,0,0,0-16.82-12.35,1.25,1.25,0,0,0-1.27,2.16Z"/><path class="cls-1" d="M352.9,330.61a26.13,26.13,0,0,0,5,4.23c1.94,1.32,3.93,2.57,5.9,3.85,1.35.88,2.61-1.29,1.26-2.16-1.91-1.24-3.85-2.46-5.74-3.74a23.91,23.91,0,0,1-4.68-4,1.26,1.26,0,0,0-1.77,0,1.29,1.29,0,0,0,0,1.77Z"/><path class="cls-1" d="M349,335.25l15.63,11.24a1.25,1.25,0,0,0,1.26-2.16l-15.63-11.24a1.26,1.26,0,0,0-1.71.45,1.28,1.28,0,0,0,.45,1.71Z"/><path class="cls-1" d="M345.72,340l11.11,8.39a1.25,1.25,0,0,0,1.71-.45,1.29,1.29,0,0,0-.45-1.71L347,337.85a1.25,1.25,0,0,0-1.71.45,1.27,1.27,0,0,0,.44,1.71Z"/><text class="cls-3" transform="translate(426.44 260.44) rotate(16.05)">E-COMMERCE</text><path class="cls-1" d="M367.9,263.24c-14.59,18.4-29.68,36.39-44.27,54.78l-2.7,3.41a27,27,0,0,0-2.48,3.29,43.1,43.1,0,0,0-2.91,6.51,20.38,20.38,0,0,0-1.07,3.49,14.88,14.88,0,0,0,2.33,9.82,33,33,0,0,0,5.31,5.19q3.15,2.79,6.34,5.53,6.33,5.42,12.84,10.6T354.48,376c2,1.46,3.95,3.47,6.46,3.83a9.8,9.8,0,0,0,6.09-1.37,15.76,15.76,0,0,0,5-4.93q2.63-3.6,5.27-7.17,5.16-7,10.4-13.89c14.09-18.65,28.46-37.08,42.2-56,2.51-3.44,4.84-7.68,4.57-12.08-.3-5-4.13-7.91-7.72-10.85-8.28-6.76-17.4-12.35-26.13-18.5-2.23-1.56-4.43-3.17-6.57-4.84-1.26-1-3,.79-1.77,1.77,8,6.23,16.65,11.55,24.9,17.43a103.65,103.65,0,0,1,12.24,9.75c3.2,3.11,3,7.36,1.27,11.18a34.09,34.09,0,0,1-3.68,5.88c-1.65,2.27-3.3,4.53-5,6.78q-5,6.78-10.11,13.51c-6.66,8.82-13.39,17.59-20.09,26.39s-13.38,17.64-19.92,26.57c-2.5,3.41-5.61,8.66-10.68,7.9a7.16,7.16,0,0,1-3.05-1.7l-3.42-2.53q-3.21-2.4-6.38-4.86-12.62-9.73-24.53-20.31c-1.74-1.54-3.81-3-5.12-5a11.73,11.73,0,0,1-1.87-6c-.09-2.4.86-4.73,1.78-6.93a26.77,26.77,0,0,1,3.73-6.45c13.8-17.55,28.13-34.67,42.09-52.09,1.73-2.16,3.46-4.32,5.17-6.48,1-1.25-.77-3-1.76-1.77Z"/><path class="cls-1" d="M369.84,265.27l10.9-14.7c.6-.82,1.44-2.42,2.52-2.71s2.59,1.06,3.44,1.58l7.77,4.77c1.37.84,2.63-1.32,1.26-2.16l-8.79-5.39a6,6,0,0,0-3.68-1.34,4.91,4.91,0,0,0-3.16,2c-2.11,2.54-4,5.33-5.94,8L367.68,264c-.95,1.3,1.21,2.54,2.16,1.26Z"/><path class="cls-1" d="M401.34,268.81a59.84,59.84,0,0,0-7.18-7.41c-2.41-2-5.41-3.86-8.66-3.61-3.86.3-6.25,3.53-8.7,6.14q-4.62,4.92-9.05,10a300.55,300.55,0,0,0-31.38,43.16q-3.54,5.94-6.78,12c-1,1.89-2.07,3.79-3,5.69a5.85,5.85,0,0,0,.17,4.74c.71,1.68,2.13,2.73,3.41,4s2.64,2.64,3.93,4c2.62,2.75,5.19,5.57,7.9,8.23,5.2,5.11,11.13,9.75,18.28,11.67,1.7.45,3.32.92,5,.06a13.15,13.15,0,0,0,3.89-3.69c2.6-3.26,4.92-6.75,7.29-10.19,1.44-2.07,2.81-4.13,4.38-6.11s3-3.73,4.52-5.59c3.05-3.74,6.1-7.48,9-11.31,1.46-1.92,2.88-3.86,4.25-5.84a52.37,52.37,0,0,1,4.29-5.33,47.6,47.6,0,0,0,4.21-5c1.19-1.74,2.63-3.27,4-4.9a21.75,21.75,0,0,0,3.24-5.07c.62-1.46-1.53-2.74-2.16-1.26-1.56,3.65-4.56,6.3-6.85,9.47-2.41,3.34-5.61,6.06-7.92,9.48-5.15,7.62-11.11,14.63-16.88,21.78-1.38,1.72-2.85,3.41-4.13,5.22s-2.42,3.69-3.71,5.49c-2.25,3.13-4.21,6.5-6.91,9.29a6.28,6.28,0,0,1-1.75,1.41,3.48,3.48,0,0,1-2.33-.15,27.37,27.37,0,0,1-5.05-1.73,38.64,38.64,0,0,1-8.63-5.61c-5.44-4.58-10-10.07-15-15.08a27.82,27.82,0,0,1-3.55-3.48,4.47,4.47,0,0,1-.72-2.09,3.1,3.1,0,0,1,.61-2.06c2.08-3.82,4-7.71,6.18-11.49a291,291,0,0,1,28.82-41.76c5.36-6.49,11-12.77,16.8-18.85a7.76,7.76,0,0,1,3.92-2.68,6.59,6.59,0,0,1,4,.63c3,1.36,5.37,3.82,7.55,6.18,1,1.11,2,2.26,3,3.4s2.82-.56,1.76-1.77Z"/><path class="cls-1" d="M441.87,250l32.78,10.41c1.54.49,2.2-1.92.67-2.41l-32.79-10.41c-1.53-.49-2.19,1.93-.66,2.41Z"/><path class="cls-1" d="M471.77,283.72l-37.33-10.64a1.25,1.25,0,0,0-.67,2.41l37.34,10.64a1.25,1.25,0,0,0,.66-2.41Z"/><path class="cls-1" d="M440.31,247.1A125.67,125.67,0,0,0,420,254.89c-1.44.7-.18,2.85,1.26,2.15A122.32,122.32,0,0,1,441,249.51a1.25,1.25,0,0,0-.67-2.41Z"/><path class="cls-1" d="M419.12,257.17Q426.95,266,434,275.55c.95,1.28,3.12,0,2.16-1.26q-7.23-9.77-15.28-18.89c-1.06-1.2-2.83.57-1.76,1.77Z"/><path class="cls-1" d="M400.35,270.52l10.78,6.73,5.39,3.36a17.51,17.51,0,0,1,3.79,2.83c3,3.19,0,7-1.79,10l-6.63,10.71c-.85,1.37,1.31,2.63,2.16,1.26q3.69-6,7.4-11.94c2-3.25,4-7.12,1.5-10.69-2.17-3.12-6.18-4.93-9.31-6.89l-12-7.5c-1.37-.85-2.62,1.31-1.26,2.16Z"/></svg>