<svg id="Layer_1" data-name="Layer 1" xmlns="http://www.w3.org/2000/svg" viewBox="0 0 600 600"><defs><style>.cls-1,.cls-3{fill:#ef7846;}.cls-2{fill:none;stroke:#ef7846;stroke-miterlimit:10;stroke-width:3px;}.cls-3{isolation:isolate;font-size:29.28px;font-family:InkFree, Ink Free;}</style></defs><path class="cls-1" d="M594.27,107.75a405.91,405.91,0,0,1-10.64,70.7q-2.37,9.83-5.24,19.54c-.91,3.09,3.91,4.41,4.82,1.33a415,415,0,0,0,14.31-71.18q1.13-10.17,1.75-20.39C599.47,104.53,594.47,104.54,594.27,107.75Z"/><path class="cls-1" d="M289.34,198.09a54.31,54.31,0,0,0,19.89-49.69c-1-7-3.64-13.49-6-20.09C301,122,299,115.23,299.94,108.46a26.87,26.87,0,0,1,6.51-13.76c7.41-8.51,18.75-13.27,29.93-13.59,17.07-.47,33.14,6.81,48.32,13.76a2.58,2.58,0,0,0,3.42-.9,2.52,2.52,0,0,0-.89-3.42c-14.1-6.44-28.59-13-44.24-14.25-12.78-1-25.55,2.32-35.56,10.5a35.5,35.5,0,0,0-10.34,13.58,32.86,32.86,0,0,0-1.5,19.36c1.44,7.15,4.49,13.83,6.67,20.76a48.92,48.92,0,0,1-12.93,51,45.83,45.83,0,0,1-3.53,3,2.52,2.52,0,0,0,0,3.54,2.57,2.57,0,0,0,3.54,0Z"/><path class="cls-2" d="M271.58,181.25c7.65,15.85,19,23.17,35.52,18.28L334,250c-8.88,2.75-15.3,7.58-19.61,14.35l-19.05-34.24L270.77,287.7c-13-12.45-29.46-21.18-48-27.49l25.65-49.86-30.65,4.35c5.55-5.39,4.76-13.93.28-24.3Z"/><path class="cls-1" d="M223.35,301.48A215.35,215.35,0,0,1,266,280.92q6.42-2.28,13-4.12c3.09-.87,1.77-5.7-1.33-4.82a222,222,0,0,0-44.86,18.22q-6.09,3.3-12,7c-2.72,1.7-.22,6,2.52,4.32Z"/><path class="cls-1" d="M246.49,264.18c3.22,0,3.22-5,0-5S243.27,264.18,246.49,264.18Z"/><path class="cls-1" d="M256.6,309.85c3.22,0,3.23-5,0-5S253.38,309.85,256.6,309.85Z"/><path class="cls-1" d="M149.21,348.57A410.78,410.78,0,0,1,196.77,382q6.42,5.22,12.61,10.7a2.56,2.56,0,0,0,3.53,0,2.54,2.54,0,0,0,0-3.54,419.86,419.86,0,0,0-47-35.93q-7-4.62-14.18-8.93c-2.76-1.67-5.28,2.65-2.52,4.31Z"/><path class="cls-1" d="M141.28,364.4c5.24,6,11.62,10.87,18.19,15.32,7,4.78,14.24,9.31,21.38,13.94,2.7,1.76,5.21-2.57,2.52-4.31-7-4.55-14.08-9-21-13.7-6.36-4.3-12.48-9-17.55-14.78a2.5,2.5,0,0,0-3.53,0,2.54,2.54,0,0,0,0,3.53Z"/><path class="cls-1" d="M126.6,381.07l44.63,32.09,12.58,9a2.53,2.53,0,0,0,3.42-.9,2.57,2.57,0,0,0-.9-3.42l-44.63-32-12.58-9a2.53,2.53,0,0,0-3.42.89,2.56,2.56,0,0,0,.9,3.42Z"/><path class="cls-1" d="M114.58,398.49l40.65,30.72a2.53,2.53,0,0,0,3.42-.9,2.56,2.56,0,0,0-.9-3.42l-40.64-30.72a2.51,2.51,0,0,0-3.42.9,2.57,2.57,0,0,0,.89,3.42Z"/><text class="cls-3" transform="translate(408.94 109.09) rotate(16.05)">E-COMMERCE</text><path class="cls-1" d="M196.15,120.8C169.76,154.09,142.92,187,116.07,220s-53.6,65.68-80,98.87q-4.76,6-9.49,12c-3.31,4.2-6.91,8.3-10,12.69-2.36,3.39-4.06,7.51-5.81,11.25s-3.4,7.63-4.88,11.53c-1.6,4.26-3,8.59-4.25,13s-1,9-.53,13.36A48.63,48.63,0,0,0,8.79,415c5,7.4,12.33,13,18.93,18.81q11.34,10,22.85,19.94,22.65,19.43,46,38,23.55,18.78,47.71,36.81,6.32,4.72,12.68,9.4c3.53,2.58,6.72,5,11.11,5.85,7.79,1.52,15.8-.79,22.57-4.65a48.54,48.54,0,0,0,9.61-7.18c3.51-3.37,6.12-7.67,9-11.59q9.47-13,19-25.87,18.9-25.53,38.08-50.85c25.22-33.34,50.68-66.49,76-99.77,25.68-33.77,51.19-67.67,76.16-102,9.32-12.8,18.54-27.88,17.88-44.36a35.8,35.8,0,0,0-7.91-21c-3-3.77-6.76-6.87-10.39-10s-7.3-6.22-11-9.23c-30.22-24.44-63.43-44.74-95.13-67.15-7.76-5.49-15.43-11.11-22.93-17-2.51-2-6.08,1.56-3.54,3.54,29.84,23.23,62.15,43,92.86,65,7.77,5.57,15.43,11.29,22.91,17.26,7.33,5.85,15.11,11.75,21.55,18.59a31,31,0,0,1,8.62,20.31c.23,7.59-2,15.1-5.14,21.94-3.71,8-8.78,15.08-14,22.19q-9.19,12.6-18.48,25.15-18.36,24.81-37,49.43c-24.57,32.52-49.39,64.85-74.07,97.28-25,32.86-49.89,65.83-74.27,99.15-3.09,4.22-6.08,8.51-9.23,12.67a35,35,0,0,1-9,7.88c-6.27,4-14.25,7.05-21.76,5.2-4.42-1.09-7.85-4.32-11.44-7q-6.18-4.53-12.31-9.13-11.9-8.91-23.64-18Q74.77,468.77,31,429.88c-6.38-5.66-13.73-11.05-18.36-18.32A48.38,48.38,0,0,1,6,383.12a37.15,37.15,0,0,1,1.91-7.26c1.28-4,2.7-8,4.3-12s3.31-7.55,5.15-11.23c1-2,1.91-4,3.08-5.89a69.37,69.37,0,0,1,4.69-6.09c25.45-32.4,51.41-64.4,77.44-96.34,26.2-32.16,52.48-64.25,78.43-96.61q9.36-11.67,18.65-23.4c2-2.49-1.53-6-3.53-3.53Z"/><path class="cls-1" d="M200,125.7l32.25-43.53,8-10.83c2.18-3,4.25-6.13,7-8.55a7.08,7.08,0,0,1,8.37-1.1c3.93,2,7.62,4.56,11.37,6.86l25.9,15.9c2.75,1.69,5.26-2.64,2.52-4.32l-24-14.73c-4-2.43-7.88-5-11.91-7.29-3.57-2-7.56-3.21-11.52-1.57C244.4,58,241.81,61,239.5,64c-2.74,3.58-5.38,7.25-8.07,10.87L214.77,97.54l-19,25.67a2.51,2.51,0,0,0,.89,3.42,2.57,2.57,0,0,0,3.42-.89Z"/><path class="cls-1" d="M315.63,141.19c-8.12-9.34-16.23-18.82-25.81-26.73-8.66-7.15-19.67-14.22-31.44-12.92a28.41,28.41,0,0,0-15.61,7.16c-2.89,2.52-5.43,5.47-8.06,8.24-2.83,3-5.63,6-8.43,8.94Q209.83,143.52,194,161.75q-31.51,36.45-60,75.42-28.62,39.35-53.54,81.22-12.54,21.3-24.16,43.11-3,5.58-5.89,11.23-1.35,2.59-2.67,5.2c-.79,1.54-1.83,2.94-2.55,4.51-2.49,5.42-1,12.24,1.58,17.34a25.1,25.1,0,0,0,5.78,6.83q3.77,3.48,7.4,7.08c4.84,4.76,9.55,9.66,14.22,14.59,9.41,9.93,18.66,20,28.46,29.56,18.93,18.42,40.6,35,66.69,41.35,3.15.77,6.86,2,10.1,1.48a17.88,17.88,0,0,0,7.58-3.61c5.17-3.93,9.1-9.21,13.09-14.26a87.27,87.27,0,0,0,6.08-8c2.28-3.69,4.7-7.29,7.19-10.83,4.75-6.77,9.73-13.36,14.24-20.29,1.13-1.74,2.22-3.49,3.29-5.25a64.43,64.43,0,0,1,4.37-5.75l8-10c5.49-6.84,11-13.62,16.56-20.41,10.91-13.4,21.8-26.81,32.19-40.62q7.83-10.41,15.21-21.15c1.14-1.68,2.25-3.38,3.4-5.05a45.73,45.73,0,0,1,4-4.68l7.84-8.67,8-8.87a46.81,46.81,0,0,0,3.37-3.81c1.22-1.69,2.23-3.54,3.45-5.24,4.28-6,9.33-11.41,14-17.13a76.25,76.25,0,0,0,11.59-18.47,2.54,2.54,0,0,0-1.75-3.08,2.57,2.57,0,0,0-3.08,1.75c-5.65,13.55-17.33,23.33-25.6,35.17-1,1.43-1.83,3-2.9,4.4s-2.43,2.69-3.63,4l-7.87,8.7-7.78,8.61a86.22,86.22,0,0,0-7.16,9.53c-19,27.87-40.92,53.55-62,79.8-5.32,6.61-11.13,13.12-15.6,20.33-4.29,6.91-9.1,13.46-13.84,20.07-2.33,3.25-4.62,6.51-6.82,9.85q-1.78,2.73-3.49,5.5a32.66,32.66,0,0,1-2.8,3.62c-4.05,5-7.79,10.32-12.57,14.65a17.22,17.22,0,0,1-6.59,4.07c-2.73.76-6.24-.61-8.93-1.28a104,104,0,0,1-18.16-6.35,142,142,0,0,1-31.85-20.72c-20.32-17.07-37.29-37.66-56.1-56.3q-3.43-3.42-7-6.73c-2.13-2-4.42-3.75-5.87-6.32a19.21,19.21,0,0,1-2.44-7.94,10.25,10.25,0,0,1,1.82-7q1.45-2.55,2.66-5.22,1.48-2.9,3-5.79,2.76-5.31,5.59-10.59,5.63-10.62,11.63-21.13,23.52-41.55,50.76-80.83,26.64-38.43,56.53-74.45c20.06-24.23,41.15-47.57,62.89-70.31,3.87-4,8.73-7.28,14.37-8,5-.67,10.12.62,14.63,2.72,10.95,5.11,19.87,14,28,22.79,3.83,4.13,7.51,8.4,11.21,12.66,2.12,2.43,5.64-1.12,3.54-3.54Z"/><path class="cls-1" d="M466,68.81l93.82,29.78L586,106.91c3.07,1,4.39-3.85,1.32-4.82L493.47,72.31,467.28,64C464.21,63,462.89,67.84,466,68.81Z"/><path class="cls-1" d="M574.28,196.28l-53.21-15.17-53.45-15.24-30-8.54c-3.1-.88-4.42,3.94-1.33,4.83l53.22,15.16L543,192.56l30,8.54c3.1.89,4.42-3.94,1.33-4.82Z"/><path class="cls-1" d="M460.26,62.27a455.2,455.2,0,0,0-58.19,21q-8,3.51-15.83,7.32a2.53,2.53,0,0,0-.9,3.42,2.58,2.58,0,0,0,3.43.9,441.89,441.89,0,0,1,56.37-22.76q8.17-2.67,16.45-5c3.09-.88,1.78-5.71-1.33-4.82Z"/><path class="cls-1" d="M383.6,95.7q22.5,25.46,43.25,52.38,5.85,7.59,11.55,15.31a2.59,2.59,0,0,0,3.42.9,2.51,2.51,0,0,0,.9-3.42q-20.52-27.72-42.86-54-6.28-7.4-12.72-14.67c-2.14-2.42-5.66,1.13-3.54,3.53Z"/><path class="cls-1" d="M314.5,144.2,346.32,164c10.36,6.46,20.8,12.8,31.07,19.4,7.19,4.62,15.64,10.81,16.07,20.18.24,5.39-1.92,10.52-4.45,15.16-2.84,5.23-6.15,10.22-9.28,15.28L357.47,270c-1.7,2.74,2.63,5.26,4.32,2.52Q372,256,382.21,239.5c3.32-5.34,6.74-10.63,9.9-16.07,2.92-5,5.47-10.39,6.19-16.22a22.06,22.06,0,0,0-3.47-14.79A40.56,40.56,0,0,0,384.28,182c-4.54-3.27-9.4-6.11-14.15-9.07L353.9,162.84l-36.88-23c-2.74-1.71-5.25,2.62-2.52,4.32Z"/></svg>