<svg id="Layer_1" data-name="Layer 1" xmlns="http://www.w3.org/2000/svg" viewBox="0 0 792 612"><defs><style>.cls-1,.cls-3{fill:#ef7846;}.cls-2{fill:none;stroke:#ef7846;stroke-miterlimit:10;stroke-width:3px;}.cls-3{font-size:29.28px;font-family:InkFree, Ink Free;}</style></defs><path class="cls-1" d="M711.5,130.05a406,406,0,0,1-10.64,70.7q-2.37,9.83-5.24,19.54c-.91,3.09,3.91,4.41,4.82,1.33a414.82,414.82,0,0,0,14.31-71.18q1.13-10.17,1.75-20.39c.2-3.22-4.8-3.21-5,0Z"/><path class="cls-1" d="M406.57,220.39a54.31,54.31,0,0,0,19.89-49.69c-1-7-3.64-13.49-6-20.09-2.21-6.32-4.25-13.08-3.29-19.85A26.86,26.86,0,0,1,423.68,117c7.41-8.51,18.75-13.27,29.93-13.59,17.07-.47,33.14,6.81,48.32,13.76a2.57,2.57,0,0,0,3.42-.9,2.52,2.52,0,0,0-.89-3.42c-14.1-6.44-28.59-13-44.24-14.25-12.78-1.05-25.55,2.32-35.56,10.5a35.48,35.48,0,0,0-10.34,13.58,32.92,32.92,0,0,0-1.5,19.36c1.44,7.15,4.49,13.83,6.67,20.76a48.92,48.92,0,0,1-12.93,51q-1.69,1.59-3.53,3a2.52,2.52,0,0,0,0,3.54,2.57,2.57,0,0,0,3.54,0Z"/><path class="cls-2" d="M388.81,203.55c7.65,15.85,19,23.17,35.52,18.28l26.88,50.49c-8.88,2.75-15.3,7.58-19.61,14.35l-19.05-34.24L388,310C375,297.55,358.54,288.82,340,282.51l25.65-49.86L335,237c5.55-5.39,4.76-13.93.28-24.3Z"/><path class="cls-1" d="M340.58,323.78a215.61,215.61,0,0,1,42.61-20.56q6.42-2.27,13-4.12c3.09-.87,1.77-5.7-1.33-4.82A222.27,222.27,0,0,0,350,312.5q-6.09,3.3-11.95,7c-2.72,1.7-.22,6,2.52,4.32Z"/><path class="cls-1" d="M363.72,286.48c3.22,0,3.22-5,0-5s-3.22,5,0,5Z"/><path class="cls-1" d="M373.83,332.15c3.22,0,3.23-5,0-5s-3.22,5,0,5Z"/><path class="cls-1" d="M266.44,370.87A412,412,0,0,1,314,404.26q6.42,5.22,12.61,10.7a2.56,2.56,0,0,0,3.53,0,2.53,2.53,0,0,0,0-3.54,420.72,420.72,0,0,0-47-35.93q-7-4.61-14.18-8.93c-2.76-1.67-5.28,2.65-2.52,4.31Z"/><path class="cls-1" d="M258.51,386.7c5.24,6,11.62,10.87,18.19,15.32,7,4.78,14.24,9.31,21.38,13.94,2.7,1.76,5.21-2.57,2.52-4.31-7-4.55-14.08-9-21-13.7-6.36-4.3-12.48-9-17.55-14.78a2.51,2.51,0,0,0-3.53,0,2.54,2.54,0,0,0,0,3.53Z"/><path class="cls-1" d="M243.83,403.37l44.63,32.09,12.58,9a2.52,2.52,0,0,0,3.42-.9,2.56,2.56,0,0,0-.9-3.42L258.93,408.1l-12.58-9a2.53,2.53,0,0,0-3.42.89,2.56,2.56,0,0,0,.9,3.42Z"/><path class="cls-1" d="M231.81,420.79l40.65,30.72a2.52,2.52,0,0,0,3.42-.9,2.56,2.56,0,0,0-.9-3.42l-40.64-30.72a2.52,2.52,0,0,0-3.42.9,2.56,2.56,0,0,0,.89,3.42Z"/><text class="cls-3" transform="translate(526.17 131.39) rotate(16.05)">E-COMMERCE</text><path class="cls-1" d="M313.38,143.1c-26.39,33.29-53.23,66.22-80.08,99.15s-53.6,65.68-80,98.87q-4.76,6-9.49,12c-3.31,4.2-6.91,8.3-10,12.69-2.36,3.39-4.06,7.51-5.81,11.25s-3.4,7.63-4.88,11.53c-1.6,4.26-3,8.59-4.25,13s-1,9-.53,13.36a48.7,48.7,0,0,0,7.68,22.3c5,7.4,12.33,13,18.93,18.81q11.34,10.06,22.85,19.94,22.65,19.43,46,38,23.55,18.79,47.71,36.81,6.31,4.73,12.68,9.4c3.53,2.58,6.72,5,11.11,5.85,7.79,1.52,15.8-.79,22.57-4.65a48.16,48.16,0,0,0,9.61-7.18c3.51-3.37,6.12-7.67,9-11.59q9.47-13,19-25.87,18.9-25.53,38.08-50.85c25.22-33.34,50.68-66.49,76-99.77,25.68-33.77,51.19-67.67,76.16-102,9.32-12.8,18.54-27.88,17.88-44.36a35.75,35.75,0,0,0-7.91-21c-3-3.77-6.76-6.87-10.39-10s-7.3-6.22-11-9.23c-30.22-24.44-63.43-44.74-95.13-67.15-7.76-5.49-15.43-11.11-22.93-16.95-2.51-2-6.08,1.56-3.54,3.54,29.84,23.23,62.15,43,92.86,65,7.77,5.57,15.43,11.29,22.91,17.26,7.33,5.85,15.11,11.75,21.55,18.59a31,31,0,0,1,8.62,20.31c.23,7.59-2,15.1-5.14,21.94-3.71,8-8.78,15.08-14,22.19q-9.19,12.6-18.48,25.15-18.36,24.81-37,49.43c-24.57,32.52-49.39,64.85-74.07,97.28-25,32.86-49.89,65.83-74.27,99.15-3.09,4.22-6.08,8.51-9.23,12.67a34.8,34.8,0,0,1-9,7.88c-6.27,4-14.25,7.05-21.76,5.2-4.42-1.09-7.85-4.32-11.44-7q-6.18-4.53-12.31-9.13-11.89-8.91-23.64-18Q192,491.07,148.23,452.18c-6.38-5.66-13.73-11.05-18.36-18.32a48.38,48.38,0,0,1-6.61-28.44,37,37,0,0,1,1.91-7.26c1.28-4,2.7-8,4.3-12s3.31-7.55,5.15-11.23c1-2,1.91-4,3.08-5.89a70.43,70.43,0,0,1,4.69-6.09c25.45-32.4,51.41-64.4,77.44-96.34,26.2-32.16,52.48-64.25,78.43-96.61q9.36-11.67,18.65-23.4c2-2.49-1.53-6-3.53-3.53Z"/><path class="cls-1" d="M317.24,148l32.25-43.53,8-10.83c2.18-3,4.25-6.13,7-8.55a7.08,7.08,0,0,1,8.37-1.1c3.93,2,7.62,4.56,11.37,6.86l25.9,15.9c2.75,1.69,5.26-2.64,2.52-4.32l-24-14.73c-4-2.43-7.88-5-11.91-7.29-3.57-2-7.56-3.21-11.52-1.57-3.59,1.47-6.18,4.41-8.49,7.42-2.74,3.58-5.38,7.25-8.07,10.87L332,119.84l-19,25.67a2.51,2.51,0,0,0,.89,3.42,2.56,2.56,0,0,0,3.42-.89Z"/><path class="cls-1" d="M432.86,163.49c-8.12-9.34-16.23-18.82-25.81-26.73-8.66-7.15-19.67-14.22-31.44-12.92A28.45,28.45,0,0,0,360,131c-2.89,2.52-5.43,5.47-8.06,8.24-2.83,3-5.63,6-8.43,8.94q-16.46,17.64-32.25,35.87-31.51,36.45-60,75.42-28.62,39.35-53.54,81.22Q185.18,362,173.56,383.8q-3,5.59-5.89,11.23-1.35,2.6-2.67,5.2c-.79,1.54-1.83,2.94-2.55,4.51-2.49,5.42-1,12.24,1.58,17.34a25.07,25.07,0,0,0,5.78,6.83q3.76,3.48,7.4,7.08c4.84,4.76,9.55,9.66,14.22,14.59,9.41,9.93,18.66,20,28.46,29.56,18.93,18.42,40.6,35,66.69,41.35,3.15.77,6.86,2,10.1,1.48a17.82,17.82,0,0,0,7.58-3.61c5.17-3.93,9.1-9.21,13.09-14.26a86.57,86.57,0,0,0,6.08-8c2.28-3.69,4.7-7.29,7.19-10.83,4.75-6.77,9.73-13.36,14.24-20.29,1.13-1.74,2.22-3.49,3.29-5.25a64,64,0,0,1,4.37-5.75q4-5,8-10c5.49-6.84,11-13.62,16.56-20.41,10.91-13.4,21.8-26.81,32.19-40.62q7.83-10.41,15.21-21.15c1.14-1.68,2.25-3.38,3.4-5.05a45.73,45.73,0,0,1,4-4.68l7.84-8.67,8-8.87a45,45,0,0,0,3.37-3.81c1.22-1.69,2.23-3.54,3.45-5.24,4.28-6,9.33-11.41,14-17.13a76,76,0,0,0,11.59-18.47,2.53,2.53,0,0,0-1.75-3.08,2.57,2.57,0,0,0-3.08,1.75c-5.65,13.55-17.33,23.33-25.6,35.17-1,1.43-1.83,3-2.9,4.4s-2.43,2.69-3.63,4l-7.87,8.7-7.78,8.61a86.53,86.53,0,0,0-7.16,9.53c-19,27.87-40.92,53.55-62,79.8-5.32,6.61-11.13,13.12-15.6,20.33-4.29,6.91-9.1,13.46-13.84,20.07-2.33,3.25-4.62,6.51-6.82,9.85q-1.78,2.73-3.49,5.5a32.66,32.66,0,0,1-2.8,3.62c-4.05,5-7.79,10.32-12.57,14.65a17.05,17.05,0,0,1-6.59,4.07c-2.73.76-6.24-.61-8.93-1.28a103.43,103.43,0,0,1-18.16-6.35,142.15,142.15,0,0,1-31.85-20.72c-20.32-17.07-37.29-37.66-56.1-56.3q-3.43-3.41-7-6.73c-2.13-2-4.42-3.75-5.87-6.32a19.16,19.16,0,0,1-2.44-7.94,10.26,10.26,0,0,1,1.82-7,58.15,58.15,0,0,0,2.66-5.22q1.49-2.89,3-5.79,2.76-5.31,5.59-10.59Q185,373,191,362.48q23.52-41.55,50.76-80.83,26.64-38.43,56.53-74.45c20.06-24.23,41.15-47.57,62.89-70.31,3.87-4,8.73-7.28,14.37-8,5-.67,10.12.62,14.63,2.72,10.95,5.11,19.87,14,28,22.79,3.83,4.13,7.51,8.4,11.21,12.66,2.12,2.43,5.64-1.12,3.54-3.54Z"/><path class="cls-1" d="M583.18,91.11,677,120.89l26.19,8.32c3.07,1,4.39-3.85,1.32-4.82L610.7,94.61l-26.19-8.32c-3.07-1-4.39,3.85-1.33,4.82Z"/><path class="cls-1" d="M691.51,218.58,638.3,203.41l-53.45-15.24-30-8.54c-3.1-.88-4.42,3.94-1.33,4.83l53.22,15.16,53.45,15.24,30,8.54c3.1.89,4.42-3.94,1.33-4.82Z"/><path class="cls-1" d="M577.49,84.57a455,455,0,0,0-58.19,21q-8,3.51-15.83,7.32a2.53,2.53,0,0,0-.9,3.42,2.57,2.57,0,0,0,3.43.9,442.77,442.77,0,0,1,56.37-22.76q8.18-2.67,16.45-5c3.09-.88,1.78-5.71-1.33-4.82Z"/><path class="cls-1" d="M500.83,118q22.5,25.46,43.25,52.38,5.85,7.6,11.55,15.31a2.58,2.58,0,0,0,3.42.9,2.51,2.51,0,0,0,.9-3.42q-20.52-27.72-42.86-54-6.29-7.39-12.72-14.67c-2.14-2.42-5.66,1.13-3.54,3.53Z"/><path class="cls-1" d="M431.73,166.5l31.82,19.84c10.36,6.46,20.8,12.8,31.07,19.4,7.19,4.62,15.64,10.81,16.07,20.18.24,5.39-1.92,10.52-4.45,15.16-2.84,5.23-6.15,10.22-9.28,15.28L474.7,292.28c-1.7,2.74,2.63,5.26,4.32,2.52q10.22-16.47,20.42-33c3.32-5.34,6.74-10.63,9.9-16.07,2.92-5,5.47-10.39,6.19-16.22a22.09,22.09,0,0,0-3.47-14.79,40.56,40.56,0,0,0-10.55-10.39c-4.54-3.27-9.4-6.11-14.15-9.07l-16.23-10.12-36.88-23c-2.74-1.71-5.25,2.62-2.52,4.32Z"/></svg>