<?xml version="1.0" encoding="utf-8"?>
<!-- Generator: Adobe Illustrator 26.0.3, SVG Export Plug-In . SVG Version: 6.00 Build 0)  -->
<svg version="1.1" id="Layer_1" xmlns="http://www.w3.org/2000/svg" xmlns:xlink="http://www.w3.org/1999/xlink" x="0px" y="0px"
	 viewBox="0 0 566.93 566.93" style="enable-background:new 0 0 566.93 566.93;" xml:space="preserve">
<style type="text/css">
	.st0{opacity:0.5;}
	.st1{fill:#EDAACC;}
</style>
<g class="st0">
	<path class="st1" d="M242.84,143.5c1.86,0.69,3.35,1.56,4.45,2.6c1.11,1.04,1.93,2.14,2.46,3.3c0.48,1.05,0.85,2.32,1.11,3.81
		c0.26,1.5,0.61,3.33,1.05,5.53c0.44,2.96,0.71,5.2,0.82,6.73c0.1,1.54,0.08,2.51-0.08,2.93c-2.42,4.69-4.72,9.18-6.9,13.48
		c-2.1,4.61-4.47,9.27-7.09,13.98c-0.78,1.06-1.56,2.26-2.35,3.6c-0.45,2.24-1.01,4.59-1.68,7.04c-0.67,2.45-1.41,4.87-2.2,7.27
		c-0.53,1.93-1.22,4.05-2.09,6.38c-0.87,2.33-1.94,4.94-3.21,7.84c-1.47,3.69-2.68,6.69-3.63,8.98c-0.95,2.29-1.59,3.87-1.9,4.72
		c-0.22,0.59-0.43,1.28-0.63,2.08c-0.2,0.79-0.34,1.7-0.44,2.73c-0.27,1.24-0.53,2.84-0.77,4.77l-2.98,8
		c-1.12,3.25-2.86,11.08-5.23,23.5c-2.37,12.42-3.41,19.17-3.11,20.23c0.71-0.11,1.32-0.18,1.8-0.19l16.51-14.09
		c1.04-1.25,2.38-2.85,4.02-4.79c1.64-1.94,3.56-4.19,5.76-6.74c6.58-6.03,13.81-14.4,21.69-25.09c7.89-10.7,16.37-23.7,25.44-39.03
		c2.78-4.36,5.51-7.63,8.21-9.81c2.68-2.18,5.15-3.18,7.4-3.02l12.8,0.14c1.66,1.49,2.68,3.04,3.03,4.67
		c0.36,1.63,0.14,3.5-0.64,5.61c-0.98,2.63-3.03,6.7-6.15,12.24c-3.12,5.54-7.31,12.38-12.56,20.55c-0.81,1.92-1.93,4.25-3.37,6.98
		c-1.44,2.74-3.14,5.97-5.08,9.67c-1.81,2.79-3.24,5.01-4.28,6.65c-1.04,1.64-1.65,2.67-1.8,3.09c-0.82,2.2-1.71,4.73-2.68,7.6
		c-0.97,2.87-2.08,6.1-3.32,9.68c-1.44,4.38-2.69,8.01-3.76,10.88c-1.07,2.88-1.83,4.91-2.27,6.09c-2.03,5.7-3.44,10.07-4.23,13.1
		c-0.79,3.03-0.93,4.64-0.43,4.83c0.84,0.31,2.85-1.01,6.03-3.97c3.17-2.96,7.44-7.64,12.8-14.02c4.19-4.8,8.09-9.37,11.68-13.72
		c3.59-4.35,6.88-8.47,9.87-12.37c1.19-0.62,2.36-1.68,3.5-3.18c1.14-1.5,2.27-3.54,3.42-6.1c2.71-3.13,5.45-6.48,8.21-10.02
		c2.77-3.55,5.67-7.21,8.72-10.99c1.79-2.23,3.88-5.06,6.27-8.51c2.39-3.44,5.24-7.54,8.55-12.28l0.33-5.95
		c0.63-0.92,1.49-2.05,2.56-3.38s2.21-2.98,3.43-4.94c3.64-2.79,6.71-4.78,9.22-5.96c2.51-1.18,4.31-1.57,5.41-1.16
		c0.84,0.31,1.28,0.98,1.28,2c0.01,1.01-0.35,2.5-1.08,4.44c-1.92,5.17-3.52,9.12-4.78,11.88c-1.27,2.76-2.23,4.49-2.88,5.21
		c-1.04,0.96-1.96,1.9-2.78,2.8c-0.82,0.9-1.48,1.64-1.98,2.22l-0.67,6.84c-0.95,1-2.34,2.91-4.17,5.75s-4.09,6.6-6.8,11.27
		c-2.61,4.43-4.78,7.91-6.49,10.44c-1.72,2.54-3.05,4.17-3.98,4.88c-0.85,1.52-2.13,3.25-3.83,5.23c-1.69,1.97-3.72,4.3-6.07,6.99
		c-0.92,0.91-2.1,2.42-3.56,4.52c-1.46,2.11-3.21,4.61-5.26,7.51c-1.32,1.73-2.94,3.75-4.86,6.07c-1.92,2.32-4.19,5.16-6.79,8.53
		c-1.26,0.79-2.63,1.96-4.13,3.52c-1.5,1.56-3.11,3.61-4.82,6.15c-0.93,1.2-2.44,2.87-4.54,5.03c-2.11,2.15-4.76,4.95-7.97,8.38
		c-3.35,3.57-6.09,6.26-8.21,8.07c-2.12,1.81-3.48,2.75-4.08,2.82l-3.71,0.64c-0.99,0.59-2.05,0.85-3.18,0.77
		c-1.13-0.08-2.48-0.46-4.06-1.15c-1.87,0.37-3.47,0.59-4.8,0.67s-2.34,0-3.01-0.25c-3.22-1.2-5.32-3.43-6.33-6.7
		c-1-3.26-0.95-7.67,0.16-13.24c1.1-3.73,2.19-7.5,3.26-11.29c1.07-3.8,2.15-7.66,3.23-11.59c0.52-1.92,1.13-4.52,1.81-7.78
		c0.69-3.26,1.32-7.24,1.92-11.93c-3.04,2.72-6.17,5.53-9.42,8.42c-3.25,2.89-6.62,5.94-10.14,9.16c-0.2,0.79-1.49,2.44-3.86,4.92
		c-2.37,2.49-5.68,5.93-9.92,10.33c-4.42,4.62-9.02,9.22-13.81,13.79c-3.18,2.58-6.19,4.27-9.05,5.09c-2.86,0.81-5.68,0.7-8.47-0.34
		c-1.36-0.51-2.28-2.05-2.76-4.65c-0.49-2.59-0.56-6.28-0.22-11.07c0.21-2.91,0.45-5.83,0.73-8.76c0.27-2.94,0.54-5.94,0.82-9.02
		c0.86-1.02,1.52-1.89,1.98-2.59c-0.15-1.41-0.17-3.25-0.05-5.52c0.12-2.27,0.33-4.98,0.64-8.14c0.41-1.88,0.92-4.28,1.54-7.24
		c0.61-2.95,1.38-6.43,2.29-10.42c0.36-1.22,0.72-2.45,1.09-3.71c0.37-1.26,0.74-2.5,1.09-3.71c0.26-0.96,0.41-2.07,0.44-3.31
		c0.03-1.24-0.07-2.72-0.3-4.45c0.02-0.57,0.34-1.88,0.95-3.91c0.61-2.04,1.5-4.87,2.65-8.48c0.98-2.9,1.62-5.39,1.91-7.45
		c0.29-2.06,0.12-3.55-0.51-4.45l-2.49-3.82c-0.07-1.38,0.21-3.37,0.85-5.98c0.63-2.61,1.63-5.73,2.98-9.37
		c3.56-9.56,7.86-19.34,12.87-29.32c5.02-9.99,10.82-20.31,17.39-30.97c1.69-2.74,3.59-4.59,5.68-5.54
		C238.37,142.7,240.56,142.65,242.84,143.5z"/>
	<path class="st1" d="M322.15,304.22c1.29-1.08,2.82-2.09,4.58-3.02c1.76-0.94,3.86-1.81,6.31-2.6c0.68-1.23,1.35-2.44,2.02-3.64
		c0.67-1.2,1.28-2.43,1.83-3.71c0.53-0.84,1.24-1.8,2.13-2.88c0.88-1.08,1.85-2.24,2.91-3.48c1.12-1.21,2.59-2.71,4.4-4.48
		c1.81-1.77,4.02-3.69,6.65-5.75c1.92-0.99,3.97-2.1,6.14-3.33c2.16-1.24,4.33-2.48,6.51-3.75c0.93-0.32,1.92-0.58,2.96-0.79
		c1.04-0.21,2.11-0.47,3.2-0.81c0.88,0.03,1.84,0.13,2.89,0.3c1.05,0.16,2.16,0.47,3.34,0.91c1.63,0.61,2.88,1.26,3.78,1.96
		c0.89,0.7,1.51,1.57,1.87,2.59c0.26,0.69,0.41,1.64,0.45,2.84c0.03,1.2-0.03,2.62-0.2,4.26c-0.3,1.38-0.6,2.89-0.92,4.55
		c0.15-0.39-0.03-0.27-0.52,0.36s-1.26,1.64-2.3,3.04l-2.04,2.8c-2.08,2.79-5.48,5.64-10.2,8.55c-4.72,2.91-10.77,6-18.14,9.27
		c-0.63,0.29-1.23,0.71-1.81,1.27c-0.58,0.56-1.01,1.24-1.31,2.02c-0.51,1.37-0.72,2.67-0.61,3.89c0.1,1.23,0.51,2.27,1.23,3.13
		c0.38,0.59,1.06,1.29,2.05,2.1c0.99,0.82,2.21,1.68,3.66,2.59c2.61,0.75,5.08,1.19,7.41,1.32c2.33,0.12,4.47,0.03,6.44-0.27
		c0.4-0.08,1.02-0.16,1.87-0.25c0.85-0.09,1.74-0.3,2.67-0.62c0.14,2.21,0.26,4.18,0.36,5.92c0.09,1.74,0.13,3.24,0.11,4.49
		c-5.07,2.27-9.46,3.76-13.19,4.49c-3.72,0.73-6.85,0.62-9.39-0.33c-1.29,0.26-2.65,0.3-4.1,0.09c-1.45-0.2-3.08-0.65-4.9-1.32
		c-2.41-0.9-4.41-2.05-6-3.46c-1.59-1.4-2.75-3.02-3.48-4.85c-0.41-0.89-0.7-2.09-0.88-3.61c-0.18-1.51-0.3-3.28-0.36-5.31
		c-0.05-1.65-0.21-2.92-0.48-3.79c-0.27-0.88-0.73-1.44-1.38-1.68c-0.52-0.19-1.2-0.17-2.03,0.08c-0.84,0.25-1.83,0.71-2.97,1.4
		c0.1-1.07,0.1-2.45-0.02-4.12C322.57,308.86,322.39,306.75,322.15,304.22z M366.59,280.47c-1.43-0.53-4.05,0.62-7.86,3.47
		c-3.8,2.85-6.04,5.15-6.69,6.91c-0.15,0.39-0.16,0.7-0.06,0.92c0.1,0.22,0.41,0.43,0.93,0.63c0.72,0.27,1.44,0.11,2.18-0.47
		c0.73-0.58,1.42-1.12,2.05-1.63c0.96-0.39,1.93-0.82,2.89-1.32c0.96-0.49,1.9-0.98,2.82-1.45c1.12-0.62,2.04-1.32,2.77-2.08
		c0.73-0.77,1.27-1.61,1.61-2.52c0.22-0.59,0.28-1.1,0.19-1.54C367.33,280.95,367.05,280.64,366.59,280.47z"/>
	<path class="st1" d="M205.31,376.69l0.84-0.47l0.65-0.86c1.71-1,3.14-1.74,4.29-2.24c1.15-0.5,2.04-0.89,2.66-1.18
		c0.44-0.2,1.32-0.36,2.62-0.47c1.3-0.11,3.04-0.2,5.22-0.28l1.56-0.31c0.72-0.54,1.93-1.28,3.61-2.22s3.66-1.97,5.95-3.13
		c0.47-0.27,1.12-0.51,1.94-0.72c0.82-0.21,1.72-0.55,2.71-1c2.12-0.91,4.26-1.88,6.42-2.89c2.16-1.01,4.21-2.05,6.16-3.1
		c0.8-0.36,2.4-0.97,4.8-1.83c2.39-0.85,5.66-2.06,9.81-3.63c0.58-0.16,1.57-0.33,2.97-0.51c1.4-0.18,3.21-0.35,5.41-0.49
		c0.99-0.08,1.86-0.48,2.61-1.19c0.75-0.72,1.38-1.77,1.89-3.14c0.84-0.65,1.72-1.49,2.66-2.51c0.94-1.02,1.94-2.26,3-3.72
		c1.4-1.78,2.52-3.23,3.35-4.37c0.83-1.14,1.43-1.9,1.8-2.28c2.2-2.52,4.97-5.4,8.33-8.63c3.36-3.24,7.28-6.91,11.78-11.02
		c2.29-2.18,4.93-4.58,7.9-7.18c1.71-1.21,3.41-1.98,5.08-2.28c1.67-0.31,3.25-0.18,4.75,0.38c1.17,0.44,1.86,1.21,2.08,2.33
		c0.21,1.12-0.01,2.56-0.66,4.32c-1.04,2.8-2.23,5.4-3.57,7.79c-1.34,2.39-2.94,4.51-4.81,6.33c-0.37,0.39-0.78,1.01-1.26,1.87
		c-0.47,0.87-1.01,1.92-1.63,3.18c-0.4,0.89-0.97,1.68-1.72,2.37c-0.74,0.69-1.57,1.27-2.49,1.74c-0.17,0.45-0.43,0.97-0.79,1.54
		c-0.37,0.57-0.77,1.26-1.21,2.05l-2.03,1.25c-0.27,0.34-0.51,0.79-0.72,1.35s-0.42,1.12-0.64,1.71c-0.15,0.39-0.66,1.07-1.54,2.04
		c-0.88,0.97-2.17,2.33-3.85,4.07c-1.87,1.83-3.36,3.28-4.46,4.35c-1.1,1.07-1.75,1.76-1.93,2.06c-0.38,0.23-0.92,0.62-1.61,1.18
		c-0.69,0.56-1.5,1.19-2.43,1.88l-0.51,2.26l-14.62,20.14c-0.92,2.48-1.68,4.61-2.27,6.39c-0.59,1.78-0.91,3.26-0.97,4.42
		c-0.09,1.23-0.06,2.78,0.1,4.66c0.16,1.87,0.48,3.94,0.97,6.2c0.26,1.5,0.77,2.71,1.54,3.63c0.77,0.92,1.71,1.58,2.82,2
		c1.24,0.46,2.62,0.58,4.14,0.37c1.53-0.21,3.21-0.79,5.04-1.74c0.15,1.99,0.29,3.86,0.42,5.6c0.13,1.75,0.17,3.37,0.14,4.84
		c-0.4,0.07-1.34,0.48-2.85,1.22c-1.5,0.74-3.52,1.83-6.05,3.25c-1.5,0.85-3.12,1.26-4.86,1.25c-1.74-0.02-3.72-0.44-5.93-1.26
		c-4.89-1.82-8.39-4.57-10.5-8.25c-2.11-3.68-2.84-8.29-2.19-13.83c0.12-1.14,0.24-2.14,0.33-2.99s0.17-1.64,0.21-2.37
		c0.01-1.41-0.28-3.03-0.85-4.88c-0.7,0.48-1.24,0.83-1.62,1.06c-0.98,0.23-2.12,0.66-3.43,1.28c-1.31,0.63-2.73,1.51-4.27,2.64
		c-0.44,0.58-1.09,1.24-1.97,1.99c-0.87,0.75-2.01,1.61-3.41,2.57c-2.98,1.63-6,3.27-9.06,4.91c-3.06,1.64-6.1,3.23-9.12,4.78
		c-4.15,2.16-7.74,3.55-10.79,4.16s-5.48,0.58-7.3-0.1c-3.26-1.21-5.38-2.88-6.37-4.99c-0.99-2.11-0.88-4.8,0.33-8.05
		c0.56-1.5,1.89-3.39,4.01-5.68c2.11-2.29,3.41-4.08,3.9-5.39l0-1.78L205.31,376.69z M260.58,369.6c0.12-0.33,0.17-0.86,0.15-1.61
		c-1.34,0.61-2.97,1.3-4.89,2.07c-1.92,0.77-4.15,1.57-6.68,2.41c-0.84,0.88-2.5,2.13-4.96,3.77c-2.46,1.64-5.78,3.57-9.95,5.81
		c-1.21,0.66-2.97,1.91-5.3,3.76c-2.32,1.85-5.16,4.11-8.53,6.78c-1.23,1.1-2.59,2.48-4.1,4.14c-0.15,0.39-0.05,0.91,0.31,1.56
		c2.17,0.14,5.2-0.68,9.09-2.46c3.89-1.78,8.72-4.45,14.5-8.01c6.03-3.84,10.72-7.26,14.07-10.28
		C257.62,374.53,259.73,371.88,260.58,369.6z"/>
</g>
</svg>
