<?xml version="1.0" encoding="utf-8"?>
<!-- Generator: Adobe Illustrator 26.0.3, SVG Export Plug-In . SVG Version: 6.00 Build 0)  -->
<svg version="1.1" id="Layer_1" xmlns="http://www.w3.org/2000/svg" xmlns:xlink="http://www.w3.org/1999/xlink" x="0px" y="0px"
	 viewBox="0 0 566.93 566.93" style="enable-background:new 0 0 566.93 566.93;" xml:space="preserve">
<style type="text/css">
	.st0{opacity:0.5;}
	.st1{fill:#EF7846;}
</style>
<g class="st0">
	<path class="st1" d="M168.22,188.89c1.82-0.71,3.48-1.05,4.97-1.01c1.49,0.04,2.82,0.31,3.97,0.81c1.04,0.45,2.14,1.15,3.31,2.07
		c1.17,0.93,2.63,2.05,4.39,3.37c2.26,1.89,3.93,3.35,5.01,4.41c1.08,1.06,1.7,1.8,1.86,2.21c1.29,5.03,2.55,9.83,3.77,14.42
		c1.48,4.76,2.8,9.73,3.96,14.91c0.12,1.29,0.33,2.69,0.63,4.19c1.14,1.94,2.27,4.03,3.38,6.27c1.11,2.24,2.16,4.5,3.15,6.79
		c0.88,1.76,1.76,3.77,2.65,6.05c0.89,2.28,1.81,4.9,2.78,7.86c1.34,3.68,2.41,6.67,3.22,8.98c0.8,2.31,1.37,3.88,1.69,4.71
		c0.23,0.58,0.52,1.22,0.9,1.94c0.37,0.71,0.86,1.47,1.47,2.29c0.62,1.09,1.47,2.43,2.56,4.01l3.05,7.82
		c1.31,3.12,5.16,10.01,11.56,20.68c6.4,10.67,10.06,16.31,10.97,16.9c0.45-0.55,0.85-1,1.2-1.32l2.89-21.16
		c-0.06-1.6-0.12-3.65-0.19-6.16c-0.07-2.5-0.13-5.41-0.19-8.73c0.88-8.74,0.71-19.62-0.52-32.64c-1.22-13.03-3.51-28.13-6.89-45.33
		c-0.81-5.02-0.95-9.21-0.4-12.58c0.54-3.36,1.7-5.72,3.45-7.07l9.49-8.28c2.2,0,3.96,0.48,5.29,1.44c1.33,0.96,2.4,2.47,3.2,4.54
		c1,2.57,2.17,6.91,3.5,13.02c1.34,6.11,2.75,13.88,4.24,23.32c0.66,1.94,1.37,4.38,2.1,7.33c0.74,2.96,1.61,6.44,2.6,10.43
		c0.5,3.24,0.91,5.8,1.21,7.69c0.31,1.88,0.54,3.04,0.7,3.45c0.84,2.15,1.85,4.6,3.01,7.34c1.17,2.75,2.47,5.84,3.91,9.28
		c1.81,4.15,3.27,7.64,4.37,10.46c1.1,2.81,1.87,4.8,2.33,5.96c2.25,5.52,4.08,9.65,5.48,12.39c1.4,2.75,2.35,4.02,2.85,3.83
		c0.83-0.32,1.43-2.61,1.82-6.87c0.39-4.25,0.46-10.48,0.21-18.68c-0.06-6.27-0.2-12.18-0.41-17.73c-0.21-5.55-0.5-10.73-0.85-15.55
		c0.47-1.23,0.63-2.78,0.48-4.63c-0.15-1.85-0.65-4.09-1.48-6.72c-0.07-4.08-0.25-8.32-0.54-12.74c-0.29-4.42-0.57-9.01-0.8-13.78
		c-0.15-2.8-0.46-6.26-0.97-10.36c-0.5-4.09-1.09-8.97-1.77-14.62l-3.65-4.59c-0.14-1.09-0.25-2.48-0.33-4.16
		c-0.08-1.68-0.33-3.64-0.72-5.87c0.84-4.43,1.8-7.9,2.86-10.42c1.07-2.51,2.14-3.98,3.21-4.4c0.83-0.32,1.58-0.12,2.25,0.63
		c0.67,0.74,1.38,2.06,2.12,3.97c1.97,5.05,3.39,9.01,4.27,11.86c0.87,2.85,1.31,4.76,1.3,5.72c-0.13,1.39-0.2,2.68-0.21,3.87
		c-0.01,1.2-0.01,2.17,0,2.93l3.99,5.46c-0.04,1.35,0.19,3.67,0.71,6.95c0.52,3.28,1.32,7.53,2.39,12.73
		c0.98,4.96,1.68,8.94,2.08,11.92c0.4,3,0.5,5.06,0.27,6.19c0.37,1.67,0.57,3.79,0.61,6.35c0.04,2.55,0.09,5.6,0.12,9.11
		c-0.08,1.27,0.04,3.15,0.35,5.66c0.31,2.51,0.66,5.49,1.06,8.96c0.17,2.13,0.3,4.68,0.41,7.64c0.11,2.96,0.31,6.54,0.61,10.71
		c-0.41,1.4-0.65,3.16-0.72,5.29c-0.08,2.13,0.09,4.69,0.49,7.68c0.1,1.49,0.09,3.71-0.04,6.67c-0.13,2.96-0.25,6.75-0.36,11.38
		c-0.12,4.82-0.37,8.59-0.74,11.31s-0.75,4.3-1.15,4.74l-2.3,2.9c-0.34,1.09-0.95,1.97-1.83,2.64c-0.88,0.68-2.13,1.29-3.73,1.81
		c-1.13,1.49-2.16,2.7-3.09,3.64c-0.93,0.93-1.71,1.53-2.38,1.79c-3.15,1.23-6.16,0.97-9.03-0.77c-2.87-1.74-5.72-5.01-8.56-9.83
		c-1.64-3.46-3.31-6.94-5-10.42c-1.7-3.49-3.44-7.03-5.22-10.63c-0.88-1.75-2.14-4.06-3.77-6.9c-1.63-2.85-3.77-6.18-6.41-10.02
		c-0.45,3.99-0.91,8.1-1.4,12.36c-0.49,4.25-0.97,8.7-1.44,13.37c0.37,0.71,0.51,2.76,0.39,6.14c-0.11,3.38-0.28,8.08-0.52,14.08
		c-0.22,6.29-0.58,12.68-1.1,19.18c-0.64,3.97-1.75,7.19-3.31,9.67c-1.57,2.47-3.71,4.24-6.44,5.3c-1.33,0.52-3.02-0.01-5.07-1.6
		c-2.05-1.58-4.52-4.24-7.42-7.98c-1.75-2.27-3.49-4.58-5.21-6.91c-1.73-2.33-3.49-4.72-5.31-7.16c-0.04-1.32-0.12-2.39-0.24-3.19
		c-1.04-0.93-2.25-2.28-3.65-4.02c-1.4-1.74-3.02-3.88-4.86-6.4c-0.93-1.65-2.13-3.75-3.61-6.32c-1.48-2.57-3.2-5.62-5.15-9.15
		c-0.54-1.13-1.08-2.27-1.63-3.44c-0.55-1.17-1.1-2.31-1.63-3.44c-0.44-0.88-1.06-1.78-1.85-2.71c-0.79-0.93-1.84-1.95-3.13-3.07
		c-0.36-0.43-0.98-1.6-1.87-3.49c-0.88-1.9-2.09-4.56-3.61-7.97c-1.18-2.78-2.34-5.02-3.48-6.72c-1.14-1.7-2.24-2.68-3.29-2.93
		l-4.33-1.17c-0.95-0.97-2.05-2.61-3.3-4.94c-1.24-2.33-2.56-5.27-3.95-8.83c-3.65-9.36-6.91-19.35-9.76-29.97
		c-2.86-10.63-5.36-22-7.52-34.13c-0.55-3.12-0.37-5.72,0.54-7.79S165.98,189.76,168.22,188.89z"/>
	<path class="st1" d="M331.77,254.94c0.24-1.64,0.7-3.38,1.38-5.22c0.68-1.84,1.65-3.86,2.93-6.05c-0.31-1.35-0.61-2.68-0.9-4
		c-0.29-1.32-0.66-2.62-1.09-3.92c-0.16-0.96-0.26-2.14-0.32-3.51c-0.06-1.37-0.11-2.86-0.15-4.46c0.03-1.62,0.13-3.68,0.29-6.17
		c0.17-2.48,0.54-5.34,1.11-8.58c0.76-1.99,1.54-4.15,2.32-6.47c0.78-2.33,1.55-4.66,2.32-7.02c0.48-0.84,1.03-1.68,1.66-2.52
		c0.63-0.83,1.24-1.73,1.82-2.69c0.67-0.55,1.44-1.11,2.32-1.67c0.88-0.57,1.9-1.07,3.04-1.52c1.59-0.62,2.94-0.96,4.06-1.03
		c1.11-0.07,2.13,0.16,3.07,0.68c0.64,0.34,1.37,0.93,2.19,1.79c0.81,0.86,1.7,1.95,2.65,3.26c0.69,1.21,1.45,2.52,2.31,3.95
		c-0.15-0.38-0.2-0.18-0.15,0.61c0.05,0.79,0.15,2.03,0.3,3.74l0.34,3.39c0.3,3.41-0.33,7.73-1.88,12.96
		c-1.56,5.23-3.97,11.46-7.25,18.69c-0.27,0.62-0.44,1.33-0.49,2.12c-0.06,0.8,0.06,1.57,0.36,2.34c0.52,1.34,1.22,2.43,2.1,3.26
		c0.88,0.83,1.86,1.33,2.95,1.49c0.66,0.18,1.62,0.25,2.88,0.2c1.27-0.05,2.73-0.22,4.38-0.5c2.41-1.16,4.51-2.46,6.3-3.89
		c1.79-1.43,3.31-2.91,4.56-4.42c0.24-0.32,0.65-0.79,1.21-1.41c0.56-0.62,1.08-1.36,1.56-2.21c1.55,1.53,2.93,2.9,4.14,4.11
		c1.21,1.22,2.22,2.29,3.02,3.23c-2.24,4.99-4.48,8.96-6.74,11.94c-2.25,2.97-4.62,4.94-7.11,5.91c-0.77,1.04-1.75,1.95-2.95,2.75
		c-1.19,0.8-2.69,1.54-4.47,2.24c-2.36,0.92-4.58,1.38-6.67,1.39c-2.09,0.01-4-0.42-5.73-1.29c-0.88-0.38-1.89-1.08-3.01-2.07
		c-1.12-0.99-2.37-2.21-3.74-3.66c-1.12-1.17-2.07-2-2.83-2.47c-0.78-0.47-1.48-0.58-2.12-0.33c-0.51,0.2-0.99,0.66-1.44,1.39
		c-0.45,0.73-0.88,1.72-1.27,2.97c-0.63-0.86-1.53-1.86-2.71-3.01C335.12,258.07,333.61,256.64,331.77,254.94z M348.84,208.37
		c-1.4,0.55-2.57,3.11-3.49,7.7c-0.93,4.58-1.06,7.74-0.39,9.46c0.15,0.38,0.34,0.62,0.56,0.72c0.22,0.1,0.58,0.05,1.09-0.15
		c0.7-0.27,1.13-0.86,1.29-1.77c0.16-0.91,0.31-1.75,0.44-2.54c0.45-0.91,0.87-1.87,1.25-2.86c0.38-0.99,0.76-1.96,1.12-2.91
		c0.42-1.19,0.64-2.31,0.67-3.35c0.03-1.04-0.12-2.01-0.47-2.9c-0.23-0.58-0.52-0.99-0.87-1.26
		C349.69,208.24,349.29,208.2,348.84,208.37z"/>
	<path class="st1" d="M293.47,384.72l0.31-0.89l-0.09-1.06c0.6-1.85,1.16-3.34,1.68-4.46c0.52-1.12,0.91-1.99,1.18-2.61
		c0.19-0.44,0.73-1.13,1.62-2.06c0.89-0.93,2.1-2.14,3.65-3.63l0.94-1.25c0.17-0.87,0.57-2.21,1.2-3.99
		c0.62-1.79,1.4-3.85,2.32-6.19c0.17-0.51,0.49-1.11,0.95-1.8c0.46-0.69,0.9-1.53,1.33-2.51c0.96-2.06,1.9-4.17,2.82-6.33
		c0.92-2.16,1.75-4.26,2.49-6.32c0.35-0.79,1.13-2.29,2.33-4.48c1.2-2.19,2.81-5.22,4.82-9.1c0.32-0.49,0.94-1.27,1.85-2.32
		c0.91-1.06,2.13-2.36,3.65-3.91c0.68-0.71,1.05-1.57,1.14-2.59c0.08-1.02-0.15-2.2-0.67-3.54c0.19-1.03,0.29-2.22,0.31-3.59
		c0.02-1.36-0.06-2.93-0.24-4.7c-0.14-2.22-0.27-4.02-0.4-5.4c-0.14-1.38-0.2-2.33-0.18-2.85c-0.04-3.29,0.11-7.22,0.46-11.8
		c0.34-4.58,0.82-9.85,1.43-15.81c0.25-3.11,0.62-6.59,1.1-10.45c0.46-2.02,1.21-3.68,2.24-5c1.02-1.32,2.27-2.26,3.74-2.83
		c1.15-0.45,2.16-0.33,3.05,0.35c0.89,0.69,1.67,1.88,2.34,3.6c1.07,2.74,1.9,5.43,2.49,8.06s0.79,5.24,0.62,7.8
		c-0.02,0.52,0.09,1.26,0.3,2.2c0.22,0.94,0.52,2.07,0.89,3.4c0.29,0.92,0.39,1.87,0.29,2.86c-0.09,0.99-0.32,1.96-0.68,2.91
		c0.17,0.44,0.32,0.99,0.43,1.65c0.11,0.66,0.26,1.42,0.46,2.3l-0.67,2.24c0.02,0.43,0.14,0.92,0.35,1.46
		c0.21,0.54,0.43,1.1,0.65,1.67c0.15,0.38,0.21,1.22,0.21,2.51c-0.01,1.29-0.06,3.13-0.16,5.51c-0.18,2.57-0.32,4.61-0.42,6.12
		c-0.11,1.51-0.13,2.44-0.07,2.78c-0.13,0.42-0.27,1.06-0.41,1.92c-0.14,0.86-0.32,1.85-0.55,2.97l1.11,1.99l2.46,24.37
		c0.95,2.43,1.79,4.48,2.52,6.18c0.73,1.7,1.46,2.99,2.18,3.88c0.74,0.96,1.78,2.08,3.12,3.36c1.34,1.27,2.93,2.58,4.78,3.92
		c1.17,0.94,2.34,1.49,3.51,1.66c1.16,0.17,2.29,0.04,3.38-0.38c1.21-0.47,2.31-1.29,3.29-2.44c0.98-1.16,1.84-2.68,2.56-4.58
		c1.41,1.36,2.74,2.64,3.98,3.84c1.24,1.21,2.33,2.36,3.28,3.46c-0.25,0.32-0.67,1.24-1.29,2.76c-0.61,1.53-1.39,3.64-2.31,6.35
		c-0.55,1.61-1.46,2.97-2.75,4.1c-1.29,1.13-3.02,2.11-5.18,2.96c-4.78,1.87-9.15,2.14-13.12,0.83c-3.97-1.32-7.52-4.23-10.67-8.73
		c-0.65-0.92-1.23-1.72-1.72-2.41c-0.49-0.69-0.95-1.32-1.39-1.88c-0.92-1.04-2.19-2.04-3.82-3.02c-0.2,0.81-0.37,1.42-0.49,1.84
		c-0.57,0.81-1.13,1.87-1.68,3.19c-0.55,1.32-1.02,2.9-1.4,4.74c0.05,0.71,0.01,1.63-0.14,2.75c-0.15,1.12-0.42,2.5-0.82,4.12
		c-1.12,3.15-2.26,6.33-3.44,9.55c-1.17,3.21-2.36,6.37-3.56,9.49c-1.63,4.31-3.36,7.68-5.19,10.12s-3.65,4.01-5.43,4.71
		c-3.19,1.24-5.84,1.41-7.95,0.51s-3.79-2.94-5.04-6.13c-0.57-1.47-0.83-3.73-0.78-6.8c0.05-3.06-0.17-5.24-0.67-6.51l-1.17-1.31
		L293.47,384.72z M329.4,343.3c-0.12-0.32-0.44-0.74-0.94-1.28c-0.59,1.33-1.33,2.91-2.23,4.72c-0.91,1.82-2.01,3.87-3.33,6.15
		c-0.05,1.2-0.44,3.2-1.17,6.02c-0.73,2.82-1.9,6.41-3.5,10.78c-0.46,1.28-0.93,3.35-1.43,6.23c-0.49,2.88-1.1,6.4-1.82,10.57
		c-0.18,1.61-0.28,3.52-0.3,5.73c0.15,0.38,0.57,0.7,1.25,0.95c1.69-1.32,3.38-3.91,5.07-7.76c1.69-3.86,3.49-8.98,5.4-15.38
		c1.91-6.77,3.11-12.36,3.59-16.77S330.27,345.53,329.4,343.3z"/>
</g>
</svg>
