<?xml version="1.0" encoding="utf-8"?>
<!-- Generator: Adobe Illustrator 26.0.3, SVG Export Plug-In . SVG Version: 6.00 Build 0)  -->
<svg version="1.1" id="Layer_1" xmlns="http://www.w3.org/2000/svg" xmlns:xlink="http://www.w3.org/1999/xlink" x="0px" y="0px"
	 viewBox="0 0 566.93 566.93" style="enable-background:new 0 0 566.93 566.93;" xml:space="preserve">
<style type="text/css">
	.st0{opacity:0.5;}
	.st1{fill:#F7A721;}
</style>
<g class="st0">
	<path class="st1" d="M164.47,193.91c1.76-0.72,3.37-1.08,4.82-1.07c1.46,0.01,2.75,0.25,3.88,0.72c1.02,0.42,2.11,1.08,3.26,1.95
		c1.16,0.88,2.6,1.95,4.34,3.2c2.24,1.79,3.89,3.19,4.96,4.2c1.07,1.01,1.69,1.72,1.85,2.12c1.35,4.87,2.66,9.53,3.93,13.97
		c1.52,4.61,2.9,9.42,4.12,14.44c0.14,1.25,0.37,2.61,0.69,4.06c1.14,1.87,2.28,3.88,3.4,6.04c1.12,2.16,2.19,4.34,3.19,6.55
		c0.89,1.7,1.78,3.64,2.69,5.84c0.91,2.2,1.86,4.73,2.85,7.6c1.37,3.56,2.47,6.45,3.29,8.68c0.83,2.23,1.4,3.75,1.74,4.55
		c0.23,0.56,0.53,1.18,0.91,1.87c0.37,0.68,0.87,1.42,1.47,2.2c0.62,1.05,1.48,2.34,2.57,3.85l3.11,7.56
		c1.33,3.01,5.21,9.65,11.63,19.92c6.42,10.27,10.09,15.69,10.99,16.25c0.43-0.54,0.81-0.99,1.14-1.31l2.43-20.65
		c-0.08-1.56-0.18-3.55-0.3-5.99c-0.11-2.43-0.23-5.26-0.34-8.49c0.7-8.52,0.33-19.11-1.1-31.76c-1.43-12.66-3.93-27.32-7.54-44
		c-0.88-4.87-1.09-8.95-0.62-12.24c0.47-3.28,1.55-5.59,3.23-6.95l9.09-8.24c2.14-0.04,3.86,0.39,5.17,1.31
		c1.31,0.91,2.38,2.36,3.2,4.36c1.02,2.48,2.24,6.68,3.65,12.61c1.41,5.92,2.93,13.46,4.56,22.62c0.68,1.87,1.41,4.24,2.18,7.1
		c0.77,2.87,1.68,6.24,2.72,10.11c0.55,3.14,0.99,5.63,1.32,7.46c0.33,1.83,0.58,2.95,0.74,3.34c0.86,2.08,1.88,4.44,3.06,7.09
		c1.18,2.65,2.51,5.64,3.97,8.97c1.84,4.01,3.32,7.38,4.44,10.1s1.91,4.64,2.37,5.76c2.29,5.33,4.14,9.31,5.56,11.96
		c1.42,2.65,2.37,3.87,2.85,3.67c0.8-0.33,1.35-2.57,1.65-6.72c0.3-4.15,0.25-10.21-0.13-18.19c-0.18-6.1-0.42-11.85-0.73-17.25
		c-0.31-5.4-0.68-10.43-1.11-15.12c0.44-1.21,0.57-2.71,0.39-4.51c-0.18-1.8-0.71-3.97-1.57-6.52c-0.14-3.97-0.39-8.1-0.75-12.39
		c-0.37-4.3-0.71-8.76-1.03-13.4c-0.19-2.73-0.57-6.08-1.13-10.06c-0.56-3.98-1.23-8.71-1.99-14.2l-3.64-4.4
		c-0.16-1.06-0.29-2.41-0.4-4.05c-0.11-1.64-0.39-3.54-0.81-5.7c0.74-4.33,1.61-7.73,2.6-10.2c0.99-2.47,2.01-3.91,3.05-4.34
		c0.8-0.33,1.53-0.14,2.2,0.57c0.67,0.7,1.38,1.98,2.14,3.82c2.01,4.88,3.47,8.7,4.38,11.46c0.9,2.76,1.36,4.61,1.37,5.54
		c-0.1,1.35-0.14,2.61-0.13,3.77c0.01,1.16,0.03,2.12,0.05,2.85l3.98,5.24c-0.02,1.32,0.26,3.57,0.82,6.75
		c0.56,3.18,1.42,7.3,2.56,12.35c1.05,4.81,1.79,8.67,2.24,11.57c0.45,2.91,0.57,4.91,0.38,6.02c0.39,1.62,0.62,3.67,0.71,6.17
		c0.09,2.48,0.19,5.45,0.28,8.87c-0.05,1.24,0.1,3.07,0.44,5.5c0.35,2.43,0.75,5.33,1.2,8.7c0.2,2.07,0.38,4.55,0.53,7.43
		c0.16,2.88,0.42,6.36,0.78,10.42c-0.37,1.37-0.57,3.09-0.61,5.17c-0.04,2.07,0.17,4.56,0.61,7.46c0.13,1.45,0.16,3.61,0.08,6.49
		c-0.08,2.89-0.12,6.58-0.14,11.08c-0.03,4.69-0.2,8.36-0.51,11.02c-0.31,2.65-0.65,4.2-1.03,4.64l-2.19,2.87
		c-0.31,1.06-0.89,1.93-1.73,2.61c-0.85,0.67-2.05,1.29-3.6,1.83c-1.08,1.47-2.06,2.67-2.94,3.59s-1.64,1.52-2.28,1.79
		c-3.04,1.25-5.98,1.05-8.81-0.59c-2.83-1.64-5.66-4.77-8.51-9.41c-1.66-3.34-3.34-6.69-5.06-10.06c-1.72-3.37-3.47-6.78-5.27-10.25
		c-0.89-1.69-2.15-3.91-3.8-6.65c-1.64-2.74-3.78-5.95-6.42-9.64c-0.36,3.89-0.74,7.91-1.14,12.05c-0.4,4.14-0.78,8.49-1.16,13.04
		c0.38,0.69,0.54,2.68,0.5,5.97c-0.05,3.3-0.13,7.87-0.25,13.72c-0.1,6.12-0.34,12.35-0.72,18.69c-0.55,3.88-1.57,7.03-3.05,9.47
		c-1.48,2.43-3.54,4.19-6.18,5.28c-1.28,0.53-2.94,0.04-4.97-1.47c-2.03-1.5-4.48-4.04-7.36-7.63c-1.75-2.18-3.48-4.39-5.19-6.63
		c-1.72-2.24-3.49-4.53-5.29-6.87c-0.06-1.28-0.16-2.32-0.29-3.11c-1.03-0.89-2.23-2.17-3.62-3.85c-1.39-1.67-3.01-3.72-4.85-6.14
		c-0.93-1.59-2.14-3.61-3.63-6.09c-1.49-2.47-3.22-5.41-5.18-8.81c-0.54-1.09-1.09-2.19-1.65-3.32c-0.56-1.13-1.11-2.23-1.65-3.32
		c-0.44-0.85-1.06-1.72-1.85-2.61s-1.82-1.87-3.11-2.93c-0.36-0.41-0.99-1.54-1.88-3.37c-0.89-1.83-2.12-4.4-3.66-7.69
		c-1.2-2.68-2.37-4.85-3.51-6.48c-1.14-1.64-2.23-2.57-3.26-2.8l-4.24-1.06c-0.94-0.92-2.04-2.51-3.3-4.75
		c-1.25-2.25-2.59-5.09-4-8.52c-3.73-9.04-7.07-18.71-10.05-28.99c-2.97-10.29-5.62-21.32-7.94-33.09
		c-0.59-3.03-0.47-5.56,0.38-7.59C160.81,196.27,162.31,194.8,164.47,193.91z"/>
	<path class="st1" d="M324.87,255.22c0.21-1.6,0.62-3.3,1.25-5.11c0.62-1.8,1.54-3.78,2.74-5.94c-0.32-1.31-0.64-2.6-0.95-3.88
		c-0.31-1.28-0.69-2.54-1.13-3.8c-0.17-0.94-0.3-2.07-0.38-3.41c-0.09-1.33-0.16-2.78-0.22-4.34c0-1.58,0.05-3.59,0.17-6.01
		c0.12-2.42,0.43-5.21,0.93-8.37c0.71-1.95,1.42-4.06,2.14-6.34c0.72-2.28,1.43-4.57,2.13-6.88c0.45-0.83,0.97-1.66,1.57-2.48
		s1.17-1.7,1.72-2.65c0.64-0.55,1.38-1.11,2.23-1.67c0.85-0.57,1.83-1.08,2.93-1.54c1.54-0.63,2.85-0.99,3.93-1.08
		c1.08-0.08,2.08,0.12,3,0.6c0.63,0.32,1.35,0.88,2.16,1.7c0.81,0.82,1.69,1.86,2.64,3.12c0.69,1.16,1.46,2.42,2.32,3.8
		c-0.15-0.37-0.2-0.17-0.13,0.6c0.06,0.77,0.18,1.98,0.36,3.63l0.39,3.3c0.35,3.31-0.18,7.53-1.6,12.65
		c-1.42,5.12-3.66,11.23-6.71,18.32c-0.25,0.61-0.4,1.3-0.44,2.07c-0.04,0.78,0.09,1.53,0.4,2.27c0.53,1.29,1.23,2.34,2.1,3.13
		c0.87,0.8,1.83,1.26,2.9,1.4c0.65,0.17,1.58,0.21,2.81,0.14c1.23-0.07,2.65-0.26,4.25-0.56c2.32-1.17,4.34-2.47,6.06-3.9
		c1.71-1.43,3.17-2.89,4.35-4.39c0.23-0.31,0.61-0.78,1.15-1.39c0.54-0.62,1.03-1.34,1.48-2.18c1.54,1.46,2.91,2.77,4.1,3.93
		c1.2,1.16,2.2,2.19,3,3.09c-2.09,4.9-4.2,8.81-6.35,11.75c-2.14,2.93-4.41,4.89-6.81,5.88c-0.73,1.02-1.67,1.93-2.82,2.73
		c-1.15,0.8-2.59,1.55-4.31,2.26c-2.28,0.94-4.43,1.43-6.47,1.48c-2.03,0.05-3.9-0.33-5.6-1.15c-0.87-0.36-1.86-1.02-2.97-1.96
		c-1.11-0.95-2.35-2.11-3.71-3.5c-1.11-1.12-2.05-1.91-2.8-2.35c-0.76-0.44-1.45-0.54-2.07-0.28c-0.49,0.2-0.95,0.66-1.37,1.38
		c-0.43,0.72-0.82,1.69-1.18,2.92c-0.63-0.82-1.52-1.78-2.7-2.88C328.19,258.2,326.7,256.84,324.87,255.22z M340.65,209.58
		c-1.35,0.56-2.44,3.07-3.26,7.55c-0.82,4.48-0.89,7.55-0.2,9.21c0.15,0.37,0.34,0.6,0.56,0.69c0.21,0.09,0.57,0.04,1.06-0.17
		c0.68-0.28,1.08-0.86,1.23-1.75c0.14-0.89,0.27-1.71,0.38-2.48c0.42-0.9,0.82-1.83,1.17-2.81c0.35-0.97,0.7-1.92,1.04-2.86
		c0.38-1.17,0.58-2.26,0.59-3.27c0.01-1.02-0.15-1.96-0.51-2.82c-0.23-0.56-0.52-0.96-0.87-1.21
		C341.47,209.44,341.08,209.41,340.65,209.58z"/>
	<path class="st1" d="M289.96,382.24l0.29-0.88l-0.1-1.03c0.55-1.81,1.07-3.27,1.55-4.37c0.48-1.1,0.85-1.95,1.1-2.56
		c0.18-0.43,0.69-1.11,1.54-2.04c0.84-0.93,2.01-2.12,3.49-3.6l0.89-1.23c0.15-0.85,0.52-2.16,1.09-3.91
		c0.58-1.75,1.29-3.77,2.14-6.07c0.16-0.5,0.46-1.09,0.89-1.77c0.44-0.68,0.85-1.51,1.25-2.46c0.9-2.02,1.77-4.09,2.63-6.21
		c0.86-2.12,1.63-4.18,2.31-6.19c0.33-0.78,1.05-2.25,2.18-4.41c1.12-2.16,2.64-5.14,4.53-8.94c0.3-0.49,0.89-1.25,1.76-2.29
		c0.87-1.04,2.03-2.33,3.49-3.87c0.65-0.7,1-1.55,1.06-2.54c0.06-1-0.18-2.14-0.72-3.43c0.16-1,0.24-2.17,0.24-3.5
		c-0.01-1.33-0.11-2.85-0.32-4.57c-0.17-2.16-0.33-3.91-0.49-5.25c-0.16-1.34-0.23-2.26-0.22-2.77c-0.1-3.2-0.02-7.03,0.23-11.49
		c0.25-4.46,0.62-9.6,1.1-15.42c0.19-3.03,0.49-6.43,0.88-10.19c0.41-1.97,1.11-3.61,2.09-4.91c0.97-1.3,2.17-2.24,3.59-2.83
		c1.11-0.46,2.1-0.36,2.98,0.28c0.88,0.65,1.66,1.8,2.35,3.46c1.09,2.65,1.95,5.25,2.57,7.8c0.62,2.55,0.87,5.08,0.75,7.58
		c-0.01,0.51,0.11,1.22,0.34,2.13c0.23,0.91,0.54,2.01,0.92,3.29c0.3,0.89,0.41,1.82,0.34,2.78c-0.07,0.96-0.27,1.91-0.61,2.84
		c0.18,0.43,0.33,0.96,0.45,1.6c0.11,0.64,0.28,1.38,0.49,2.23l-0.61,2.2c0.03,0.42,0.15,0.89,0.37,1.41s0.44,1.06,0.67,1.62
		c0.15,0.37,0.23,1.18,0.25,2.44c0.01,1.26-0.01,3.05-0.05,5.37c-0.12,2.5-0.23,4.49-0.3,5.96c-0.08,1.47-0.08,2.38-0.02,2.71
		c-0.12,0.41-0.24,1.04-0.36,1.88c-0.12,0.84-0.28,1.81-0.48,2.9l1.12,1.92l2.84,23.68c0.97,2.34,1.82,4.33,2.56,5.97
		c0.75,1.64,1.48,2.89,2.19,3.74c0.74,0.92,1.77,1.99,3.1,3.21c1.33,1.22,2.9,2.46,4.72,3.73c1.16,0.89,2.31,1.41,3.45,1.55
		c1.14,0.14,2.23,0,3.28-0.43c1.17-0.48,2.22-1.3,3.15-2.43c0.94-1.14,1.74-2.65,2.41-4.51c1.4,1.3,2.72,2.52,3.94,3.67
		c1.23,1.15,2.31,2.25,3.25,3.31c-0.23,0.31-0.63,1.21-1.2,2.71c-0.57,1.5-1.28,3.57-2.13,6.23c-0.5,1.57-1.37,2.92-2.6,4.04
		c-1.23,1.12-2.9,2.11-4.99,2.97c-4.62,1.9-8.87,2.25-12.76,1.04c-3.89-1.21-7.4-3.98-10.55-8.3c-0.65-0.88-1.22-1.66-1.71-2.32
		c-0.49-0.66-0.95-1.27-1.39-1.8c-0.91-0.99-2.17-1.95-3.78-2.87c-0.18,0.79-0.33,1.39-0.44,1.8c-0.54,0.8-1.06,1.84-1.57,3.13
		c-0.51,1.3-0.94,2.84-1.28,4.64c0.07,0.69,0.04,1.59-0.09,2.68c-0.13,1.1-0.37,2.44-0.72,4.02c-1.03,3.09-2.09,6.21-3.17,9.36
		c-1.08,3.14-2.18,6.25-3.3,9.3c-1.51,4.22-3.13,7.53-4.87,9.95c-1.74,2.41-3.48,3.97-5.2,4.68c-3.08,1.27-5.66,1.48-7.73,0.64
		s-3.74-2.79-5.01-5.87c-0.58-1.42-0.88-3.62-0.89-6.6c0-2.98-0.26-5.09-0.77-6.33l-1.16-1.25L289.96,382.24z M324.19,341.27
		c-0.13-0.31-0.44-0.72-0.94-1.23c-0.55,1.3-1.24,2.85-2.09,4.64c-0.85,1.79-1.89,3.8-3.13,6.04c-0.02,1.16-0.37,3.12-1.03,5.88
		c-0.66,2.76-1.74,6.28-3.21,10.56c-0.42,1.25-0.84,3.28-1.28,6.09c-0.43,2.81-0.95,6.25-1.58,10.32c-0.15,1.57-0.21,3.43-0.19,5.58
		c0.15,0.37,0.56,0.67,1.23,0.9c1.62-1.32,3.22-3.87,4.79-7.65c1.58-3.78,3.23-8.8,4.97-15.07c1.74-6.62,2.8-12.08,3.19-16.38
		C325.32,346.65,325.07,343.42,324.19,341.27z"/>
</g>
</svg>
