<?xml version="1.0" encoding="utf-8"?>
<!-- Generator: Adobe Illustrator 26.1.0, SVG Export Plug-In . SVG Version: 6.00 Build 0)  -->
<svg version="1.1" id="a" xmlns="http://www.w3.org/2000/svg" xmlns:xlink="http://www.w3.org/1999/xlink" x="0px" y="0px"
	 viewBox="0 0 680 680" style="enable-background:new 0 0 680 680;" xml:space="preserve">
<style type="text/css">
	.st0{opacity:0.5;}
	.st1{fill:#EE7846;}
</style>
<g class="st0">
	<path class="st1" d="M21,177.3c4.2-2.9,8.3-4.8,12.2-5.5c3.9-0.8,7.4-0.9,10.7-0.3c2.9,0.5,6.2,1.7,9.7,3.3c3.6,1.7,8,3.7,13.3,6
		c6.9,3.5,12.1,6.3,15.5,8.3c3.4,2.1,5.4,3.6,6.1,4.6c6.3,12.1,12.4,23.7,18.2,34.8c6.6,11.3,13,23.3,19,35.9
		c1.1,3.2,2.5,6.7,4.1,10.4c4.1,4.3,8.2,9,12.4,14.1c4.2,5.1,8.2,10.3,12.1,15.5c3.3,4,6.8,8.6,10.4,14c3.6,5.3,7.6,11.5,11.8,18.5
		c5.6,8.6,10.2,15.7,13.6,21.1s5.8,9.1,7.2,11.1c0.9,1.3,2.1,2.8,3.5,4.4c1.4,1.6,3.1,3.3,5.1,5c2.2,2.4,5.2,5.4,9,8.8l12.5,18.3
		c5.2,7.2,19.2,22.6,42,46.2c22.8,23.6,35.5,35.9,38.2,36.8c0.8-1.7,1.6-3.1,2.3-4.1l-5.2-56c-1.1-4.1-2.5-9.3-4.1-15.7
		c-1.7-6.4-3.6-13.8-5.7-22.3c-2.9-23-9.9-50.8-20.7-83.5c-10.9-32.7-25.8-70.1-44.7-112.3c-5.1-12.4-7.9-23.1-8.5-32
		c-0.6-9,1-15.7,4.7-20.2l19.4-26.9c5.6-1.3,10.5-1.1,14.4,0.6s7.6,4.9,10.9,9.8c4.1,6,9.7,16.4,16.7,31.3
		c7.1,14.9,15.3,34,24.8,57.3c2.8,4.6,6.1,10.4,9.8,17.6c3.7,7.2,8,15.6,12.9,25.2c3.2,8,5.8,14.4,7.7,19c1.9,4.7,3.2,7.5,3.8,8.4
		c3.4,5,7.5,10.7,12.1,17c4.6,6.4,9.8,13.5,15.5,21.5c7.1,9.6,12.9,17.7,17.4,24.2l9.5,13.9c9,12.8,16.2,22.3,21.4,28.5
		c5.2,6.2,8.4,8.9,9.6,8.1c1.9-1.3,2.1-7.5,0.6-18.7c-1.5-11.2-5.1-27.2-10.6-48.1c-3.9-16.1-7.8-31.2-11.6-45.3
		c-3.8-14.1-7.7-27.2-11.4-39.4c0.5-3.5,0-7.5-1.5-12.2c-1.5-4.7-4.1-10.1-7.8-16.4c-2.6-10.4-5.6-21.2-9-32.4
		c-3.4-11.2-6.8-22.8-10.3-34.9c-2-7.1-4.9-15.8-8.7-26c-3.7-10.2-8.1-22.4-13.2-36.5l-12.1-9.6c-1-2.7-2.1-6.2-3.3-10.5
		c-1.2-4.3-3-9.1-5.3-14.6c-0.5-11.9-0.1-21.4,1.2-28.5c1.2-7.1,3.1-11.5,5.6-13.2c1.9-1.3,4-1.2,6.1,0.3c2.2,1.5,4.8,4.5,7.8,8.9
		c8.1,11.8,14.1,21.1,18,27.9c3.9,6.8,6.2,11.5,6.7,13.9c0.5,3.6,1.1,7,1.8,10.1c0.7,3.1,1.3,5.6,1.7,7.5L390,92.3
		c0.7,3.5,2.7,9.3,6,17.4c3.3,8.1,7.9,18.5,13.7,31.3c5.5,12.2,9.6,21.9,12.4,29.4c2.8,7.5,4.3,12.7,4.4,15.7
		c1.9,4.1,3.7,9.4,5.3,15.9c1.6,6.5,3.5,14.3,5.7,23.3c0.6,3.3,2,8.1,4.3,14.3c2.3,6.2,5,13.7,8,22.4c1.7,5.4,3.6,11.8,5.6,19.4
		c2,7.5,4.7,16.6,7.9,27.1c-0.2,3.8,0.2,8.5,1.3,14c1.1,5.5,3,12,5.8,19.4c1.2,3.8,2.4,9.5,3.9,17.2c1.4,7.7,3.4,17.5,5.8,29.4
		c2.5,12.4,4.2,22.3,4.8,29.5s0.6,11.5-0.1,12.9l-4.2,8.8c-0.2,3-1.3,5.6-3.1,7.9s-4.7,4.6-8.5,6.9c-2,4.5-3.9,8.2-5.8,11.2
		c-1.8,3-3.5,5-5,6c-7.3,5-15.2,6.1-23.7,3.4c-8.4-2.8-17.7-9.5-27.8-20.1c-6.3-7.9-12.6-15.8-19-23.8c-6.4-8-13-16-19.7-24.2
		c-3.3-4-7.9-9.2-13.8-15.5c-5.9-6.3-13.4-13.6-22.4-21.9c1.2,10.5,2.5,21.3,3.8,32.5c1.3,11.2,2.7,22.9,4.3,35.2
		c1.4,1.6,2.9,6.8,4.7,15.5c1.7,8.8,4.1,20.9,7,36.5c3.2,16.3,6,32.9,8.6,49.9c0.7,10.6-0.2,19.5-2.8,26.8
		c-2.5,7.3-7,13.1-13.4,17.5c-3.1,2.1-7.8,1.8-14-1.1c-6.2-2.8-14.1-8.2-23.8-16.1c-5.8-4.8-11.7-9.7-17.5-14.6
		c-5.8-5-11.8-10-17.9-15.2c-0.9-3.4-1.7-6.1-2.5-8.1c-3.2-1.8-7.1-4.5-11.8-8.2c-4.6-3.7-10-8.2-16.3-13.5
		c-3.4-3.7-7.7-8.3-13-14.1c-5.3-5.7-11.5-12.5-18.7-20.4c-2-2.6-4.1-5.2-6.2-7.9c-2.1-2.7-4.2-5.3-6.2-7.9c-1.7-2-3.8-4-6.4-5.9
		c-2.6-1.9-5.9-3.9-9.9-6c-1.2-0.9-3.5-3.5-6.9-7.9c-3.4-4.3-8.1-10.5-14-18.3c-4.7-6.4-9-11.5-12.9-15.2c-4-3.7-7.3-5.5-10.2-5.6
		l-11.8-0.4c-3-1.9-6.8-5.5-11.4-10.7s-9.7-12-15.4-20.3c-14.9-21.8-29.2-45.6-42.9-71.1c-13.6-25.6-26.9-53.3-39.6-83.2
		c-3.3-7.7-4.4-14.5-3.2-20.3C12.7,185.5,15.8,180.8,21,177.3L21,177.3z"/>
	<path class="st1" d="M480.1,249.6c-0.3-4.3-0.2-9.1,0.4-14.2c0.6-5.1,2-10.9,3.9-17.3c-1.6-3.3-3.2-6.5-4.7-9.7
		c-1.5-3.2-3.2-6.3-5.1-9.4c-1-2.4-2-5.3-2.9-8.8c-1-3.5-2-7.3-3-11.4c-0.9-4.2-1.9-9.5-2.9-16c-1-6.5-1.8-14-2.2-22.7
		c0.8-5.6,1.5-11.6,2.1-18c0.6-6.4,1.2-12.9,1.8-19.4c0.7-2.5,1.7-4.9,2.8-7.5s2.2-5.2,3.1-8c1.4-1.8,3-3.7,5-5.7
		c1.9-2,4.2-3.9,6.9-5.7c3.7-2.5,7-4.2,9.8-5.1c2.8-0.8,5.6-0.9,8.3-0.1c1.8,0.5,4.1,1.6,6.7,3.3c2.6,1.7,5.5,4,8.7,6.8
		c2.5,2.7,5.2,5.6,8.3,8.8c-0.6-0.9-0.6-0.3,0,1.6s1.6,5.1,3,9.4l2.9,8.5c2.8,8.6,3.8,20,2.9,34.4c-0.9,14.4-3.4,31.8-7.5,52.3
		c-0.3,1.8-0.3,3.7,0,5.7c0.3,2.1,1.1,4,2.3,5.8c2.1,3.1,4.6,5.5,7.3,7.1c2.8,1.6,5.6,2.3,8.5,2.1c1.8,0.1,4.3-0.3,7.5-1.2
		c3.2-0.9,6.9-2.2,11-3.9c5.5-4.4,10.1-9,13.9-13.7c3.7-4.7,6.8-9.4,9.1-14.1c0.4-1,1.2-2.4,2.3-4.3c1.1-1.9,2-4.1,2.7-6.6
		c4.9,3,9.2,5.7,13.1,8.1c3.8,2.4,7.1,4.6,9.7,6.5c-2.8,14.1-6.2,25.7-10.2,34.7c-4,9-8.9,15.4-14.7,19.4c-1.4,3.1-3.3,6.1-5.9,8.8
		c-2.6,2.8-6,5.6-10.1,8.4c-5.5,3.8-10.9,6.3-16.3,7.5c-5.3,1.3-10.5,1.3-15.5,0.1c-2.5-0.5-5.5-1.7-9-3.5
		c-3.5-1.9-7.4-4.3-11.8-7.2c-3.6-2.3-6.5-3.9-8.8-4.7c-2.3-0.8-4.1-0.6-5.6,0.4c-1.2,0.8-2.2,2.3-2.9,4.4c-0.7,2.1-1.2,4.9-1.5,8.4
		c-2.1-1.8-5-3.9-8.8-6.1C490.6,255.6,485.9,252.8,480.1,249.6L480.1,249.6z M496.3,119.9c-3.3,2.2-4.7,9.5-4.4,21.8
		s1.9,20.5,4.6,24.5c0.6,0.9,1.2,1.4,1.9,1.5c0.6,0.1,1.5-0.2,2.7-1c1.6-1.1,2.4-2.9,2.3-5.3c-0.1-2.4-0.3-4.7-0.4-6.8
		c0.6-2.6,1.1-5.3,1.5-8.1c0.4-2.8,0.8-5.5,1.2-8.2c0.4-3.3,0.3-6.3-0.3-9c-0.5-2.7-1.5-5.1-2.9-7.2c-0.9-1.4-1.9-2.2-3-2.7
		C498.4,119,497.3,119.1,496.3,119.9L496.3,119.9z"/>
	<path class="st1" d="M459,605.5l0.3-2.5l-0.8-2.7c0.4-5.1,1-9.3,1.7-12.4s1.2-5.7,1.5-7.4c0.2-1.2,1.2-3.3,2.9-6.2
		s4.1-6.8,7.2-11.5l1.7-3.8c-0.1-2.3,0.2-6,0.7-11c0.5-5,1.3-10.7,2.3-17.3c0.1-1.4,0.6-3.1,1.4-5.2c0.8-2,1.4-4.5,1.9-7.2
		c1.2-5.9,2.4-11.8,3.5-17.9c1.1-6.1,2-12,2.7-17.7c0.4-2.2,1.5-6.5,3.3-12.9c1.8-6.3,4.1-15.1,7-26.2c0.5-1.5,1.7-3.8,3.4-7
		c1.7-3.2,4.1-7.3,7.1-12.2c1.3-2.2,1.8-4.7,1.4-7.3c-0.4-2.7-1.7-5.6-3.8-8.7c-0.1-2.8-0.6-5.9-1.3-9.4c-0.8-3.5-1.9-7.5-3.4-11.9
		c-1.7-5.6-3.1-10.2-4.2-13.6c-1.2-3.5-1.9-5.9-2.2-7.2c-2-8.4-4-18.6-5.8-30.6c-1.8-12-3.8-25.8-5.7-41.5
		c-1.2-8.1-2.3-17.3-3.4-27.5c0-5.5,0.9-10.2,2.8-14.2c1.8-4,4.5-7.2,7.9-9.5c2.7-1.8,5.3-2.1,8-0.9c2.7,1.2,5.4,3.8,8.2,7.9
		c4.4,6.4,8.1,12.8,11.2,19.2c3.1,6.4,5.2,13,6.2,19.7c0.3,1.3,1,3.2,2.1,5.5c1.1,2.3,2.6,5,4.3,8.2c1.3,2.2,2.1,4.6,2.5,7.2
		c0.3,2.6,0.3,5.2,0,7.9c0.7,1,1.4,2.4,2.1,4c0.7,1.6,1.5,3.5,2.5,5.6l-0.4,6.2c0.3,1.1,0.9,2.3,1.8,3.5l2.7,3.9
		c0.6,0.9,1.3,3,2,6.3c0.7,3.3,1.7,8.1,2.9,14.2c1.1,6.7,1.9,12,2.5,16c0.6,3.9,1.1,6.3,1.5,7.2c-0.1,1.2,0,2.9,0.1,5.2
		c0.2,2.3,0.3,5,0.3,8l4,4.5l20.8,61.1c3.9,5.7,7.2,10.4,10.1,14.4s5.5,6.8,7.9,8.7c2.5,2,5.8,4.3,10,6.8c4.2,2.5,9.1,4.9,14.6,7.2
		c3.6,1.7,6.9,2.4,10,2.2c3.1-0.2,5.9-1.2,8.4-3c2.8-1.9,5.1-4.7,7-8.2c1.8-3.5,3.1-8,3.8-13.3c4.4,2.7,8.6,5.2,12.5,7.5
		c3.9,2.3,7.4,4.7,10.5,6.9c-0.4,1-1,3.6-1.7,7.9c-0.7,4.3-1.4,10.2-2.2,17.7c-0.4,4.5-2,8.5-4.6,12.2s-6.5,7.2-11.5,10.7
		c-11.2,7.6-22.2,10.9-33.2,9.9c-11-1-21.8-6.4-32.6-16c-2.2-2-4.2-3.7-5.8-5.2c-1.7-1.5-3.2-2.8-4.7-4c-3-2.1-6.8-4-11.6-5.5
		c0,2.2-0.1,3.9-0.2,5c-1,2.4-1.8,5.5-2.4,9.2c-0.6,3.7-0.9,8-0.8,13c0.6,1.8,1,4.2,1.3,7.1c0.3,3,0.4,6.7,0.4,11.1
		c-1,8.8-2,17.6-3.1,26.5c-1.1,8.9-2.3,17.8-3.5,26.5c-1.6,12-4,21.7-7.3,29.1c-3.3,7.4-7,12.5-11.1,15.3c-7.4,5.1-14.1,7.1-20.1,6
		c-6-1.1-11.5-5.3-16.6-12.7c-2.3-3.4-4.3-9.1-6-17c-1.7-7.9-3.5-13.3-5.6-16.3l-3.8-2.7L459,605.5L459,605.5z M526.6,477.8
		c-0.5-0.8-1.6-1.7-3.2-2.7c-0.7,3.8-1.7,8.2-2.9,13.5c-1.2,5.2-2.9,11.1-4.9,17.8c0.6,3.1,0.8,8.5,0.6,16.2
		c-0.2,7.7-1.1,17.6-2.6,29.8c-0.4,3.6-0.4,9.2,0,16.8c0.5,7.7,1,17.1,1.6,28.2c0.5,4.2,1.4,9.2,2.6,14.9c0.6,0.9,1.9,1.5,3.8,1.7
		c3.5-4.4,6.3-12,8.4-22.9c2-10.9,3.6-25.1,4.7-42.7c0.9-18.5,0.6-33.6-0.8-45.2C532.7,491.4,530.2,483,526.6,477.8L526.6,477.8z"/>
</g>
</svg>
