<?xml version="1.0" encoding="utf-8"?>
<!-- Generator: Adobe Illustrator 26.1.0, SVG Export Plug-In . SVG Version: 6.00 Build 0)  -->
<svg version="1.1" id="a" xmlns="http://www.w3.org/2000/svg" xmlns:xlink="http://www.w3.org/1999/xlink" x="0px" y="0px"
	 viewBox="0 0 680 680" style="enable-background:new 0 0 680 680;" xml:space="preserve">
<style type="text/css">
	.st0{opacity:0.5;}
	.st1{fill:#F6A620;}
</style>
<g class="st0">
	<path class="st1" d="M358.6,6.4c3.9,2.8,6.7,5.8,8.6,9c1.9,3.1,3,6.2,3.5,9.3c0.4,2.7,0.4,6,0.1,9.6c-0.4,3.6-0.8,8.1-1.2,13.5
		c-1,7.2-1.8,12.5-2.6,16.2c-0.8,3.6-1.5,5.9-2.1,6.8c-8.7,9.3-17,18.2-25,26.7c-7.9,9.3-16.5,18.6-25.7,27.8
		c-2.5,1.9-5.1,4.2-7.8,6.8c-2.5,4.9-5.4,10-8.6,15.2c-3.2,5.2-6.5,10.4-9.9,15.4c-2.5,4.1-5.5,8.6-9.1,13.4s-7.8,10.2-12.7,16.1
		c-5.9,7.6-10.7,13.7-14.4,18.5c-3.7,4.7-6.2,7.9-7.5,9.7c-0.9,1.2-1.8,2.7-2.8,4.4c-1,1.7-1.9,3.7-2.8,6c-1.5,2.7-3.1,6.2-4.9,10.6
		L221.3,258c-4.8,6.8-14,23.8-27.7,51.1c-13.7,27.3-20.6,42.2-20.7,44.9c1.7,0.2,3.2,0.5,4.3,0.8l47.7-21.8c3.2-2.2,7.4-5,12.5-8.5
		c5.1-3.4,11-7.4,17.8-11.8c19.3-9.6,41.6-24.3,67-43.9c25.4-19.6,53.7-44.2,85-73.8c9.3-8.3,17.9-14.1,25.6-17.3
		c7.7-3.3,14.1-4,19.2-2.1l29.6,8.8c2.9,4.6,4.2,8.8,3.9,12.9c-0.2,4-2,8.2-5.2,12.6c-4,5.5-11.5,13.6-22.4,24.3
		c-10.9,10.8-25.2,23.9-42.8,39.4c-3.2,3.9-7.3,8.6-12.5,14c-5.2,5.4-11.2,11.8-18.2,19.1c-6.1,5.3-10.8,9.5-14.4,12.6
		c-3.5,3.1-5.6,5.1-6.2,6c-3.4,4.6-7.1,9.9-11.3,15.9c-4.2,6-8.9,12.8-14.1,20.3c-6.2,9.2-11.6,16.8-16,22.8l-9.3,12.6
		c-8.5,11.9-14.7,21.1-18.5,27.6c-3.8,6.5-5.2,10.2-4.2,10.9c1.8,1.3,7.3-0.5,16.6-5.2c9.3-4.8,22.3-12.8,39-24.1
		c12.9-8.4,25-16.4,36.2-24.1c11.2-7.7,21.6-15.1,31.1-22.2c3.2-0.6,6.6-2.3,10.2-5.1c3.6-2.7,7.6-6.7,12-11.9
		c8.4-5.5,16.9-11.4,25.7-17.8c8.8-6.4,18-13,27.5-19.8c5.6-4,12.4-9.2,20.2-15.6c7.8-6.4,17.2-14,28-22.8l4.7-13.6
		c2.1-1.7,4.8-3.8,8.2-6.2c3.4-2.4,7.1-5.5,11.2-9.2c10.3-4.1,18.8-6.6,25.4-7.7c6.6-1.1,11.1-0.8,13.3,0.9c1.8,1.3,2.3,3.1,1.7,5.5
		c-0.7,2.4-2.5,5.6-5.4,9.6c-7.9,10.7-14.2,18.8-19,24.4c-4.8,5.6-8.2,9-10.2,10.2c-3,1.5-5.8,3.1-8.3,4.7c-2.5,1.5-4.5,2.8-6.1,3.8
		l-6.1,15.4c-2.9,1.7-7.4,5.2-13.5,10.6c-6.1,5.4-13.9,12.6-23.3,21.7c-9,8.5-16.3,15.2-22,20c-5.7,4.8-9.8,7.7-12.5,8.7
		c-3,3-7.1,6.1-12.4,9.6c-5.2,3.4-11.5,7.5-18.7,12.2c-2.7,1.5-6.5,4.2-11.3,8.1c-4.8,3.9-10.5,8.6-17.2,14
		c-4.2,3.1-9.3,6.8-15.3,10.9c-6,4.1-13.2,9.2-21.4,15.3c-3.5,1-7.4,2.8-11.9,5.4c-4.5,2.6-9.6,6.3-15.3,11.1
		c-3,2.2-7.6,5.1-13.9,8.7c-6.3,3.6-14.3,8.3-24.1,14.2c-10.2,6.1-18.3,10.5-24.4,13.3c-6.1,2.8-9.9,4.1-11.3,3.8l-9-1
		c-2.7,0.7-5.3,0.6-7.9-0.3s-5.5-2.7-8.7-5.4c-4.6-0.4-8.4-0.9-11.6-1.6s-5.4-1.5-6.8-2.6c-6.7-4.9-10.1-11.5-10.2-19.8
		c-0.2-8.2,2.9-18.4,9.2-30.6c5-7.9,10-16,15.1-24c5-8.1,10.1-16.3,15.2-24.8c2.5-4.1,5.6-9.8,9.4-16.9c3.8-7.1,7.9-15.9,12.4-26.4
		c-8.9,4.3-18,8.7-27.5,13.3c-9.5,4.5-19.3,9.4-29.6,14.5c-1,1.7-5.1,4.7-12.2,8.9c-7.2,4.2-17.1,10-29.9,17.4
		c-13.3,7.8-27.1,15.4-41.2,22.9c-9.1,3.9-17.2,5.8-24.4,5.8c-7.2,0-13.7-2.1-19.5-6.4c-2.8-2.1-3.9-6.3-3.3-12.6
		c0.6-6.3,2.9-15,6.8-25.8c2.4-6.6,4.9-13.2,7.5-19.9c2.6-6.6,5.2-13.4,7.9-20.4c2.7-1.8,4.8-3.4,6.3-4.7c0.6-3.4,1.8-7.7,3.5-12.8
		c1.8-5.2,4.1-11.3,6.9-18.5c2.2-4.1,5-9.3,8.4-15.8c3.4-6.4,7.5-14,12.2-22.7c1.6-2.6,3.3-5.2,5-7.9c1.7-2.7,3.4-5.3,5-7.9
		c1.2-2.1,2.3-4.5,3.2-7.4c0.9-2.9,1.6-6.4,2.3-10.5c0.4-1.3,2-4.1,4.8-8.5c2.8-4.3,6.7-10.3,11.8-17.9c4.2-6.1,7.3-11.5,9.4-16
		c2-4.6,2.6-8.2,1.8-10.7l-3.2-10.5c0.8-3.2,2.7-7.7,5.9-13.3c3.2-5.6,7.6-12.2,13.1-19.8c14.6-19.9,31.1-39.7,49.3-59.5
		c18.3-19.9,38.6-40,60.9-60.4c5.8-5.2,11.4-8.3,16.9-9.1C348.8,1.6,353.9,2.9,358.6,6.4L358.6,6.4z"/>
	<path class="st1" d="M436.2,432.3c3.7-1.6,7.9-3,12.6-4c4.7-1,10.2-1.6,16.4-1.9c2.4-2.4,4.8-4.8,7.1-7.1c2.3-2.3,4.6-4.8,6.7-7.4
		c1.8-1.6,4.1-3.3,6.9-5.3c2.8-1.9,5.8-4,9-6.2c3.4-2.1,7.8-4.6,13.2-7.5c5.4-2.9,11.8-5.9,19.3-9c5.1-1,10.6-2.2,16.5-3.7
		c5.8-1.4,11.7-2.9,17.6-4.4c2.4-0.1,4.8-0.1,7.4,0.1c2.5,0.2,5.2,0.3,8,0.2c2,0.7,4.2,1.5,6.5,2.6c2.3,1.1,4.7,2.5,7.2,4.3
		c3.4,2.5,5.9,4.8,7.5,7.1c1.6,2.2,2.5,4.6,2.6,7.2c0.2,1.8-0.1,4.1-0.8,6.9c-0.7,2.8-1.8,6.1-3.3,9.8c-1.6,3-3.3,6.3-5.2,10
		c0.6-0.8,0.1-0.7-1.5,0.5c-1.6,1.1-4,3-7.3,5.5l-6.6,5.2c-6.7,5.1-16.5,9.5-29.3,13.1c-12.9,3.6-29,6.8-48.3,9.5
		c-1.7,0.2-3.3,0.8-5,1.8c-1.7,0.9-3.2,2.2-4.4,3.8c-2.1,2.8-3.4,5.7-4,8.6c-0.6,2.9-0.3,5.6,0.8,8.1c0.5,1.6,1.6,3.7,3.4,6.2
		s4,5.4,6.8,8.4c5.6,3.5,11,6.1,16.3,8c5.3,1.8,10.4,3,15.1,3.7c1,0.1,2.5,0.3,4.5,0.7c2,0.3,4.2,0.5,6.6,0.3
		c-1.1,5.2-2.2,9.9-3.1,14s-1.8,7.6-2.7,10.5c-13.3,1.9-24.5,2.5-33.6,1.7c-9.1-0.8-16.3-3.1-21.6-7c-3.2-0.2-6.3-1.1-9.6-2.5
		c-3.2-1.4-6.7-3.5-10.5-6.3c-5-3.7-8.9-7.7-11.6-12c-2.8-4.3-4.4-8.8-4.8-13.6c-0.4-2.3-0.2-5.3,0.3-9c0.6-3.6,1.5-7.8,2.7-12.6
		c1-3.9,1.4-6.9,1.4-9.1c0-2.2-0.7-3.8-2.1-4.8c-1.1-0.8-2.7-1.2-4.8-1.2c-2.1,0-4.7,0.4-7.8,1.3c1-2.4,1.8-5.6,2.7-9.6
		C434.1,443.3,435.1,438.3,436.2,432.3L436.2,432.3z M555.1,406.6c-3-2.2-9.8-1.2-20.5,2.8c-10.7,4.1-17.4,8-20.1,11.6
		c-0.6,0.8-0.8,1.5-0.8,2.1c0.1,0.6,0.7,1.3,1.8,2.1c1.5,1.1,3.3,1.2,5.4,0.4c2.1-0.9,4-1.7,5.8-2.4c2.5-0.3,5-0.6,7.6-1.2
		s5.1-1,7.5-1.5c3-0.7,5.6-1.7,7.8-3c2.2-1.3,4-2.9,5.4-4.8c0.9-1.2,1.4-2.4,1.5-3.5C556.5,408.2,556.1,407.3,555.1,406.6
		L555.1,406.6z"/>
	<path class="st1" d="M116.8,523.1l2.3-0.5l2.1-1.6c4.6-1.2,8.4-2,11.4-2.4s5.3-0.7,7-1c1.2-0.2,3.3,0,6.4,0.7
		c3.1,0.6,7.2,1.5,12.3,2.8l3.8,0.3c2-0.8,5.3-1.7,9.8-2.8c4.5-1,9.8-2.2,15.9-3.3c1.3-0.3,2.9-0.4,5-0.4s4.4-0.1,7-0.5
		c5.5-0.7,11.1-1.5,16.8-2.5c5.7-0.9,11.1-2,16.4-3.1c2.1-0.3,6.2-0.7,12.3-1.1c6.1-0.4,14.5-1,25.2-1.9c1.4,0,3.8,0.3,7.2,0.8
		c3.4,0.5,7.7,1.3,12.9,2.5c2.3,0.5,4.6,0.1,6.9-1c2.2-1.2,4.4-3.2,6.5-6c2.4-1,5-2.3,7.8-4.1c2.8-1.8,6-4,9.4-6.7
		c4.4-3.2,8-5.8,10.7-7.9c2.7-2.1,4.6-3.5,5.7-4.1c6.8-4.4,15.1-9.2,25.1-14.5c10-5.3,21.5-11.2,34.7-17.8
		c6.8-3.5,14.5-7.3,23.1-11.4c4.8-1.7,9.2-2.3,13.3-1.9c4.1,0.4,7.7,1.8,10.8,4c2.4,1.8,3.5,4,3.3,6.8c-0.2,2.8-1.7,5.9-4.4,9.6
		c-4.3,5.8-8.8,11.1-13.5,15.7s-9.8,8.5-15.4,11.5c-1.1,0.7-2.5,1.8-4.2,3.5c-1.7,1.7-3.6,3.8-5.9,6.3c-1.5,1.8-3.4,3.3-5.5,4.4
		c-2.2,1.1-4.5,1.9-6.9,2.4c-0.7,0.9-1.7,2-2.9,3c-1.2,1.1-2.6,2.4-4.2,4l-5.5,1.5c-0.9,0.6-1.7,1.5-2.6,2.7l-2.6,3.5
		c-0.6,0.8-2.2,2-4.9,3.7c-2.7,1.7-6.6,4-11.6,6.9c-5.6,3-10,5.4-13.2,7.1c-3.3,1.8-5.2,2.9-5.8,3.5c-1,0.3-2.5,0.8-4.5,1.7
		c-2,0.8-4.3,1.8-6.9,2.8l-2.7,4.9l-47.3,37.1c-3.8,5.2-7,9.6-9.5,13.3c-2.5,3.8-4.3,7-5.2,9.6c-1,2.8-2,6.4-2.9,10.9
		c-0.9,4.5-1.5,9.5-1.9,15c-0.4,3.7,0,6.8,1.2,9.5c1.2,2.6,2.9,4.8,5.2,6.5c2.6,1.9,5.7,3.1,9.4,3.6c3.7,0.5,8,0.3,12.9-0.7
		c-1,4.7-1.9,9.2-2.8,13.3c-0.9,4.2-1.8,7.9-2.9,11.3c-1-0.1-3.4,0.2-7.4,0.9c-4,0.7-9.4,1.9-16.2,3.5c-4,1-8.1,0.9-12.1-0.3
		c-4-1.2-8.3-3.5-12.9-6.9c-10.1-7.5-16.4-16.2-18.9-26.1c-2.5-10-1.1-21.1,4.1-33.6c1-2.6,2-4.8,2.8-6.7c0.8-1.9,1.5-3.7,2.1-5.4
		c1-3.3,1.4-7.2,1.2-11.9c-1.9,0.7-3.4,1.1-4.5,1.4c-2.4-0.1-5.4,0.1-8.8,0.7c-3.5,0.6-7.3,1.7-11.7,3.3c-1.4,1-3.4,2.2-5.9,3.3
		c-2.5,1.2-5.7,2.4-9.6,3.7c-8,1.8-16.1,3.6-24.3,5.4c-8.2,1.8-16.3,3.5-24.3,5c-11.1,2.3-20.3,3.1-27.8,2.5
		c-7.5-0.6-13.1-2.3-16.9-5.1c-6.8-5-10.6-10.2-11.5-15.8s1.1-11.7,6.1-18.5c2.3-3.1,6.6-6.6,13.1-10.5c6.4-3.9,10.6-7.2,12.6-9.9
		l1.2-4.1L116.8,523.1L116.8,523.1z M249.8,543.3c0.5-0.7,1-1.9,1.4-3.6c-3.5,0.5-7.8,1.1-12.7,1.6c-5,0.5-10.7,0.9-17.1,1.2
		c-2.5,1.5-7.2,3.3-14,5.5c-6.8,2.2-15.8,4.5-27,6.9c-3.3,0.7-8.2,2.5-14.8,5.2c-6.6,2.8-14.7,6.1-24.3,10.1
		c-3.6,1.7-7.7,4-12.3,6.9c-0.6,0.8-0.7,2.1-0.3,3.8c5,1.8,12.5,1.9,22.7,0.3c10.2-1.5,23.2-4.5,39-9c16.5-4.9,29.7-9.8,39.5-14.5
		C239.7,552.8,246.3,548,249.8,543.3L249.8,543.3z"/>
</g>
</svg>
