<?xml version="1.0" encoding="utf-8"?>
<!-- Generator: Adobe Illustrator 26.1.0, SVG Export Plug-In . SVG Version: 6.00 Build 0)  -->
<svg version="1.1" id="a" xmlns="http://www.w3.org/2000/svg" xmlns:xlink="http://www.w3.org/1999/xlink" x="0px" y="0px"
	 viewBox="0 0 680 680" style="enable-background:new 0 0 680 680;" xml:space="preserve">
<style type="text/css">
	.st0{opacity:0.5;}
	.st1{fill:#EDA9CC;}
</style>
<g class="st0">
	<path class="st1" d="M11.2,184.9c4.2-3.1,8.3-5,12.2-6c3.9-0.9,7.5-1.1,10.9-0.5c3,0.5,6.3,1.5,10,3.2c3.7,1.6,8.2,3.5,13.7,5.8
		c7.1,3.4,12.5,6.1,16,8.1c3.5,2,5.6,3.5,6.3,4.5c6.7,12.2,13.2,23.8,19.5,34.9c7,11.4,13.8,23.4,20.3,36.1
		c1.2,3.3,2.7,6.8,4.5,10.5c4.3,4.3,8.6,9,13,14c4.4,5.1,8.6,10.2,12.7,15.5c3.5,4,7.1,8.6,10.9,13.9c3.8,5.3,8,11.5,12.5,18.5
		c5.9,8.7,10.7,15.7,14.4,21.2c3.6,5.5,6.2,9.2,7.6,11.1c1,1.3,2.2,2.8,3.6,4.4c1.4,1.6,3.2,3.2,5.3,5c2.3,2.4,5.5,5.3,9.3,8.7
		l13.2,18.3c5.5,7.2,20.1,22.5,43.9,45.9c23.8,23.4,37.1,35.6,39.8,36.5c0.8-1.7,1.5-3.2,2.2-4.2l-6.7-56.9
		c-1.2-4.1-2.8-9.4-4.6-15.9c-1.9-6.4-4-14-6.3-22.5c-3.6-23.3-11.3-51.4-23.2-84.4c-11.9-33-28-70.7-48.3-113.1
		c-5.5-12.5-8.7-23.3-9.5-32.4c-0.8-9.1,0.6-16,4.2-20.7l19.1-27.9c5.7-1.5,10.6-1.4,14.7,0.2c4.1,1.6,7.9,4.8,11.4,9.6
		c4.3,6,10.3,16.5,17.8,31.5c7.6,15,16.5,34.2,26.7,57.7c3,4.6,6.5,10.5,10.4,17.6c3.9,7.2,8.5,15.6,13.8,25.3
		c3.5,8.1,6.2,14.5,8.3,19.2c2.1,4.7,3.4,7.5,4.1,8.5c3.6,5,7.9,10.7,12.7,17c4.9,6.3,10.3,13.5,16.4,21.5
		c7.5,9.6,13.6,17.7,18.4,24.2l10,13.9c9.5,12.8,17.1,22.3,22.5,28.5c5.5,6.2,8.8,8.9,10,8c1.9-1.4,2-7.7,0.1-19.1
		c-1.8-11.3-5.8-27.5-12-48.7c-4.4-16.2-8.7-31.5-13-45.8c-4.3-14.3-8.5-27.5-12.7-39.8c0.4-3.5-0.2-7.6-1.8-12.3
		c-1.6-4.7-4.4-10.2-8.4-16.5c-2.9-10.5-6.2-21.5-9.9-32.7c-3.7-11.3-7.5-23-11.3-35.2c-2.3-7.2-5.4-15.9-9.5-26.2
		c-4-10.3-8.9-22.5-14.4-36.8l-12.6-9.5c-1.1-2.7-2.3-6.3-3.7-10.6s-3.3-9.2-5.8-14.8c-0.8-12.1-0.6-21.7,0.4-29
		c1.1-7.2,2.9-11.8,5.4-13.6c1.9-1.4,4-1.4,6.3,0.1c2.2,1.5,5,4.4,8.2,8.9c8.5,11.8,14.9,21.1,19.1,27.9c4.2,6.8,6.6,11.5,7.2,14
		c0.6,3.7,1.3,7.1,2.1,10.2c0.8,3.1,1.4,5.6,2,7.6l14,11.5c0.8,3.5,3,9.4,6.5,17.6c3.5,8.2,8.5,18.7,14.8,31.5
		c5.9,12.2,10.3,22.1,13.4,29.6c3.1,7.5,4.7,12.8,4.9,15.9c2.1,4.1,4,9.5,5.9,16.1c1.8,6.6,4,14.5,6.4,23.6
		c0.7,3.3,2.2,8.2,4.7,14.5c2.5,6.3,5.4,13.8,8.8,22.5c1.9,5.4,3.9,12,6.2,19.6c2.3,7.6,5.2,16.8,8.8,27.4
		c-0.1,3.9,0.4,8.7,1.7,14.2c1.2,5.6,3.4,12.1,6.4,19.6c1.3,3.8,2.7,9.6,4.4,17.3c1.6,7.8,3.9,17.7,6.7,29.8
		c2.9,12.6,4.8,22.5,5.7,29.9c0.9,7.3,0.9,11.7,0.2,13.1l-4,9.1c-0.2,3-1.1,5.8-3,8.1c-1.8,2.3-4.7,4.8-8.5,7.2
		c-1.9,4.6-3.8,8.5-5.6,11.5c-1.8,3-3.4,5.1-5,6.2c-7.3,5.3-15.3,6.7-24,4.1c-8.6-2.6-18.2-9.2-28.8-19.8
		c-6.6-7.9-13.2-15.8-20-23.7c-6.8-7.9-13.6-16-20.7-24.1c-3.5-4-8.3-9.1-14.4-15.4c-6.1-6.3-13.9-13.5-23.4-21.7
		c1.5,10.7,3.1,21.7,4.7,33c1.6,11.4,3.3,23.3,5.2,35.7c1.5,1.6,3.2,6.8,5.2,15.7c2,8.9,4.7,21.2,8.1,36.9c3.7,16.5,7,33.3,10,50.5
		c1,10.8,0.3,19.8-2.1,27.3c-2.4,7.5-6.8,13.5-13.2,18.1c-3.1,2.2-7.8,2-14.2-0.8c-6.4-2.7-14.6-8-24.6-15.8
		c-6.1-4.7-12.1-9.5-18.2-14.5c-6-4.9-12.2-9.9-18.6-15c-1-3.4-1.9-6.1-2.8-8.1c-3.3-1.7-7.4-4.4-12.2-8c-4.8-3.6-10.4-8-16.9-13.3
		c-3.5-3.7-8-8.3-13.6-14c-5.6-5.7-12.1-12.5-19.5-20.3c-2.2-2.6-4.3-5.2-6.5-7.8c-2.2-2.7-4.4-5.3-6.5-7.8c-1.7-2-3.9-3.9-6.6-5.8
		s-6.1-3.8-10.2-5.9c-1.2-0.9-3.6-3.5-7.2-7.8c-3.6-4.3-8.5-10.4-14.7-18.3c-4.9-6.4-9.5-11.5-13.6-15.1c-4.1-3.7-7.6-5.5-10.5-5.4
		l-12-0.1c-3.1-1.9-7.1-5.4-11.9-10.6c-4.8-5.2-10.2-12-16.2-20.3c-15.8-21.8-30.9-45.6-45.5-71.3C33.6,278,19.4,250.1,5.7,220.1
		c-3.5-7.7-4.8-14.6-3.8-20.6C2.8,193.5,5.9,188.6,11.2,184.9L11.2,184.9z"/>
	<path class="st1" d="M480.2,246.6c-0.5-4.4-0.4-9.2,0.1-14.5c0.5-5.2,1.7-11.1,3.5-17.7c-1.7-3.3-3.4-6.5-5-9.8
		c-1.6-3.2-3.5-6.4-5.5-9.5c-1-2.4-2.1-5.4-3.2-8.9c-1.1-3.5-2.2-7.3-3.4-11.5c-1-4.2-2.2-9.7-3.4-16.2c-1.2-6.6-2.2-14.2-2.9-23
		c0.7-5.7,1.2-11.8,1.7-18.4c0.5-6.6,0.9-13.1,1.3-19.8c0.7-2.5,1.5-5.1,2.6-7.6c1.1-2.6,2-5.3,2.9-8.2c1.4-1.9,3-3.9,4.9-5.9
		c1.9-2.1,4.2-4.1,6.9-6c3.7-2.7,7-4.5,9.8-5.4c2.8-0.9,5.7-1,8.4-0.3c1.9,0.4,4.2,1.5,6.9,3.2c2.7,1.7,5.7,3.9,9.1,6.7
		c2.6,2.7,5.5,5.6,8.6,8.7c-0.6-0.9-0.6-0.3,0,1.7c0.7,2,1.8,5.2,3.3,9.5l3.2,8.6c3.1,8.6,4.3,20.3,3.8,34.9
		c-0.5,14.6-2.6,32.4-6.3,53.4c-0.3,1.8-0.2,3.8,0.1,5.8c0.4,2.1,1.2,4,2.5,5.8c2.2,3.1,4.8,5.5,7.6,7c2.8,1.6,5.7,2.2,8.7,1.9
		c1.8,0,4.4-0.5,7.6-1.4c3.2-1,6.9-2.4,11-4.2c5.5-4.6,10.1-9.4,13.8-14.3c3.7-4.9,6.6-9.8,8.9-14.5c0.4-1,1.2-2.5,2.2-4.5
		c1-2,1.9-4.2,2.6-6.8c5,2.9,9.6,5.5,13.5,7.9c4,2.3,7.3,4.5,10,6.3c-2.5,14.5-5.6,26.3-9.5,35.5c-3.9,9.2-8.7,15.9-14.5,20.1
		c-1.3,3.2-3.2,6.2-5.8,9.1c-2.6,2.9-5.9,5.8-10.1,8.8c-5.5,4-11,6.7-16.4,8.1c-5.4,1.4-10.7,1.6-15.8,0.5c-2.5-0.4-5.6-1.5-9.2-3.4
		c-3.6-1.8-7.6-4.2-12.2-7c-3.7-2.3-6.7-3.8-9-4.5c-2.3-0.7-4.2-0.5-5.7,0.6c-1.2,0.8-2.1,2.4-2.8,4.6c-0.7,2.2-1.1,5-1.3,8.6
		c-2.2-1.8-5.2-3.8-9.1-6C491,252.5,486.2,249.8,480.2,246.6L480.2,246.6z M493.3,114.2c-3.3,2.4-4.6,9.8-3.9,22.3
		c0.7,12.5,2.5,20.8,5.3,24.8c0.6,0.9,1.3,1.4,1.9,1.5c0.6,0.1,1.5-0.3,2.7-1.1c1.6-1.2,2.4-3,2.2-5.5c-0.2-2.5-0.4-4.8-0.6-6.9
		c0.6-2.7,1-5.4,1.3-8.3c0.3-2.8,0.7-5.6,1-8.3c0.3-3.4,0.1-6.4-0.5-9.1c-0.6-2.7-1.7-5.1-3.2-7.2c-1-1.4-2-2.2-3.1-2.7
		C495.4,113.3,494.4,113.5,493.3,114.2L493.3,114.2z"/>
	<path class="st1" d="M467.9,609.3l0.2-2.5l-0.9-2.7c0.3-5.2,0.8-9.4,1.4-12.7c0.6-3.2,1-5.8,1.3-7.6c0.2-1.3,1.2-3.4,2.8-6.4
		s4-7,7-11.9l1.6-3.9c-0.1-2.4,0-6.1,0.4-11.2c0.4-5.1,1-10.9,1.9-17.6c0.1-1.4,0.5-3.2,1.3-5.3c0.7-2.1,1.3-4.6,1.8-7.4
		c1.1-6,2.1-12.1,3.1-18.3c0.9-6.2,1.7-12.2,2.2-18.1c0.4-2.3,1.4-6.7,3-13.2c1.6-6.5,3.8-15.5,6.4-26.9c0.5-1.5,1.6-3.9,3.2-7.3
		c1.7-3.3,4-7.5,6.9-12.6c1.3-2.3,1.7-4.8,1.2-7.5c-0.5-2.7-1.9-5.6-4.1-8.7c-0.2-2.8-0.7-6-1.6-9.5c-0.9-3.5-2.1-7.6-3.8-12
		c-1.8-5.7-3.4-10.3-4.7-13.8c-1.3-3.5-2.1-5.9-2.4-7.3c-2.3-8.5-4.5-18.8-6.7-31s-4.5-26.1-6.9-42c-1.4-8.2-2.8-17.5-4.2-27.9
		c-0.2-5.5,0.7-10.4,2.5-14.5c1.8-4.1,4.4-7.4,7.8-9.9c2.7-1.9,5.4-2.3,8.2-1.2c2.8,1.2,5.6,3.8,8.5,7.8c4.6,6.4,8.6,12.8,11.9,19.3
		c3.3,6.5,5.6,13.1,6.8,19.8c0.3,1.4,1.1,3.2,2.3,5.5c1.2,2.3,2.7,5,4.6,8.2c1.4,2.2,2.3,4.6,2.7,7.2c0.4,2.6,0.5,5.3,0.2,8
		c0.8,1,1.5,2.4,2.2,4c0.7,1.6,1.6,3.5,2.7,5.7l-0.2,6.3c0.3,1.1,1,2.3,1.9,3.5l2.8,3.9c0.6,0.9,1.4,3,2.2,6.4
		c0.8,3.4,1.9,8.2,3.3,14.4c1.3,6.8,2.3,12.2,3,16.2c0.7,4,1.3,6.4,1.7,7.3c-0.1,1.2,0,2.9,0.2,5.3c0.2,2.3,0.4,5,0.6,8.1l4.2,4.4
		l22.8,61.6c4.1,5.7,7.6,10.4,10.7,14.3c3,3.9,5.8,6.8,8.3,8.6c2.6,2,6,4.2,10.4,6.6c4.3,2.4,9.3,4.7,15,7c3.7,1.6,7.1,2.3,10.2,1.9
		c3.1-0.3,6-1.4,8.5-3.2c2.8-2,5.1-4.9,6.9-8.5c1.8-3.7,3-8.2,3.6-13.6c4.6,2.6,8.9,5,12.9,7.3c4,2.3,7.6,4.6,10.8,6.8
		c-0.4,1-0.9,3.7-1.5,8c-0.6,4.4-1.2,10.4-1.7,18c-0.3,4.5-1.8,8.7-4.4,12.5c-2.6,3.8-6.4,7.5-11.5,11.2
		c-11.2,8.1-22.3,11.7-33.5,11c-11.2-0.8-22.4-5.9-33.6-15.5c-2.3-1.9-4.3-3.7-6.1-5.1c-1.7-1.5-3.4-2.8-4.9-3.9
		c-3.1-2.1-7.1-3.8-12-5.3c0,2.2,0,3.9,0,5.1c-0.9,2.5-1.7,5.6-2.2,9.4c-0.5,3.8-0.7,8.2-0.5,13.2c0.6,1.8,1.1,4.2,1.5,7.2
		s0.6,6.8,0.7,11.2c-0.8,8.9-1.6,18-2.5,27.1c-0.9,9.1-1.8,18.1-2.9,27c-1.3,12.3-3.6,22.2-6.7,29.8s-6.8,12.9-10.9,15.9
		c-7.4,5.4-14.2,7.6-20.3,6.7c-6.1-0.9-11.8-5.1-17.2-12.5c-2.5-3.4-4.7-9.1-6.6-17.1c-1.9-8-4-13.5-6.1-16.5l-3.9-2.6L467.9,609.3
		L467.9,609.3z M533.4,477.6c-0.5-0.8-1.7-1.6-3.3-2.7c-0.6,3.8-1.5,8.4-2.6,13.8c-1.1,5.3-2.6,11.4-4.5,18.2c0.7,3.1,1,8.6,1,16.4
		c0,7.8-0.6,17.9-1.9,30.3c-0.3,3.6-0.2,9.3,0.5,17.1c0.7,7.8,1.4,17.3,2.4,28.7c0.6,4.3,1.6,9.3,3.1,15.1c0.6,0.9,1.9,1.4,3.9,1.6
		c3.5-4.6,6.2-12.4,8-23.5c1.8-11.2,3-25.7,3.7-43.6c0.4-18.9-0.2-34.2-1.9-46S537.2,482.9,533.4,477.6L533.4,477.6z"/>
</g>
</svg>
