<svg id="Layer_1" data-name="Layer 1" xmlns="http://www.w3.org/2000/svg" viewBox="0 0 129.02 129.99"><defs><style>.cls-1{fill:none;stroke:#eaeade;stroke-miterlimit:10;stroke-width:10px;}.cls-2{fill:#eaeade;}</style></defs><path class="cls-1" d="M5,33V97.9c-.25,17.82,9.53,26.81,29,27.09H98.13c12.63-.68,23.12-5.8,25.87-23V33c.43-16-7.47-25.37-24-28H27.84C12.36,7.76,5.81,17.56,5,33Z"/><circle class="cls-1" cx="65" cy="64.99" r="27"/><path class="cls-2" d="M98.89,36.79c3.93,0,7.69-3.45,7.5-7.5a7.61,7.61,0,0,0-7.5-7.5c-3.92,0-7.68,3.45-7.5,7.5A7.64,7.64,0,0,0,98.89,36.79Z"/></svg>