<svg id="Layer_1" data-name="Layer 1" xmlns="http://www.w3.org/2000/svg" viewBox="0 0 566.93 566.93"><defs><style>.cls-1{fill:none;stroke:#eaeade;stroke-miterlimit:10;stroke-width:10px;}.cls-2{fill:#eaeade;}</style></defs><path class="cls-1" d="M224.25,251V315.9c-.25,17.82,9.53,26.81,29,27.09h64.13c12.63-.68,23.12-5.8,25.87-23V251c.43-16-7.47-25.37-24-28H247.09C231.61,225.76,225.06,235.56,224.25,251Z"/><circle class="cls-1" cx="284.25" cy="282.99" r="27"/><path class="cls-2" d="M318.14,254.79c3.93,0,7.69-3.45,7.5-7.5a7.62,7.62,0,0,0-7.5-7.5c-3.92,0-7.68,3.45-7.5,7.5a7.64,7.64,0,0,0,7.5,7.5Z"/></svg>