<svg id="Layer_1" data-name="Layer 1" xmlns="http://www.w3.org/2000/svg" viewBox="0 0 129.02 129.99"><defs><style>.cls-1{fill:none;stroke:#eaeade;stroke-miterlimit:10;stroke-width:10px;}.cls-2{fill:#eaeade;}</style></defs><path class="cls-1" d="M5,33V97.9c-.25,17.82,9.53,26.81,29,27.09H98.12c12.63-.68,23.12-5.8,25.88-23V33c.42-16-7.47-25.37-24-28H27.8C12.36,7.76,5.8,17.56,5,33Z"/><path class="cls-2" d="M43.11,36.26c0,3.6-2.6,6.5-6.87,6.5a6.51,6.51,0,1,1,6.87-6.5Zm-12.76,61V49.59h12V97.22Z"/><path class="cls-2" d="M55.4,63.76c0-5.51-.18-10-.39-14.17H65.53l.59,7.15h.28a17.37,17.37,0,0,1,15.18-8.22c8.31,0,16.93,5.34,16.93,20.41V97.22h-12V70.35c0-6.84-2.51-12-9.09-12a10,10,0,0,0-9.37,7.06,12.12,12.12,0,0,0-.55,3.83v28h-12Z"/></svg>