<svg id="Layer_1" data-name="Layer 1" xmlns="http://www.w3.org/2000/svg" viewBox="0 0 566.93 566.93"><defs><style>.cls-1{fill:none;stroke:#eaeade;stroke-miterlimit:10;stroke-width:10px;}.cls-2{fill:#eaeade;}</style></defs><path class="cls-1" d="M208.2,251V315.9c-.25,17.82,9.53,26.81,29,27.09h64.12c12.63-.68,23.12-5.8,25.88-23V251c.42-16-7.47-25.37-24-28H231C215.56,225.76,209,235.56,208.2,251Z"/><path class="cls-2" d="M246.31,254.26c0,3.6-2.6,6.5-6.87,6.5a6.51,6.51,0,1,1,6.87-6.5Zm-12.76,61V267.59h12v47.63Z"/><path class="cls-2" d="M258.6,281.76c0-5.51-.18-10-.39-14.17h10.52l.59,7.15h.28a17.36,17.36,0,0,1,15.18-8.22c8.31,0,16.93,5.34,16.93,20.41v28.29h-12V288.35c0-6.84-2.51-12-9.09-12a10,10,0,0,0-9.37,7.06,11.91,11.91,0,0,0-.55,3.83v28h-12Z"/></svg>