<svg id="Layer_1" data-name="Layer 1" xmlns="http://www.w3.org/2000/svg" viewBox="0 0 841.89 595.28"><defs><style>.cls-1,.cls-2{fill:#eaeade;}.cls-2{font-size:38.39px;font-family:CenturyGothic-Bold, Century Gothic;font-weight:700;}</style></defs><path class="cls-1" d="M273.9,236.38a6,6,0,0,1,2.33.41,4.85,4.85,0,0,1,1.6,1,7.59,7.59,0,0,1,1.09,1.46c.35.61.8,1.34,1.34,2.22.66,1.21,1.14,2.13,1.43,2.77a4.4,4.4,0,0,1,.44,1.28q-.44,3.62-.81,6.93-.26,3.48-.81,7.17a19.21,19.21,0,0,0-.44,1.93c.17,1,.3,2.14.41,3.31s.17,2.32.21,3.49c.09.91.13,1.94.13,3.08s0,2.45-.13,3.9c0,1.83-.08,3.32-.12,4.46s-.06,1.92-.06,2.34a9.65,9.65,0,0,0,.06,1,7.66,7.66,0,0,0,.25,1.25c.08.58.23,1.31.44,2.18v3.93a104.2,104.2,0,0,0,1.52,11q1.46,8.61,1.91,9.23a6.32,6.32,0,0,1,.74-.37l4.86-8.73c.25-.71.57-1.61,1-2.72s.86-2.37,1.4-3.83A81,81,0,0,0,298,280.76a214.25,214.25,0,0,0,4.71-20.93,19,19,0,0,1,2-5.55,5,5,0,0,1,2.71-2.49l5.54-2a4.16,4.16,0,0,1,2.06,1.53,4.58,4.58,0,0,1,.63,2.53,45,45,0,0,1-.69,6.26q-.69,4.33-2.12,10.89c0,.95-.15,2.14-.33,3.55s-.39,3.08-.64,5c-.33,1.5-.59,2.68-.78,3.56a12.54,12.54,0,0,0-.28,1.62c0,1.08,0,2.32.07,3.71s.08,3,.12,4.71c.08,2.12.13,3.88.13,5.3v3q.06,4.19.28,6.33c.14,1.44.34,2.15.59,2.15.41,0,1.07-.89,2-2.68a79.36,79.36,0,0,0,3.27-8.11q1.56-4.11,2.83-7.79c.86-2.46,1.61-4.76,2.28-6.92a5,5,0,0,0,1-1.94,14.33,14.33,0,0,0,.5-3.18q1-2.69,1.93-5.64c.63-2,1.29-4,2-6.14q.62-1.87,1.34-4.68t1.71-6.68l-.81-2.61c.12-.5.31-1.13.56-1.88a20.75,20.75,0,0,0,.68-2.68,25.44,25.44,0,0,1,3-4c.89-.91,1.6-1.37,2.14-1.37a.89.89,0,0,1,.88.65,6.57,6.57,0,0,1,.25,2.09c0,2.54-.06,4.5-.16,5.9a11.64,11.64,0,0,1-.4,2.71,16.53,16.53,0,0,0-.75,1.65c-.21.52-.38.95-.5,1.28l.81,3.05a21.23,21.23,0,0,0-.88,3.15q-.5,2.28-1.12,6c-.41,2.33-.79,4.18-1.12,5.55a10.31,10.31,0,0,1-.93,2.74,15.66,15.66,0,0,1-.82,2.87c-.41,1.12-.91,2.46-1.49,4a15.3,15.3,0,0,0-.81,2.52c-.29,1.14-.65,2.51-1.06,4.08-.29,1-.67,2.09-1.13,3.4s-1,2.9-1.55,4.77a10.11,10.11,0,0,0-1.22,2.19,20.84,20.84,0,0,0-1.09,3.43c-.21.66-.6,1.63-1.16,2.9s-1.25,2.9-2.09,4.89a51.17,51.17,0,0,1-2.24,4.8,5.85,5.85,0,0,1-1.31,1.88l-1.5.87a2.47,2.47,0,0,1-1.24.84,5.9,5.9,0,0,1-1.94.16,19.21,19.21,0,0,1-2,1.06,3.73,3.73,0,0,1-1.34.37,4.56,4.56,0,0,1-3.81-1.87,12.92,12.92,0,0,1-2.05-5.74c-.13-1.79-.27-3.58-.41-5.39s-.3-3.65-.47-5.52c-.08-.92-.24-2.13-.47-3.65s-.59-3.34-1.09-5.46c-.87,1.67-1.77,3.38-2.71,5.15s-1.9,3.63-2.9,5.58a8.25,8.25,0,0,1-.87,2.74q-.94,2.19-2.62,6c-1.17,2.71-2.41,5.43-3.74,8.17a12.13,12.13,0,0,1-3.09,3.65,6.11,6.11,0,0,1-3.71,1.22c-.67,0-1.31-.52-1.94-1.56a21,21,0,0,1-1.87-4.74c-.38-1.29-.75-2.59-1.1-3.9s-.72-2.65-1.09-4a13.91,13.91,0,0,0,.44-1.43,15.61,15.61,0,0,1-.91-2.38c-.31-1-.66-2.2-1-3.61-.13-.88-.29-2-.5-3.37s-.44-3-.69-4.86c0-.59-.08-1.18-.13-1.78s-.08-1.2-.12-1.78a6.64,6.64,0,0,0-.34-1.5,13.63,13.63,0,0,0-.85-1.87,10.86,10.86,0,0,1-.22-1.84c-.06-1-.13-2.34-.21-4.08a19.69,19.69,0,0,0-.38-3.52,3,3,0,0,0-.94-1.84L267,278.92a10.63,10.63,0,0,1-.6-2.72,40.42,40.42,0,0,1-.22-4.52A135.25,135.25,0,0,1,267,257q.86-7.68,2.53-16.16a6.3,6.3,0,0,1,1.56-3.3A3.81,3.81,0,0,1,273.9,236.38Z"/><path class="cls-1" d="M333.94,293a12.74,12.74,0,0,1,1.48-2,18.23,18.23,0,0,1,2.31-2.13c.09-.64.19-1.27.29-1.9s.16-1.25.19-1.89a12.82,12.82,0,0,1,.46-1.59c.2-.6.43-1.26.69-2s.68-1.59,1.18-2.65a38.1,38.1,0,0,1,1.94-3.55c.67-.73,1.38-1.54,2.11-2.42s1.47-1.77,2.21-2.67a13,13,0,0,1,1.15-.81c.42-.26.83-.54,1.25-.86a11.61,11.61,0,0,1,1.3-.34,7.81,7.81,0,0,1,1.58-.14,6.55,6.55,0,0,1,1.95.24,2.63,2.63,0,0,1,1.22.81,4.38,4.38,0,0,1,.65,1.15,17.36,17.36,0,0,1,.6,1.87c.09.65.2,1.35.33,2.12,0-.2-.05-.11-.17.24s-.28.91-.5,1.68l-.43,1.53a16.81,16.81,0,0,1-3,5.33,69.39,69.39,0,0,1-6.33,6.91,3.05,3.05,0,0,0-.58.84,2.51,2.51,0,0,0-.24,1.08,4.16,4.16,0,0,0,.36,1.78,2.52,2.52,0,0,0,1,1.15,5.09,5.09,0,0,0,1.23.58,15.3,15.3,0,0,0,2,.52,15.1,15.1,0,0,0,3.41-.62,14.65,14.65,0,0,0,2.74-1.15c.15-.1.41-.23.76-.41a5.69,5.69,0,0,0,1.06-.7l1.1,2.5c.32.74.58,1.38.77,1.92a29.35,29.35,0,0,1-5,4.06,8,8,0,0,1-4.1,1.36,5.44,5.44,0,0,1-1.75.7,10.66,10.66,0,0,1-2.33.22,8.81,8.81,0,0,1-3.15-.53,5.8,5.8,0,0,1-2.28-1.54,6,6,0,0,1-1-1.41c-.32-.63-.65-1.37-1-2.24a6.88,6.88,0,0,0-.82-1.55,1.08,1.08,0,0,0-.86-.51,1.5,1.5,0,0,0-.87.36,6,6,0,0,0-1.05,1.08,11.84,11.84,0,0,0-.67-1.77C334.86,294.91,334.45,294,333.94,293Zm15.36-17.38c-.71,0-1.65.92-2.84,2.76s-1.77,3.19-1.77,4a.56.56,0,0,0,.12.41.74.74,0,0,0,.5.12,1,1,0,0,0,.87-.55l.62-1c.35-.32.7-.67,1-1l1-1.08a5.35,5.35,0,0,0,.86-1.35,3.41,3.41,0,0,0,.29-1.34,1.32,1.32,0,0,0-.17-.7A.56.56,0,0,0,349.3,275.59Z"/><path class="cls-1" d="M295.18,343l.29-.34.14-.48a19.78,19.78,0,0,1,1.49-1.65c.42-.4.73-.71,1-.94a4,4,0,0,1,1.06-.62c.54-.26,1.27-.58,2.2-1l.63-.39a14.22,14.22,0,0,1,1.2-1.53c.57-.67,1.26-1.44,2.06-2.31a3.65,3.65,0,0,1,.72-.62,6.84,6.84,0,0,0,1-.87c.77-.73,1.53-1.49,2.3-2.28s1.49-1.56,2.16-2.32c.29-.29.88-.81,1.78-1.56s2.11-1.8,3.65-3.15a10.54,10.54,0,0,1,1.2-.69c.57-.31,1.33-.67,2.25-1.08a1.91,1.91,0,0,0,.94-.94,3.77,3.77,0,0,0,.31-1.65,10.77,10.77,0,0,0,.75-1.52A20.49,20.49,0,0,0,323,315c.32-1,.57-1.79.75-2.42s.31-1,.4-1.27c.55-1.44,1.28-3.13,2.21-5.06s2-4.16,3.31-6.65c.64-1.31,1.4-2.77,2.26-4.37a5.86,5.86,0,0,1,1.82-1.8,4.08,4.08,0,0,1,2.12-.6,1.39,1.39,0,0,1,1.27.67,3.89,3.89,0,0,1,.4,2,26.19,26.19,0,0,1-.28,3.94,13.17,13.17,0,0,1-1.06,3.5,3.83,3.83,0,0,0-.24,1c-.06.45-.13,1-.19,1.63a3.38,3.38,0,0,1-.36,1.3,5.23,5.23,0,0,1-.79,1.15,4.25,4.25,0,0,1-.1.79c-.07.31-.13.66-.19,1.08l-.67.86a2.11,2.11,0,0,0-.1.7v.84a3.82,3.82,0,0,1-.34,1.13c-.22.56-.56,1.35-1,2.37s-.92,2-1.23,2.6a7.87,7.87,0,0,0-.5,1.2,6.89,6.89,0,0,0-.51.76c-.2.36-.45.76-.74,1.2l.14,1.06-3.07,11c0,1.22,0,2.26.05,3.12a8,8,0,0,0,.29,2.06,14.25,14.25,0,0,0,.79,2,22.44,22.44,0,0,0,1.42,2.52,3.47,3.47,0,0,0,1.25,1.32,3,3,0,0,0,1.53.4,4,4,0,0,0,1.85-.5,7.56,7.56,0,0,0,1.89-1.56c.39.83.75,1.61,1.08,2.35s.62,1.42.84,2.06a8.2,8.2,0,0,0-1,1c-.53.56-1.22,1.35-2.09,2.37a4.33,4.33,0,0,1-1.89,1.32,8,8,0,0,1-2.76.41,8.88,8.88,0,0,1-5.86-1.87,10.13,10.13,0,0,1-3.16-5.62c-.13-.51-.25-1-.34-1.34s-.19-.74-.29-1.06a7.63,7.63,0,0,0-1.15-2c-.22.32-.4.56-.53.72a7.7,7.7,0,0,0-1.27,1.1,12.42,12.42,0,0,0-1.42,1.83,6.33,6.33,0,0,1-.52,1.17c-.26.46-.61,1-1.06,1.66-1,1.18-2.06,2.37-3.12,3.57s-2.11,2.38-3.17,3.53a19.4,19.4,0,0,1-4,3.53,6.35,6.35,0,0,1-3.17,1.13,4.91,4.91,0,0,1-3.55-1.13,4.75,4.75,0,0,1-1.15-3.53,9,9,0,0,1,.81-3.1,8.71,8.71,0,0,0,.82-2.95l-.29-.77Zm22.7-11.94a2.12,2.12,0,0,0-.19-.72c-.48.48-1.07,1-1.78,1.68s-1.53,1.34-2.49,2.11a16,16,0,0,1-1.54,2.42q-1.2,1.67-3.36,4.11a19.41,19.41,0,0,0-1.68,2.47l-2.59,4.3a25.86,25.86,0,0,0-1.1,2.44.87.87,0,0,0,.38.63,9.56,9.56,0,0,0,3.53-2.52,63.77,63.77,0,0,0,5-5.79,49.34,49.34,0,0,0,4.42-6.69A10.38,10.38,0,0,0,317.88,331.08Z"/><text class="cls-2" transform="translate(372.3 317.16)">WEDESIGN</text></svg>