<svg id="Layer_1" data-name="Layer 1" xmlns="http://www.w3.org/2000/svg" viewBox="0 0 600 600"><defs><style>.cls-1{fill:#ef7846;}</style></defs><path class="cls-1" d="M114,9.26a28.64,28.64,0,0,1,11.09,1.93,23.18,23.18,0,0,1,7.55,4.88,34.86,34.86,0,0,1,5.18,7c1.68,2.87,3.8,6.36,6.36,10.52q4.74,8.58,6.81,13.16c1.38,3,2.07,5.08,2.07,6.07Q151,69.94,149.23,85.67q-1.2,16.56-3.85,34a90,90,0,0,0-2.07,9.17c.78,4.94,1.43,10.17,1.92,15.69s.84,11,1,16.57c.39,4.35.59,9.22.59,14.65s-.2,11.59-.59,18.5q-.3,13-.6,21.15t-.27,11.09a44,44,0,0,0,.29,4.73,38.55,38.55,0,0,0,1.19,5.92q.57,4.14,2.07,10.35v18.64q.28,11.26,7.22,52.09t9.06,43.8a28.51,28.51,0,0,1,3.54-1.77l23.06-41.43q1.77-5,4.58-12.88t6.65-18.2q13.33-26.07,25.34-67.91t22.32-99.3Q254.22,104,260,94.2t12.85-11.84l26.32-9.47q6.81,2.67,9.77,7.25t3,12q0,9.19-3.26,29.75t-10.05,51.64q-.3,6.81-1.57,16.86l-3,23.68q-2.37,10.65-3.7,16.87a54.15,54.15,0,0,0-1.34,7.7c0,5.13.11,11,.3,17.6s.39,14.07.6,22.35c.39,10.05.59,18.45.59,25.15V318q.28,19.83,1.33,30t2.81,10.22q3,0,9.31-12.74T319.36,307q7.38-19.53,13.45-37t10.78-32.85a23.82,23.82,0,0,0,4.74-9.18,70.15,70.15,0,0,0,2.35-15.1q4.74-12.72,9.17-26.77t9.51-29.14q2.94-8.88,6.35-22.2t8.14-31.66l-3.91-12.41q.9-3.56,2.67-8.88a109.26,109.26,0,0,0,3.25-12.72q8-12.72,14.34-19.24t10.16-6.53a4.2,4.2,0,0,1,4.14,3.11c.8,2.06,1.18,5.38,1.18,9.91q0,18.06-.73,28c-.49,6.61-1.14,10.9-1.92,12.87-1.39,2.76-2.58,5.38-3.55,7.84s-1.78,4.49-2.37,6.06L411,125.6q-1.77,4.14-4.14,15t-5.33,28.26q-3,16.58-5.33,26.33t-4.43,13a75,75,0,0,1-3.85,13.62c-2,5.32-4.34,11.65-7.11,18.94a74.49,74.49,0,0,0-3.84,12q-2.07,8.16-5,19.38-2.07,6.81-5.33,16.13t-7.39,22.65a48.2,48.2,0,0,0-5.77,10.36,100,100,0,0,0-5.19,16.27,144.27,144.27,0,0,1-5.47,13.76q-4,9-9.92,23.24a248.14,248.14,0,0,1-10.65,22.78q-4.44,8-6.21,8.88l-7.1,4.14a11.68,11.68,0,0,1-5.92,4,28.38,28.38,0,0,1-9.18.75,81,81,0,0,1-9.32,5,17.11,17.11,0,0,1-6.36,1.79,21.63,21.63,0,0,1-18.06-8.89q-6.8-8.88-9.76-27.23-.93-12.73-1.93-25.61t-2.21-26.19q-.6-6.51-2.23-17.32t-5.18-25.92q-6.21,11.83-12.87,24.42t-13.76,26.48c.19,1.78-1.18,6.13-4.14,13s-7.11,16.48-12.43,28.7q-8.28,19.25-17.76,38.78-6.81,11.54-14.65,17.31a29,29,0,0,1-17.6,5.77q-4.74,0-9.2-7.4t-8.89-22.49q-2.7-9.18-5.19-18.49t-5.2-19.08a64.27,64.27,0,0,0,2.08-6.8,77,77,0,0,1-4.3-11.26q-2.22-7.11-4.89-17.15c-.6-4.16-1.39-9.47-2.38-16s-2.07-14.2-3.26-23.07q-.3-4.14-.59-8.43t-.6-8.44a30.88,30.88,0,0,0-1.63-7.1,65,65,0,0,0-4-8.88c-.4-1.19-.74-4.1-1-8.73s-.64-11.11-1-19.39a92,92,0,0,0-1.78-16.71c-1-4.45-2.47-7.35-4.44-8.73l-8-5.92q-1.91-4.12-2.9-12.84a185.23,185.23,0,0,1-1-21.45,639.07,639.07,0,0,1,4-69.84q4-36.42,12-76.65,2.07-10.35,7.4-15.68A18.09,18.09,0,0,1,114,9.26Z"/><path class="cls-1" d="M398.92,277.8a58.21,58.21,0,0,1,7.06-9.68A85.42,85.42,0,0,1,416.92,258c.45-3,.91-6,1.36-9a87.64,87.64,0,0,0,.91-9,67.77,67.77,0,0,1,2.17-7.51c1-2.88,2.08-6,3.3-9.33s3.23-7.51,5.58-12.53a177.54,177.54,0,0,1,9.23-16.85q4.77-5.25,10-11.51t10.47-12.64a50,50,0,0,1,5.47-3.87c2-1.26,4-2.61,5.95-4.07a49.85,49.85,0,0,1,6.14-1.59,37.86,37.86,0,0,1,7.52-.69,30.68,30.68,0,0,1,9.23,1.14,12.32,12.32,0,0,1,5.8,3.87,20.49,20.49,0,0,1,3.08,5.47,76.48,76.48,0,0,1,2.85,8.88c.44,3,1,6.38,1.59,10,0-.91-.27-.53-.8,1.14s-1.33,4.33-2.39,8l-2,7.29q-3.19,10.94-14.35,25.29T458,263.26a14,14,0,0,0-2.73,4,11.63,11.63,0,0,0-1.13,5.12,19.43,19.43,0,0,0,1.7,8.43,11.86,11.86,0,0,0,4.9,5.46,21.42,21.42,0,0,0,5.8,2.74,78.88,78.88,0,0,0,9.46,2.51,73.54,73.54,0,0,0,16.17-3,69.92,69.92,0,0,0,13-5.47c.75-.46,2-1.11,3.64-1.93a28.14,28.14,0,0,0,5-3.31c2,4.41,3.73,8.36,5.25,11.84s2.73,6.54,3.64,9.12q-13,12.75-23.58,19.24t-19.46,6.49a26.15,26.15,0,0,1-8.32,3.3,51.42,51.42,0,0,1-11,1,41.21,41.21,0,0,1-14.92-2.51A27.56,27.56,0,0,1,434.56,319a26.61,26.61,0,0,1-4.56-6.71c-1.51-3-3.11-6.49-4.77-10.6a34.93,34.93,0,0,0-3.87-7.39,5.22,5.22,0,0,0-4.11-2.4,7.08,7.08,0,0,0-4.09,1.71,28.56,28.56,0,0,0-5,5.13,57.46,57.46,0,0,0-3.18-8.43Q402.55,285.32,398.92,277.8Zm72.88-82.5q-5,0-13.43,13.09t-8.43,19.28a2.67,2.67,0,0,0,.58,1.94,3.45,3.45,0,0,0,2.38.57,4.72,4.72,0,0,0,4.1-2.61q1.59-2.62,3-4.9c1.67-1.52,3.31-3.15,4.9-4.9l4.67-5.12a25.37,25.37,0,0,0,4.1-6.38,16.28,16.28,0,0,0,1.37-6.38,6.14,6.14,0,0,0-.79-3.3A2.69,2.69,0,0,0,471.8,195.3Z"/><path class="cls-1" d="M215,515.27l1.35-1.6.68-2.27a90.71,90.71,0,0,1,7.07-7.86c2-1.9,3.48-3.38,4.55-4.45a20.63,20.63,0,0,1,5-3c2.59-1.21,6.07-2.73,10.48-4.55l3-1.82a70.37,70.37,0,0,1,5.7-7.29q4.09-4.79,9.79-10.94a16.93,16.93,0,0,1,3.42-2.95,38.11,38.11,0,0,0,4.78-4.11q5.46-5.24,10.93-10.82T292,442.56q2.06-2,8.43-7.39t17.31-14.92a56.49,56.49,0,0,1,5.69-3.3q4.11-2.18,10.71-5.13a9,9,0,0,0,4.44-4.44,18.28,18.28,0,0,0,1.48-7.86,51.27,51.27,0,0,0,3.53-7.17,98.6,98.6,0,0,0,3.31-9.92c1.5-4.7,2.69-8.54,3.53-11.49a52.39,52.39,0,0,1,1.93-6q3.87-10.24,10.47-24t15.72-31.55q4.53-9.33,10.7-20.73a28,28,0,0,1,8.67-8.54,19.39,19.39,0,0,1,10-2.84,6.56,6.56,0,0,1,6,3.18c1.29,2.14,1.94,5.25,1.94,9.35a124.11,124.11,0,0,1-1.37,18.67,60.39,60.39,0,0,1-5,16.63,19.45,19.45,0,0,0-1.14,4.76c-.3,2.13-.61,4.71-.91,7.75a16.34,16.34,0,0,1-1.71,6.15,24.74,24.74,0,0,1-3.76,5.47,19.71,19.71,0,0,1-.45,3.75c-.31,1.45-.61,3.15-.91,5.13l-3.2,4.1a10.52,10.52,0,0,0-.44,3.3v4a19.21,19.21,0,0,1-1.6,5.35q-1.61,4-4.78,11.28-3.66,7.75-5.82,12.3a36.78,36.78,0,0,0-2.38,5.69,31.37,31.37,0,0,0-2.39,3.65c-1,1.67-2.18,3.56-3.54,5.69l.69,5-14.58,52.38q0,8.67.22,14.81a38.12,38.12,0,0,0,1.38,9.79,65.66,65.66,0,0,0,3.75,9.45,103,103,0,0,0,6.72,12,16.24,16.24,0,0,0,5.93,6.27,14.53,14.53,0,0,0,7.29,1.93,18.47,18.47,0,0,0,8.76-2.39,35.07,35.07,0,0,0,9-7.41c1.83,4,3.54,7.67,5.13,11.16s2.92,6.76,4,9.8a35.41,35.41,0,0,0-4.89,4.67q-3.75,4-9.91,11.27a20.77,20.77,0,0,1-9,6.26,38.63,38.63,0,0,1-13.1,1.94q-17.08,0-27.79-8.88t-15-26.65c-.61-2.43-1.14-4.55-1.59-6.38s-.92-3.49-1.37-5a36.29,36.29,0,0,0-5.47-9.33c-1.06,1.51-1.9,2.65-2.5,3.41a38.41,38.41,0,0,0-6,5.24,57.29,57.29,0,0,0-6.71,8.66,32.4,32.4,0,0,1-2.51,5.57,90.72,90.72,0,0,1-5,7.86q-7.32,8.43-14.81,17t-15,16.74q-10.26,11.4-18.91,16.74t-15,5.36q-11.38,0-16.85-5.36t-5.47-16.74q0-5.24,3.87-14.69t3.87-14l-1.36-3.64Zm107.73-56.66a10.92,10.92,0,0,0-.92-3.41q-3.42,3.41-8.43,8c-3.34,3.06-7.29,6.38-11.84,10-1.06,2.44-3.5,6.26-7.29,11.51s-9.11,11.71-15.9,19.46a91.57,91.57,0,0,0-8,11.73l-12.29,20.39a120.87,120.87,0,0,0-5.24,11.61c0,.91.6,1.9,1.82,3q6.82-2.05,16.74-12A304.91,304.91,0,0,0,295,511.46q14.13-18.68,21-31.77t6.83-21.08Z"/></svg>