<svg id="Layer_1" data-name="Layer 1" xmlns="http://www.w3.org/2000/svg" viewBox="0 0 792 612"><defs><style>.cls-1{fill:#eaeade;}</style></defs><path class="cls-1" d="M347.19,248.59a5.69,5.69,0,0,1,2.19.38,4.56,4.56,0,0,1,1.49,1,6.87,6.87,0,0,1,1,1.37c.33.57.75,1.26,1.26,2.08.62,1.13,1.07,2,1.34,2.6a4,4,0,0,1,.41,1.19c-.27,2.26-.53,4.42-.76,6.48s-.41,4.42-.76,6.72a16.92,16.92,0,0,0-.41,1.81c.16,1,.28,2,.38,3.09s.17,2.18.21,3.27c.07.86.11,1.82.11,2.89s0,2.29-.11,3.65q-.06,2.57-.12,4.17t-.06,2.19a8.61,8.61,0,0,0,.06.94,8.46,8.46,0,0,0,.23,1.16c.08.55.22,1.23.41,2v3.67a97.87,97.87,0,0,0,1.43,10.28q1.37,8.06,1.78,8.64a7.54,7.54,0,0,1,.7-.35l4.55-8.17c.23-.66.53-1.51.9-2.54s.81-2.23,1.32-3.59a75.68,75.68,0,0,0,5-13.4,199.2,199.2,0,0,0,4.4-19.59,17.53,17.53,0,0,1,1.84-5.19,4.69,4.69,0,0,1,2.54-2.34l5.19-1.87a3.93,3.93,0,0,1,1.93,1.43,4.4,4.4,0,0,1,.58,2.37,42.15,42.15,0,0,1-.64,5.86q-.65,4.06-2,10.19c0,.9-.14,2-.31,3.33l-.6,4.67c-.31,1.4-.56,2.51-.73,3.33a10.22,10.22,0,0,0-.27,1.52c0,1,0,2.16.06,3.47s.08,2.77.12,4.41c.08,2,.12,3.64.12,5v2.8c0,2.61.12,4.58.26,5.93s.32,2,.55,2c.39,0,1-.84,1.84-2.51a70.43,70.43,0,0,0,3.06-7.59q1.46-3.85,2.66-7.3t2.12-6.48a4.65,4.65,0,0,0,.94-1.81,14.07,14.07,0,0,0,.46-3c.62-1.68,1.23-3.44,1.81-5.29s1.2-3.76,1.87-5.75c.38-1.17.8-2.62,1.25-4.38l1.6-6.24-.76-2.45c.12-.47.3-1.06.53-1.76a20.62,20.62,0,0,0,.64-2.51,23.28,23.28,0,0,1,2.83-3.79c.84-.86,1.5-1.29,2-1.29a.84.84,0,0,1,.82.62,6.11,6.11,0,0,1,.23,2c0,2.38,0,4.22-.14,5.52a11.17,11.17,0,0,1-.38,2.54,16.8,16.8,0,0,0-.7,1.55c-.2.48-.36.88-.47,1.19l.76,2.86a18.08,18.08,0,0,0-.82,3q-.46,2.13-1,5.58-.59,3.27-1.05,5.19a9.73,9.73,0,0,1-.88,2.57,14,14,0,0,1-.76,2.69c-.39,1.05-.85,2.3-1.4,3.74a15.68,15.68,0,0,0-.76,2.36c-.27,1.07-.6,2.34-1,3.82q-.4,1.35-1.05,3.18c-.43,1.23-.92,2.72-1.46,4.47a9.88,9.88,0,0,0-1.14,2,20.4,20.4,0,0,0-1,3.21,27.78,27.78,0,0,1-1.08,2.72c-.53,1.19-1.18,2.71-2,4.58a44.54,44.54,0,0,1-2.1,4.5,5.55,5.55,0,0,1-1.22,1.75l-1.4.82a2.32,2.32,0,0,1-1.17.78,5.43,5.43,0,0,1-1.81.15,15.13,15.13,0,0,1-1.84,1,3.4,3.4,0,0,1-1.26.35,4.26,4.26,0,0,1-3.56-1.75,12.12,12.12,0,0,1-1.92-5.37c-.12-1.67-.25-3.36-.38-5.05s-.29-3.41-.44-5.17c-.08-.85-.23-2-.44-3.41s-.55-3.12-1-5.11l-2.54,4.82c-.88,1.65-1.78,3.39-2.72,5.22a7.62,7.62,0,0,1-.81,2.57c-.59,1.36-1.4,3.25-2.45,5.66s-2.26,5.08-3.51,7.65a11.22,11.22,0,0,1-2.89,3.42,5.76,5.76,0,0,1-3.47,1.13c-.62,0-1.23-.48-1.81-1.46a19.94,19.94,0,0,1-1.76-4.43c-.35-1.21-.69-2.42-1-3.65s-.68-2.48-1-3.77a10.93,10.93,0,0,0,.41-1.34,16.16,16.16,0,0,1-.85-2.22c-.29-.93-.61-2.06-1-3.38-.12-.82-.27-1.87-.47-3.16s-.41-2.8-.64-4.55c0-.54-.08-1.1-.12-1.66s-.08-1.12-.12-1.67a5.8,5.8,0,0,0-.32-1.4,12.44,12.44,0,0,0-.79-1.75,8.47,8.47,0,0,1-.2-1.72c-.06-.92-.13-2.19-.21-3.83a17.52,17.52,0,0,0-.35-3.29,2.85,2.85,0,0,0-.88-1.73l-1.58-1.16a9.9,9.9,0,0,1-.55-2.54,35.9,35.9,0,0,1-.21-4.24,127.67,127.67,0,0,1,.79-13.77c.53-4.79,1.31-9.83,2.37-15.12a5.88,5.88,0,0,1,1.45-3.1A3.59,3.59,0,0,1,347.19,248.59Z"/><path class="cls-1" d="M403.4,301.57a11.36,11.36,0,0,1,1.39-1.91,15.86,15.86,0,0,1,2.16-2l.27-1.78a17.11,17.11,0,0,0,.18-1.77,14.29,14.29,0,0,1,.42-1.49c.2-.57.41-1.18.65-1.84s.64-1.48,1.11-2.47A33.12,33.12,0,0,1,411.4,285c.62-.69,1.28-1.45,2-2.27l2.07-2.5a9.85,9.85,0,0,1,1.08-.76,13.69,13.69,0,0,0,1.17-.81,8.51,8.51,0,0,1,1.21-.31,6.83,6.83,0,0,1,1.48-.14,6.4,6.4,0,0,1,1.82.22,2.42,2.42,0,0,1,1.15.77,3.77,3.77,0,0,1,.6,1.08,13.37,13.37,0,0,1,.57,1.75c.08.6.19,1.26.31,2,0-.18-.05-.11-.16.22s-.26.85-.47,1.57l-.4,1.44a16,16,0,0,1-2.83,5,66.09,66.09,0,0,1-5.94,6.47,2.54,2.54,0,0,0-.53.79,2.3,2.3,0,0,0-.23,1,3.79,3.79,0,0,0,.34,1.66,2.31,2.31,0,0,0,1,1.08,4.44,4.44,0,0,0,1.15.54,15.56,15.56,0,0,0,1.87.49,14.28,14.28,0,0,0,3.18-.58,13.51,13.51,0,0,0,2.57-1.08c.15-.09.39-.22.72-.38a6.64,6.64,0,0,0,1-.65c.39.86.74,1.64,1,2.33s.54,1.29.72,1.8a27.26,27.26,0,0,1-4.66,3.8,7.49,7.49,0,0,1-3.84,1.28,5.21,5.21,0,0,1-1.64.65,10.59,10.59,0,0,1-2.18.2,8.17,8.17,0,0,1-2.94-.49,5.44,5.44,0,0,1-2.13-1.44,5.25,5.25,0,0,1-.9-1.33c-.3-.58-.62-1.28-.95-2.09a6.61,6.61,0,0,0-.76-1.46,1,1,0,0,0-.81-.47,1.38,1.38,0,0,0-.81.34,5.6,5.6,0,0,0-1,1,10.89,10.89,0,0,0-.62-1.66C404.27,303.38,403.88,302.55,403.4,301.57Zm14.37-16.28c-.65,0-1.54.86-2.65,2.58a8.61,8.61,0,0,0-1.66,3.8.49.49,0,0,0,.12.38c.07.08.23.11.47.11a.94.94,0,0,0,.81-.51c.2-.35.4-.67.58-1s.65-.62,1-1,.62-.67.92-1a4.7,4.7,0,0,0,.8-1.25,3.19,3.19,0,0,0,.28-1.26,1.22,1.22,0,0,0-.16-.65A.53.53,0,0,0,417.77,285.29Z"/><path class="cls-1" d="M367.12,348.41l.27-.31.13-.45a17.42,17.42,0,0,1,1.39-1.55l.9-.88a4,4,0,0,1,1-.58q.76-.36,2.07-.9l.58-.36a15.71,15.71,0,0,1,1.12-1.44c.54-.63,1.19-1.35,1.94-2.15a3.44,3.44,0,0,1,.67-.59,7.18,7.18,0,0,0,.94-.81q1.08-1,2.16-2.13c.72-.74,1.39-1.46,2-2.18.27-.27.83-.76,1.67-1.46l3.41-2.94a11.51,11.51,0,0,1,1.12-.66c.54-.28,1.25-.62,2.12-1a1.75,1.75,0,0,0,.87-.87,3.52,3.52,0,0,0,.29-1.55,9,9,0,0,0,.7-1.42,19.29,19.29,0,0,0,.65-1.95c.3-.93.53-1.69.7-2.27a10.08,10.08,0,0,1,.38-1.19q.77-2,2.07-4.74c.87-1.82,1.9-3.89,3.1-6.23.6-1.22,1.3-2.59,2.11-4.09A5.55,5.55,0,0,1,403.2,302a3.8,3.8,0,0,1,2-.56,1.29,1.29,0,0,1,1.19.63,3.52,3.52,0,0,1,.39,1.84,24,24,0,0,1-.27,3.68,11.79,11.79,0,0,1-1,3.28,4,4,0,0,0-.23.95q-.09.63-.18,1.53a3.26,3.26,0,0,1-.33,1.21,4.65,4.65,0,0,1-.75,1.08,3.6,3.6,0,0,1-.08.74c-.07.28-.12.62-.18,1l-.63.81a2.08,2.08,0,0,0-.09.65v.79a3.69,3.69,0,0,1-.32,1c-.21.53-.52,1.27-.94,2.23s-.86,1.82-1.15,2.42a7.77,7.77,0,0,0-.47,1.13,6.65,6.65,0,0,0-.47.71c-.19.33-.43.71-.7,1.13l.14,1-2.88,10.33c0,1.14,0,2.11,0,2.92a7.54,7.54,0,0,0,.27,1.93,13.17,13.17,0,0,0,.74,1.87,20.13,20.13,0,0,0,1.32,2.36,3.17,3.17,0,0,0,1.17,1.23,2.83,2.83,0,0,0,1.44.39,3.57,3.57,0,0,0,1.73-.48,6.67,6.67,0,0,0,1.77-1.46l1,2.2c.32.69.58,1.34.79,1.94a6.48,6.48,0,0,0-1,.92c-.5.52-1.15,1.26-2,2.22a4.17,4.17,0,0,1-1.77,1.24,7.82,7.82,0,0,1-2.59.38,8.36,8.36,0,0,1-5.48-1.75,9.43,9.43,0,0,1-3-5.26l-.32-1.26q-.14-.54-.27-1a7.11,7.11,0,0,0-1.08-1.84c-.21.3-.37.52-.49.67a7.39,7.39,0,0,0-1.19,1,11.19,11.19,0,0,0-1.33,1.71,6,6,0,0,1-.49,1.1c-.24.43-.57.95-1,1.55-1,1.1-1.93,2.22-2.92,3.34s-2,2.23-3,3.31a18.47,18.47,0,0,1-3.73,3.3,5.89,5.89,0,0,1-3,1.06,4.62,4.62,0,0,1-3.33-1.06,4.46,4.46,0,0,1-1.07-3.3,8.3,8.3,0,0,1,.76-2.9,8.28,8.28,0,0,0,.76-2.76l-.27-.72Zm21.25-11.18a2,2,0,0,0-.18-.67c-.45.45-1,1-1.66,1.57s-1.44,1.26-2.34,2a14.3,14.3,0,0,1-1.44,2.27q-1.12,1.55-3.14,3.84a16.84,16.84,0,0,0-1.58,2.32q-1,1.63-2.42,4a24.87,24.87,0,0,0-1,2.29.84.84,0,0,0,.36.58,8.8,8.8,0,0,0,3.3-2.36,57,57,0,0,0,4.65-5.41,47.29,47.29,0,0,0,4.14-6.27A9.71,9.71,0,0,0,388.37,337.23Z"/></svg>