<svg id="Layer_1" data-name="Layer 1" xmlns="http://www.w3.org/2000/svg" viewBox="0 0 792 612"><defs><style>.cls-1{fill:#eaeade;}</style></defs><path class="cls-1" d="M224.65,15.59a28.64,28.64,0,0,1,11.09,1.93,23.07,23.07,0,0,1,7.55,4.88,34.4,34.4,0,0,1,5.18,7c1.68,2.87,3.8,6.36,6.36,10.52q4.74,8.58,6.81,13.16t2.07,6.07Q261.64,76.26,259.87,92q-1.2,16.56-3.85,34a91.16,91.16,0,0,0-2.07,9.17c.78,4.94,1.43,10.17,1.92,15.69s.84,11,1,16.57c.39,4.35.59,9.22.59,14.65s-.2,11.59-.59,18.5q-.3,13-.6,21.15T256,232.82a45.16,45.16,0,0,0,.29,4.73,40,40,0,0,0,1.19,5.92q.58,4.14,2.07,10.35v18.64q.29,11.27,7.22,52.09t9.06,43.8a29.68,29.68,0,0,1,3.54-1.77l23.06-41.43q1.77-5,4.58-12.88t6.65-18.2Q327,268,339,226.16t22.32-99.3q3.54-16.56,9.31-26.33t12.85-11.84l26.32-9.47q6.81,2.67,9.77,7.25t3,12q0,9.19-3.26,29.75t-10.05,51.64q-.29,6.81-1.57,16.86l-3,23.68q-2.37,10.65-3.7,16.87a55.13,55.13,0,0,0-1.34,7.7c0,5.13.11,11,.3,17.6s.39,14.07.6,22.35c.39,10.05.59,18.45.59,25.15v14.21q.29,19.83,1.33,30t2.81,10.22q3,0,9.31-12.74T430,313.31q7.39-19.53,13.45-37t10.78-32.85a23.67,23.67,0,0,0,4.74-9.18,69.28,69.28,0,0,0,2.35-15.1q4.74-12.72,9.17-26.77T480,163.27q2.94-8.88,6.35-22.2t8.14-31.66L490.58,97q.9-3.56,2.67-8.88a106.83,106.83,0,0,0,3.25-12.72q8-12.72,14.34-19.24T521,49.63a4.2,4.2,0,0,1,4.14,3.11c.8,2.06,1.18,5.38,1.18,9.91q0,18.06-.73,28c-.49,6.61-1.14,10.9-1.92,12.87-1.39,2.76-2.58,5.38-3.55,7.84s-1.78,4.49-2.37,6.06l3.84,14.51q-1.77,4.14-4.14,14.95t-5.33,28.26q-3,16.57-5.33,26.33t-4.43,13a73.55,73.55,0,0,1-3.85,13.62c-2,5.32-4.34,11.65-7.11,18.94a75.3,75.3,0,0,0-3.84,12q-2.07,8.16-5,19.38-2.07,6.81-5.33,16.13t-7.39,22.65a48.46,48.46,0,0,0-5.77,10.36,101.23,101.23,0,0,0-5.19,16.27,142.54,142.54,0,0,1-5.47,13.76q-4,9-9.92,23.24a244.83,244.83,0,0,1-10.65,22.78q-4.44,8-6.21,8.88l-7.1,4.14a11.63,11.63,0,0,1-5.92,4,28.2,28.2,0,0,1-9.18.75,81.67,81.67,0,0,1-9.32,5,17.06,17.06,0,0,1-6.36,1.79,21.65,21.65,0,0,1-18.06-8.89q-6.79-8.88-9.76-27.23Q360,379.3,359,366.43t-2.21-26.19q-.6-6.51-2.23-17.32T349.38,297q-6.21,11.84-12.87,24.42t-13.76,26.48c.19,1.78-1.18,6.13-4.14,13s-7.11,16.48-12.43,28.7q-8.28,19.25-17.76,38.78-6.81,11.54-14.65,17.31a29,29,0,0,1-17.6,5.77q-4.74,0-9.2-7.4t-8.89-22.49q-2.69-9.18-5.19-18.49T227.69,384a61.21,61.21,0,0,0,2.08-6.8,77.78,77.78,0,0,1-4.3-11.26q-2.22-7.11-4.89-17.15c-.6-4.16-1.39-9.47-2.38-16s-2.07-14.2-3.26-23.07q-.3-4.14-.59-8.43t-.6-8.44a30.13,30.13,0,0,0-1.63-7.1,63.37,63.37,0,0,0-4-8.88c-.4-1.19-.74-4.1-1-8.73s-.64-11.11-1-19.39a91.08,91.08,0,0,0-1.78-16.71c-1-4.45-2.47-7.35-4.44-8.73l-8-5.92Q190,213.27,189,204.55a186.51,186.51,0,0,1-1-21.45,641.46,641.46,0,0,1,4-69.84q4-36.42,12-76.65,2.07-10.35,7.4-15.68A18.08,18.08,0,0,1,224.65,15.59Z"/><path class="cls-1" d="M509.56,284.13a58.74,58.74,0,0,1,7.06-9.68,85.64,85.64,0,0,1,10.94-10.14c.45-3,.91-6,1.36-9a86.24,86.24,0,0,0,.91-9A68.6,68.6,0,0,1,532,238.8c1-2.88,2.08-6,3.3-9.33q2.06-5,5.58-12.53a178.74,178.74,0,0,1,9.23-16.85q4.77-5.25,10-11.51t10.47-12.64a51.06,51.06,0,0,1,5.47-3.87A71.89,71.89,0,0,0,582,168a51.4,51.4,0,0,1,6.14-1.59,38.11,38.11,0,0,1,7.52-.69,30.79,30.79,0,0,1,9.23,1.14,12.32,12.32,0,0,1,5.8,3.87,20.16,20.16,0,0,1,3.08,5.47,73.83,73.83,0,0,1,2.85,8.88c.44,3,1,6.38,1.59,10,0-.91-.27-.53-.8,1.14s-1.33,4.33-2.39,8l-2,7.29q-3.19,10.93-14.35,25.29t-30.07,32.79a14.26,14.26,0,0,0-2.73,4,11.75,11.75,0,0,0-1.13,5.12,19.61,19.61,0,0,0,1.7,8.43,11.85,11.85,0,0,0,4.9,5.46,21.59,21.59,0,0,0,5.8,2.74,80.25,80.25,0,0,0,9.46,2.51,73.25,73.25,0,0,0,16.17-3,69.3,69.3,0,0,0,13-5.47c.75-.46,2-1.11,3.64-1.93a27.51,27.51,0,0,0,5-3.31c2,4.41,3.73,8.36,5.25,11.84s2.73,6.54,3.64,9.12q-13,12.75-23.58,19.24t-19.46,6.49a26.16,26.16,0,0,1-8.32,3.3,51.66,51.66,0,0,1-11,1,41.33,41.33,0,0,1-14.92-2.51,27.56,27.56,0,0,1-10.82-7.29,26.82,26.82,0,0,1-4.56-6.71c-1.51-3-3.11-6.49-4.77-10.6a34.25,34.25,0,0,0-3.87-7.39,5.19,5.19,0,0,0-4.11-2.4,7.08,7.08,0,0,0-4.09,1.71,28.89,28.89,0,0,0-5,5.13,57.23,57.23,0,0,0-3.18-8.43Q513.2,291.65,509.56,284.13Zm72.88-82.5q-5,0-13.43,13.09T560.58,234a2.68,2.68,0,0,0,.58,1.94,3.47,3.47,0,0,0,2.38.57,4.71,4.71,0,0,0,4.1-2.61q1.59-2.62,3-4.9c1.67-1.52,3.31-3.15,4.9-4.9l4.67-5.12a25.3,25.3,0,0,0,4.1-6.38,16.11,16.11,0,0,0,1.37-6.38,6.08,6.08,0,0,0-.79-3.3A2.68,2.68,0,0,0,582.44,201.63Z"/><path class="cls-1" d="M325.65,521.6,327,520l.68-2.27a91.13,91.13,0,0,1,7.07-7.86c2-1.9,3.48-3.38,4.55-4.45a20.59,20.59,0,0,1,5-3c2.59-1.21,6.07-2.73,10.48-4.55l3-1.82a71.38,71.38,0,0,1,5.7-7.29q4.1-4.79,9.79-10.94a17.61,17.61,0,0,1,3.42-2.95,37.58,37.58,0,0,0,4.78-4.11q5.46-5.24,10.93-10.82t10.25-11.05q2.06-2,8.43-7.39t17.31-14.92a55.44,55.44,0,0,1,5.69-3.3q4.11-2.18,10.71-5.13a9,9,0,0,0,4.44-4.44,18.1,18.1,0,0,0,1.48-7.86,49.44,49.44,0,0,0,3.53-7.17,95.65,95.65,0,0,0,3.31-9.92c1.5-4.7,2.69-8.54,3.53-11.49a54,54,0,0,1,1.93-6q3.87-10.25,10.47-24t15.72-31.55q4.54-9.33,10.7-20.73a28.07,28.07,0,0,1,8.67-8.54,19.33,19.33,0,0,1,10-2.84,6.55,6.55,0,0,1,6,3.18c1.29,2.14,1.94,5.25,1.94,9.35a122.9,122.9,0,0,1-1.37,18.67,60.35,60.35,0,0,1-5,16.63A19.66,19.66,0,0,0,519,336.2c-.3,2.13-.61,4.71-.91,7.75a16.1,16.1,0,0,1-1.71,6.15,24.55,24.55,0,0,1-3.76,5.47,18.75,18.75,0,0,1-.45,3.75c-.31,1.45-.61,3.15-.91,5.13l-3.2,4.1a10.94,10.94,0,0,0-.44,3.3v4a18.72,18.72,0,0,1-1.6,5.35q-1.6,4-4.78,11.28-3.66,7.76-5.82,12.3a37.28,37.28,0,0,0-2.38,5.69,33.68,33.68,0,0,0-2.39,3.65q-1.49,2.5-3.54,5.69l.69,5-14.58,52.38q0,8.67.22,14.81a38.46,38.46,0,0,0,1.38,9.79,67,67,0,0,0,3.75,9.45,103.79,103.79,0,0,0,6.72,12,16.32,16.32,0,0,0,5.93,6.27,14.51,14.51,0,0,0,7.29,1.93,18.42,18.42,0,0,0,8.76-2.39,34.9,34.9,0,0,0,9-7.41c1.83,4,3.54,7.67,5.13,11.16s2.92,6.76,4,9.8a36.14,36.14,0,0,0-4.89,4.67q-3.75,4-9.91,11.27a20.67,20.67,0,0,1-9,6.26,38.54,38.54,0,0,1-13.1,1.94q-17.08,0-27.79-8.88t-15-26.65c-.61-2.43-1.14-4.55-1.59-6.38s-.92-3.49-1.37-5a35.83,35.83,0,0,0-5.47-9.33c-1.06,1.51-1.9,2.65-2.5,3.41a39,39,0,0,0-6,5.24,57.68,57.68,0,0,0-6.71,8.66,31.15,31.15,0,0,1-2.51,5.57,90.26,90.26,0,0,1-5,7.86q-7.31,8.43-14.81,17t-15,16.74q-10.26,11.4-18.91,16.74t-15,5.36q-11.38,0-16.85-5.36t-5.47-16.74q0-5.24,3.87-14.69t3.87-14l-1.36-3.64Zm107.73-56.66a10.59,10.59,0,0,0-.92-3.41c-2.28,2.27-5.09,4.94-8.43,8s-7.29,6.38-11.84,10c-1.06,2.44-3.5,6.26-7.29,11.51S395.79,502.75,389,510.5a92.64,92.64,0,0,0-8,11.73l-12.29,20.39a124.81,124.81,0,0,0-5.24,11.61c0,.91.6,1.9,1.82,3q6.83-2.06,16.74-12a303.42,303.42,0,0,0,23.57-27.44q14.13-18.67,20.95-31.77T433.38,464.94Z"/></svg>