<?xml version="1.0" encoding="UTF-8"?><svg id="a" xmlns="http://www.w3.org/2000/svg" viewBox="0 0 600 600"><defs><style>.b{fill:#eaeade;}</style></defs><path class="b" d="M114.01,9.26c3.79-.1,7.56,.56,11.09,1.93,2.81,1.12,5.38,2.77,7.55,4.88,2.02,2.1,3.76,4.46,5.18,7,1.68,2.87,3.8,6.36,6.36,10.52,3.16,5.72,5.43,10.11,6.81,13.16s2.07,5.08,2.07,6.07c-1.38,11.41-2.66,22.36-3.84,32.85-.8,11.04-2.08,22.37-3.85,34-.85,3.02-1.54,6.08-2.07,9.17,.78,4.94,1.43,10.17,1.92,15.69s.84,11,1,16.57c.39,4.35,.59,9.22,.59,14.65s-.2,11.59-.59,18.5c-.2,8.67-.4,15.72-.6,21.15s-.29,9.13-.27,11.09c.01,1.58,.11,3.16,.29,4.73,.25,2,.64,3.98,1.19,5.92,.39,2.76,1.08,6.21,2.07,10.35v18.64c.19,7.51,2.6,24.88,7.22,52.09,4.62,27.21,7.64,41.81,9.06,43.8,1.14-.67,2.32-1.26,3.54-1.77l23.06-41.43c1.18-3.33,2.71-7.63,4.58-12.88s4.09-11.32,6.65-18.2c8.89-17.38,17.34-40.02,25.34-67.91,8-27.89,15.44-60.99,22.32-99.3,2.36-11.04,5.46-19.82,9.31-26.33s8.13-10.46,12.85-11.84l26.32-9.47c4.54,1.78,7.8,4.2,9.77,7.25s2.97,7.05,3,12c0,6.13-1.09,16.04-3.26,29.75-2.17,13.71-5.52,30.92-10.05,51.64-.19,4.54-.72,10.16-1.57,16.86l-3,23.68c-1.58,7.1-2.81,12.72-3.7,16.87-.63,2.53-1.08,5.1-1.34,7.7,0,5.13,.11,11,.3,17.6,.19,6.6,.39,14.07,.6,22.35,.39,10.05,.59,18.45,.59,25.15v14.21c.19,13.22,.64,23.22,1.33,30s1.63,10.19,2.81,10.22c2,0,5.1-4.25,9.31-12.74,4.21-8.49,9.34-21.31,15.41-38.45,4.93-13.02,9.41-25.35,13.45-37,4.04-11.65,7.63-22.6,10.78-32.85,2.24-2.67,3.86-5.81,4.74-9.18,1.34-4.93,2.13-10,2.35-15.1,3.16-8.48,6.22-17.4,9.17-26.77,2.95-9.37,6.12-19.08,9.51-29.14,1.96-5.92,4.08-13.32,6.35-22.2,2.27-8.88,4.99-19.43,8.14-31.66l-3.91-12.41c.6-2.37,1.49-5.33,2.67-8.88,1.34-4.17,2.43-8.42,3.25-12.72,5.33-8.48,10.11-14.89,14.34-19.24,4.23-4.35,7.61-6.52,10.16-6.53,1.93-.04,3.64,1.24,4.14,3.11,.8,2.06,1.18,5.38,1.18,9.91,0,12.04-.24,21.37-.73,28-.49,6.61-1.14,10.9-1.92,12.87-1.39,2.76-2.58,5.38-3.55,7.84s-1.78,4.49-2.37,6.06l3.84,14.51c-1.18,2.76-2.56,7.74-4.14,14.95s-3.36,16.63-5.33,28.26c-2,11.05-3.78,19.82-5.33,26.33-1.55,6.51-3.03,10.84-4.43,13-.84,4.65-2.13,9.21-3.85,13.62-2,5.32-4.34,11.65-7.11,18.94-1.61,3.89-2.9,7.9-3.84,12-1.38,5.44-3.05,11.9-5,19.38-1.38,4.54-3.16,9.92-5.33,16.13s-4.64,13.76-7.39,22.65c-2.34,3.2-4.28,6.68-5.77,10.36-2.19,5.27-3.92,10.71-5.19,16.27-1.58,4.68-3.41,9.27-5.47,13.76-2.67,6-5.97,13.75-9.92,23.24-3.16,7.77-6.71,15.37-10.65,22.78-2.96,5.33-5.03,8.29-6.21,8.88l-7.1,4.14c-1.5,1.92-3.58,3.32-5.92,4-3,.75-6.1,1-9.18,.75-3,1.87-6.11,3.54-9.32,5-1.98,1.01-4.14,1.61-6.36,1.79-7.12,.19-13.87-3.14-18.06-8.89-4.53-5.92-7.78-15-9.76-27.23-.62-8.49-1.26-17.03-1.93-25.61-.67-8.58-1.4-17.31-2.21-26.19-.4-4.34-1.14-10.11-2.23-17.32-1.09-7.21-2.81-15.85-5.18-25.92-4.14,7.89-8.43,16.03-12.87,24.42-4.44,8.39-9.03,17.21-13.76,26.48,.19,1.78-1.18,6.13-4.14,13s-7.11,16.48-12.43,28.7c-5.52,12.83-11.44,25.76-17.76,38.78-4.54,7.69-9.42,13.46-14.65,17.31-5.08,3.8-11.26,5.82-17.6,5.77-3.16,0-6.23-2.47-9.2-7.4-2.97-4.93-5.94-12.43-8.89-22.49-1.79-6.12-3.52-12.28-5.19-18.49-1.67-6.21-3.4-12.57-5.2-19.08,.82-2.22,1.52-4.49,2.08-6.8-1.72-3.64-3.16-7.4-4.3-11.26-1.48-4.74-3.11-10.46-4.89-17.15-.6-4.16-1.39-9.47-2.38-16s-2.07-14.2-3.26-23.07c-.2-2.76-.4-5.57-.59-8.43s-.39-5.67-.6-8.44c-.25-2.42-.8-4.81-1.63-7.1-1.1-3.06-2.44-6.03-4-8.88-.4-1.19-.74-4.1-1-8.73s-.64-11.11-1-19.39c-.08-5.61-.67-11.21-1.78-16.71-1-4.45-2.47-7.35-4.44-8.73l-8-5.92c-1.27-2.75-2.23-7.03-2.9-12.84-.74-7.12-1.08-14.29-1-21.45,.06-23.34,1.4-46.65,4-69.84,2.67-24.28,6.67-49.83,12-76.65,1.38-6.9,3.85-12.13,7.4-15.68,3.5-3.52,8.29-5.45,13.25-5.34Z"/><path class="b" d="M398.92,277.8c2.02-3.46,4.38-6.7,7.06-9.68,3.34-3.69,7.01-7.08,10.94-10.14,.45-3,.91-6,1.36-9,.46-2.98,.76-5.99,.91-9,.58-2.54,1.3-5.05,2.17-7.51,1-2.88,2.08-6,3.3-9.33,1.37-3.33,3.23-7.51,5.58-12.53,2.77-5.78,5.85-11.4,9.23-16.85,3.18-3.5,6.51-7.34,10-11.51,3.49-4.17,6.98-8.39,10.47-12.64,1.74-1.41,3.56-2.7,5.47-3.87,2.05-1.26,4.04-2.61,5.95-4.07,2.01-.66,4.06-1.19,6.14-1.59,2.48-.48,5-.71,7.52-.69,3.12-.09,6.23,.29,9.23,1.14,2.27,.7,4.28,2.05,5.8,3.87,1.31,1.65,2.35,3.5,3.08,5.47,1.14,2.9,2.09,5.86,2.85,8.88,.44,3,1,6.38,1.59,10,0-.91-.27-.53-.8,1.14s-1.33,4.33-2.39,8l-2,7.29c-2.13,7.29-6.91,15.72-14.35,25.29s-17.46,20.5-30.07,32.79c-1.13,1.17-2.05,2.52-2.73,4-.76,1.6-1.14,3.35-1.13,5.12-.06,2.9,.52,5.78,1.7,8.43,1.01,2.29,2.73,4.2,4.9,5.46,1.79,1.2,3.74,2.12,5.8,2.74,3.1,1.03,6.26,1.87,9.46,2.51,5.49-.39,10.91-1.4,16.17-3,4.51-1.38,8.86-3.21,13-5.47,.75-.46,2-1.11,3.64-1.93,1.78-.92,3.46-2.03,5-3.31,2,4.41,3.73,8.36,5.25,11.84s2.73,6.54,3.64,9.12c-8.67,8.5-16.53,14.91-23.58,19.24s-13.54,6.49-19.46,6.49c-2.56,1.57-5.38,2.69-8.32,3.3-3.62,.73-7.31,1.06-11,1-5.09,.09-10.14-.76-14.92-2.51-4.14-1.53-7.85-4.03-10.82-7.29-1.85-1.99-3.39-4.26-4.56-6.71-1.51-3-3.11-6.49-4.77-10.6-.98-2.61-2.28-5.09-3.87-7.39-.9-1.42-2.43-2.31-4.11-2.4-1.51,.12-2.94,.72-4.09,1.71-1.87,1.5-3.55,3.22-5,5.13-.84-2.89-1.9-5.71-3.18-8.43-1.61-3.33-3.63-7.5-6.06-12.51Zm72.88-82.5c-3.33,0-7.81,4.36-13.43,13.09-5.62,8.73-8.43,15.15-8.43,19.28-.07,.7,.14,1.39,.58,1.94,.7,.47,1.54,.68,2.38,.57,1.74-.04,3.32-1.05,4.1-2.61,1.06-1.75,2.06-3.38,3-4.9,1.67-1.52,3.31-3.15,4.9-4.9l4.67-5.12c1.68-1.91,3.06-4.06,4.1-6.38,.89-2.01,1.35-4.18,1.37-6.38,.06-1.15-.22-2.3-.79-3.3-.51-.85-1.46-1.35-2.45-1.29Z"/><path class="b" d="M215.01,515.27l1.35-1.6,.68-2.27c2.2-2.75,4.56-5.38,7.07-7.86,2-1.9,3.48-3.38,4.55-4.45,1.52-1.23,3.2-2.24,5-3,2.59-1.21,6.07-2.73,10.48-4.55l3-1.82c1.74-2.55,3.64-4.99,5.7-7.29,2.73-3.19,6-6.84,9.79-10.94,1.01-1.13,2.16-2.12,3.42-2.95,1.71-1.23,3.3-2.61,4.78-4.11,3.64-3.49,7.28-7.1,10.93-10.82,3.65-3.72,7.06-7.4,10.25-11.05,1.37-1.33,4.18-3.8,8.43-7.39,4.25-3.59,10.02-8.57,17.31-14.92,1.83-1.21,3.73-2.31,5.69-3.3,2.74-1.45,6.31-3.16,10.71-5.13,1.97-.9,3.54-2.47,4.44-4.44,1.07-2.48,1.58-5.16,1.48-7.86,1.37-2.29,2.55-4.69,3.53-7.17,1.28-3.24,2.39-6.56,3.31-9.92,1.5-4.7,2.69-8.54,3.53-11.49,.53-2.04,1.17-4.04,1.93-6,2.58-6.83,6.07-14.83,10.47-24,4.4-9.17,9.64-19.68,15.72-31.55,3.03-6.22,6.59-13.13,10.7-20.73,2.23-3.45,5.19-6.36,8.67-8.54,3.01-1.84,6.47-2.82,10-2.84,2.44-.14,4.75,1.09,6,3.18,1.29,2.14,1.94,5.25,1.94,9.35,.02,6.25-.44,12.49-1.37,18.67-.86,5.76-2.54,11.36-5,16.63-.58,1.53-.96,3.13-1.14,4.76-.3,2.13-.61,4.71-.91,7.75-.15,2.14-.74,4.23-1.71,6.15-1,1.99-2.26,3.83-3.76,5.47-.02,1.26-.17,2.52-.45,3.75-.31,1.45-.61,3.15-.91,5.13l-3.2,4.1c-.31,1.07-.46,2.18-.44,3.3v4c-.26,1.85-.8,3.66-1.6,5.35-1.07,2.67-2.66,6.43-4.78,11.28-2.44,5.17-4.38,9.27-5.82,12.3-.95,1.83-1.75,3.73-2.38,5.69-.87,1.16-1.67,2.38-2.39,3.65-.99,1.67-2.17,3.56-3.54,5.69l.69,5-14.58,52.38c0,5.78,.07,10.72,.22,14.81,.04,3.31,.5,6.6,1.38,9.79,1.01,3.24,2.26,6.4,3.75,9.45,1.97,4.14,4.22,8.15,6.72,12,1.38,2.58,3.43,4.75,5.93,6.27,2.22,1.27,4.73,1.94,7.29,1.93,3.07-.05,6.09-.87,8.76-2.39,3.39-1.95,6.44-4.45,9-7.41,1.83,4,3.54,7.67,5.13,11.16s2.92,6.76,4,9.8c-1.77,1.4-3.41,2.96-4.89,4.67-2.5,2.67-5.8,6.42-9.91,11.27-2.38,2.86-5.49,5.02-9,6.26-4.22,1.4-8.65,2.05-13.1,1.94-11.39,0-20.65-2.96-27.79-8.88s-12.14-14.8-15-26.65c-.61-2.43-1.14-4.55-1.59-6.38s-.92-3.49-1.37-5c-1.34-3.37-3.19-6.51-5.47-9.33-1.06,1.51-1.9,2.65-2.5,3.41-2.17,1.54-4.18,3.29-6,5.24-2.51,2.67-4.75,5.57-6.71,8.66-.65,1.93-1.49,3.8-2.51,5.57-1.53,2.7-3.2,5.33-5,7.86-4.87,5.62-9.81,11.29-14.81,17-5,5.71-10,11.29-15,16.74-6.84,7.6-13.14,13.18-18.91,16.74-5.77,3.56-10.77,5.35-15,5.36-7.59,0-13.2-1.79-16.85-5.36-3.65-3.57-5.47-9.15-5.47-16.74,0-3.49,1.29-8.39,3.87-14.69,2.58-6.3,3.87-10.97,3.87-14l-1.36-3.64-9.25-21.05Zm107.73-56.66c-.11-1.18-.42-2.33-.92-3.41-2.28,2.27-5.09,4.94-8.43,8s-7.29,6.38-11.84,10c-1.06,2.44-3.5,6.26-7.29,11.51s-9.11,11.71-15.9,19.46c-2.96,3.7-5.64,7.62-8,11.73l-12.29,20.39c-1.94,3.78-3.69,7.65-5.24,11.61,0,.91,.6,1.9,1.82,3,4.55-1.37,10.13-5.37,16.74-12,8.4-8.67,16.27-17.83,23.57-27.44,9.42-12.45,16.4-23.04,20.95-31.77,4.55-8.73,6.82-15.76,6.83-21.08h0Z"/></svg>