<svg id="Layer_1" data-name="Layer 1" xmlns="http://www.w3.org/2000/svg" viewBox="0 0 841.89 595.28"><defs><style>.cls-1{font-size:11.92px;}.cls-1,.cls-2,.cls-3,.cls-4{fill:#ef7846;}.cls-1,.cls-2,.cls-3{font-family:InkFree, Ink Free;}.cls-2{font-size:11.92px;}.cls-3{font-size:11.92px;}</style></defs><text class="cls-1" transform="matrix(0.71, 0.71, -0.71, 0.71, 373.26, 226.64)">MARKETING</text><text class="cls-2" transform="translate(338.16 255.83) rotate(24.34)">MARKETING</text><text class="cls-3" transform="translate(340.54 302.27) rotate(5.01)">MARKETING</text><path class="cls-4" d="M440.05,252.35c-17.41,9.18-29.84,26.76-33.61,46a63.79,63.79,0,0,0-1.2,14.52,45.45,45.45,0,0,0,.71,7.28c.42,2.09,1.65,4.28,4,4.33,2.61.06,4.3-2.51,5.59-4.4q2.61-3.84,5.07-7.78,4.88-7.77,9.18-15.88a254.74,254.74,0,0,0,16.3-37.9c.52-1.53-1.89-2.19-2.41-.67A251.51,251.51,0,0,1,413.28,319c-1.06,1.55-3.57,4.75-4.67,1.46a25.43,25.43,0,0,1-.83-6.68,60,60,0,0,1,.84-13.52A66.32,66.32,0,0,1,418.76,275a62.16,62.16,0,0,1,22.55-20.52c1.42-.75.16-2.91-1.26-2.16Z"/><path class="cls-4" d="M442.26,255.21a85.63,85.63,0,0,0,38.62,39.41,83.53,83.53,0,0,0,14.71,5.74,1.25,1.25,0,0,0,.67-2.41,83.07,83.07,0,0,1-43.94-30.7,81.78,81.78,0,0,1-7.9-13.3c-.69-1.45-2.84-.18-2.16,1.26Z"/><path class="cls-4" d="M411.26,328.31a101.3,101.3,0,0,1,66.49,2.11,97.53,97.53,0,0,1,17,8.52c1.37.86,2.62-1.3,1.26-2.15a103.5,103.5,0,0,0-66.36-15,100.64,100.64,0,0,0-19,4.05c-1.53.49-.88,2.91.66,2.42Z"/><path class="cls-4" d="M496.82,301.09c6.64,2.85,9.35,10.21,8.61,17-.86,8-5.65,14.92-10.16,21.37-.92,1.32,1.24,2.57,2.16,1.26,5-7.09,10-14.64,10.58-23.53.48-7.33-2.87-15.26-9.93-18.29-1.46-.63-2.73,1.53-1.26,2.16Z"/><path class="cls-4" d="M486.59,300.4a31.74,31.74,0,0,1-9.19,28.41c-1.16,1.11.61,2.88,1.77,1.77A34.32,34.32,0,0,0,489,299.73c-.3-1.58-2.71-.91-2.41.67Z"/><path class="cls-4" d="M484.8,334.37a75.83,75.83,0,0,1-17.47,26.29c-2.25,2.22-4.75,4.56-5.64,7.71-.74,2.63-.3,5.83,1.86,7.69,2.52,2.16,6.19,1.66,8.84.05,3-1.79,5.42-4.61,7.75-7.13a103.72,103.72,0,0,0,6.72-8.07,102,102,0,0,0,12.06-20.67c.64-1.46-1.51-2.73-2.16-1.26a101.1,101.1,0,0,1-22.1,32c-2.1,2.05-5.06,4.88-8.31,3.81-2.81-.93-2.92-4.52-1.87-6.81,1.26-2.71,3.76-4.67,5.8-6.77a76,76,0,0,0,6.26-7.26,78.79,78.79,0,0,0,10.67-19c.59-1.5-1.82-2.14-2.41-.66Z"/><path class="cls-4" d="M377.79,247.39c-2-2.51-5.8-3.52-8.32-1.21a4.43,4.43,0,0,0-1.28,4.38c.48,1.6,1.84,2.58,3.12,3.53l4.92,3.68a1.25,1.25,0,0,0,1.71-.45,1.29,1.29,0,0,0-.45-1.71l-4.43-3.31c-1-.72-2.54-1.63-2.52-2.91a2.21,2.21,0,0,1,2.15-2,4,4,0,0,1,3.33,1.78,1.25,1.25,0,0,0,1.77-1.77Z"/><path class="cls-4" d="M378.62,248.5a1.94,1.94,0,0,1,2.2-1.5,2.08,2.08,0,0,1,1.59,2.42,6.11,6.11,0,0,1-2.21,3.52c-1.29,1.19-2.65,2.32-4,3.47a1.25,1.25,0,0,0,1.77,1.77,51.76,51.76,0,0,0,4.91-4.44,6.77,6.77,0,0,0,1.91-5.73,4.41,4.41,0,0,0-8.61-.18,1.25,1.25,0,0,0,2.41.67Z"/><path class="cls-4" d="M343.55,275.33a6.71,6.71,0,0,0-4.53-1.8,5.28,5.28,0,0,0-4.1,2.11,4.46,4.46,0,0,0-.36,4.5c.69,1.42,2.21,2.14,3.56,2.79l5.47,2.64a1.28,1.28,0,0,0,1.71-.45,1.26,1.26,0,0,0-.45-1.71l-5-2.43a21.71,21.71,0,0,1-2.2-1.13,2.19,2.19,0,0,1-1-1.2,2,2,0,0,1,.23-1.45,2.37,2.37,0,0,1,1.23-1,3,3,0,0,1,1.83-.09,4.48,4.48,0,0,1,1.84,1,1.29,1.29,0,0,0,1.77,0,1.27,1.27,0,0,0,0-1.77Z"/><path class="cls-4" d="M344.39,276a1.91,1.91,0,0,1,2-1.78,2.06,2.06,0,0,1,1.93,2.08,6,6,0,0,1-1.45,3.79c-1,1.39-2.08,2.71-3.13,4a1.29,1.29,0,0,0,0,1.77,1.26,1.26,0,0,0,1.77,0,56.11,56.11,0,0,0,4.13-5.48,6.74,6.74,0,0,0,.83-5.84,4.41,4.41,0,0,0-8.54,1.41,1.25,1.25,0,0,0,2.5,0Z"/><path class="cls-4" d="M391.79,314.39c-2-2.51-5.8-3.52-8.32-1.21a4.43,4.43,0,0,0-1.28,4.38c.48,1.6,1.84,2.58,3.12,3.53l4.92,3.68a1.25,1.25,0,0,0,1.71-.45,1.29,1.29,0,0,0-.45-1.71l-4.43-3.31c-1-.72-2.54-1.63-2.52-2.91a2.21,2.21,0,0,1,2.15-2,4,4,0,0,1,3.33,1.78,1.25,1.25,0,0,0,1.77-1.77Z"/><path class="cls-4" d="M392.62,315.5a1.94,1.94,0,0,1,2.2-1.5,2.08,2.08,0,0,1,1.59,2.42,6.11,6.11,0,0,1-2.21,3.52c-1.29,1.19-2.65,2.32-4,3.47a1.25,1.25,0,0,0,1.77,1.77,51.76,51.76,0,0,0,4.91-4.44,6.77,6.77,0,0,0,1.91-5.73,4.41,4.41,0,0,0-8.61-.18,1.25,1.25,0,0,0,2.41.67Z"/><path class="cls-4" d="M422.66,241.29a6.25,6.25,0,0,0-3.44-4.73,4.75,4.75,0,0,0-5.42.91,4.25,4.25,0,0,0-1.18,2.63,6.84,6.84,0,0,0,.78,3.19c.94,2.13,1.93,4.22,2.9,6.33a1.25,1.25,0,0,0,1.71.45,1.28,1.28,0,0,0,.45-1.71l-2.26-4.93c-.5-1.1-1.59-2.76-.83-3.94a2.19,2.19,0,0,1,2.75-.7,3.92,3.92,0,0,1,2.13,3.17,1.25,1.25,0,0,0,1.54.87,1.28,1.28,0,0,0,.87-1.54Z"/><path class="cls-4" d="M422.83,242.66a1.93,1.93,0,0,1,2.73-.23,2,2,0,0,1,.17,2.84,6,6,0,0,1-3.54,2c-1.72.45-3.47.79-5.21,1.17a1.25,1.25,0,0,0,.66,2.41c1.68-.37,3.38-.71,5.05-1.13a9.32,9.32,0,0,0,4.35-2.16,5.13,5.13,0,0,0,1.65-4.15,4.41,4.41,0,0,0-7.62-2.52c-1.1,1.18.66,3,1.76,1.77Z"/></svg>