<?xml version="1.0" encoding="UTF-8"?><svg id="a" xmlns="http://www.w3.org/2000/svg" viewBox="0 0 561.07 512.63"><defs><style>.b{font-size:38.41px;}.b,.c,.d{font-family:InkFree, Ink Free;stroke:#ee7846;stroke-miterlimit:10;stroke-width:2px;}.b,.c,.d,.e{fill:#ee7846;}.c{font-size:38.41px;}.d{font-size:38.41px;}</style></defs><text class="b" transform="translate(126.44 26.16) rotate(44.83)"><tspan x="0" y="0">MARKETING</tspan></text><text class="d" transform="translate(13.29 120.23) rotate(24.34)"><tspan x="0" y="0">MARKETING</tspan></text><text class="c" transform="translate(23.97 269.94) rotate(5.01)"><tspan x="0" y="0">MARKETING</tspan></text><path class="e" d="M344.23,112.09c-13.79,7.45-26.64,16.63-38.29,27.1-11.57,10.4-21.9,22.14-30.95,34.79s-16.64,26.12-22.78,40.31-11.01,29.3-14.05,44.66-4.44,30.98-3.95,46.58c.25,7.98,1.02,15.94,2.23,23.83,.57,3.75,1.45,7.71,3.62,10.9,2.52,3.72,6.67,6.33,11.3,5.81,9.73-1.09,15-11.43,19.78-18.76,5.24-8.03,10.34-16.16,15.3-24.38,9.99-16.56,19.38-33.48,28.16-50.71,8.71-17.1,16.82-34.5,24.3-52.17s14.65-36.27,20.98-54.77c1.52-4.43,2.99-8.88,4.43-13.33,.68-2.12-.8-4.73-2.97-5.23-2.33-.53-4.5,.7-5.23,2.97-5.81,17.97-12.24,35.74-19.28,53.26-6.86,17.05-14.39,34.04-22.62,50.98s-17.02,33.56-26.39,49.87c-4.7,8.19-9.55,16.29-14.54,24.31s-9.79,15.95-15.22,23.51c-.11,.16-.22,.31-.34,.46-.06,.09-.56,.72-.25,.34s-.2,.24-.27,.33c-.12,.15-.25,.3-.38,.45-.67,.78-1.38,1.53-2.14,2.23-.14,.13-1.27,1.05-.58,.54-.39,.29-.79,.56-1.21,.81-.36,.21-.73,.39-1.09,.58-.54,.28,.64-.16,.05-.04-.26,.06-.56,.16-.82,.24-.21,.07-.81,.11,.13,.02-.17,.02-.34,.03-.51,.04-.22,0-.46-.02-.68,0-.59,.06,.69,.19,.1,.03-.39-.11-.79-.24-1.18-.32,.74,.16,.41,.21,.14,.05-.21-.13-.45-.31-.67-.39-.5-.18,.47,.51,.11,.11-.1-.11-.24-.2-.35-.31-.31-.29-.58-.6-.85-.91,.55,.64,.03,0-.16-.31-.26-.42-.49-.85-.71-1.29-.1-.2-.19-.4-.28-.61,.06,.14,.31,.82,.05,.08-.13-.38-.26-.75-.38-1.13-.27-.87-.49-1.76-.68-2.66-.37-1.78-.62-3.58-.87-5.38-.12-.82-.02-.11,0,.05-.03-.24-.06-.48-.09-.72-.05-.42-.11-.84-.16-1.26-.12-1.02-.24-2.04-.35-3.06-.2-1.86-.37-3.72-.51-5.59-.56-7.45-.69-14.93-.4-22.39,.15-3.79,.41-7.58,.77-11.35,.18-1.86,.38-3.71,.61-5.57,.05-.42,.11-.84,.16-1.25,.11-.82,.01-.1,0,.06,.03-.24,.07-.48,.1-.72,.13-.95,.27-1.91,.42-2.86,2.28-14.85,6.18-29.44,11.53-43.47,.67-1.75,1.36-3.49,2.07-5.22,.18-.45,.37-.89,.56-1.34,.06-.16,.32-.75,0,.01,.1-.22,.19-.44,.28-.67,.38-.89,.77-1.77,1.16-2.66,1.52-3.42,3.13-6.81,4.82-10.15,3.39-6.68,7.12-13.19,11.18-19.48,2.06-3.2,4.2-6.34,6.43-9.42,1.09-1.52,2.21-3.02,3.34-4.51,.16-.21,.97-1.25,.44-.57,.26-.33,.52-.67,.78-1,.6-.76,1.2-1.51,1.8-2.26,4.73-5.86,9.78-11.47,15.12-16.79,5.29-5.27,10.87-10.25,16.71-14.9,.38-.3,.75-.6,1.13-.9,.2-.16,1.25-.97,.57-.44,.77-.59,1.53-1.17,2.3-1.75,1.5-1.12,3.01-2.21,4.54-3.28,3.06-2.15,6.18-4.21,9.36-6.17s6.33-3.78,9.57-5.53c1.96-1.06,2.74-3.93,1.52-5.81-1.28-1.99-3.72-2.66-5.81-1.52h0Z"/><path class="e" d="M348.64,118.36c6.39,13.56,13.95,26.55,22.57,38.81s18.52,24.21,29.19,35.06,22.18,20.72,34.42,29.69c12.09,8.86,24.9,16.73,38.29,23.48,13.53,6.82,27.65,12.55,42.14,16.99,1.81,.55,3.62,1.09,5.44,1.6,2.14,.6,4.72-.74,5.23-2.97s-.68-4.58-2.97-5.23c-7.15-2.02-14.22-4.35-21.17-6.98-1.71-.65-3.41-1.31-5.1-1.99-.82-.33-1.63-.66-2.45-1-.41-.17-.81-.34-1.22-.51,.72,.3,.11,.05-.03-.01-.29-.12-.58-.25-.87-.37-3.41-1.47-6.79-3-10.14-4.61-13.34-6.41-26.14-13.93-38.25-22.43-3.04-2.13-6.04-4.33-9-6.59-.15-.11-.3-.23-.45-.34-.09-.07-.72-.55-.32-.24,.36,.28-.13-.1-.17-.13-.2-.15-.4-.31-.6-.46-.74-.58-1.49-1.17-2.22-1.76-1.43-1.14-2.84-2.29-4.25-3.46-5.72-4.75-11.24-9.74-16.55-14.93-5.31-5.2-10.41-10.61-15.29-16.22-2.44-2.81-4.81-5.66-7.13-8.56-.55-.69-1.1-1.38-1.64-2.07-.27-.35-.54-.69-.81-1.04,.04,.06,.38,.5,.09,.11-.19-.25-.38-.5-.57-.75-1.15-1.5-2.28-3.01-3.39-4.54-8.73-11.95-16.46-24.62-23.04-37.87-.81-1.64-1.61-3.28-2.39-4.94-.95-2.02-4-2.69-5.81-1.52-2.08,1.34-2.54,3.66-1.52,5.81h0Z"/><path class="e" d="M248.98,354.06c17.48-5.59,35.44-9.63,53.62-12.09,.5-.07,.08-.01-.02,0,.3-.04,.59-.08,.89-.12,.59-.08,1.19-.15,1.78-.23,1.19-.15,2.38-.29,3.57-.42,2.23-.25,4.47-.48,6.7-.68,4.55-.42,9.11-.74,13.67-.96,9.2-.46,18.42-.53,27.63-.21s18.26,1,27.34,2.05c1.12,.13,2.23,.27,3.35,.41,.52,.07,1.04,.13,1.56,.2,.08,.01,.83,.11,.21,.03,.3,.04,.59,.08,.89,.12,2.3,.32,4.6,.66,6.89,1.03,4.51,.72,9.01,1.53,13.49,2.44,17.99,3.64,35.67,8.75,52.81,15.33,4.29,1.65,8.3,3.28,12.08,4.93,4.19,1.82,8.34,3.73,12.44,5.73,8.28,4.03,16.39,8.43,24.28,13.18,1.93,1.16,3.84,2.34,5.74,3.54s4.77,.46,5.81-1.52c1.11-2.09,.49-4.55-1.52-5.81-15.84-10-32.56-18.49-49.89-25.59-17.12-7.01-34.84-12.55-52.89-16.58s-36.92-6.65-55.62-7.68c-18.47-1.01-37.03-.49-55.41,1.6-18.61,2.12-37.04,5.75-55,11.06-2.23,.66-4.45,1.34-6.66,2.05s-3.7,2.98-2.97,5.23c.69,2.12,2.96,3.69,5.23,2.97h0Z"/><path class="e" d="M525.6,266.74c-.8-.33,.43,.2,.67,.31,.44,.21,.88,.42,1.32,.64,.98,.5,1.94,1.04,2.87,1.61,.83,.51,1.64,1.05,2.44,1.61,.4,.28,.79,.57,1.18,.87-.63-.48-.12-.09,0,0,.28,.23,.57,.46,.85,.7,1.59,1.33,3.09,2.78,4.49,4.31,.66,.72,1.3,1.47,1.92,2.23,.16,.2,.96,1.26,.47,.59,.33,.45,.66,.89,.98,1.34,1.21,1.71,2.32,3.5,3.33,5.34,.48,.87,.93,1.75,1.36,2.64,.21,.45,.42,.9,.63,1.35,.1,.23,.2,.45,.3,.68,.12,.28,.1,.23-.07-.16,.07,.17,.14,.34,.21,.52,1.59,3.95,2.72,8.06,3.4,12.26,.05,.3,.09,.6,.14,.89,.13,.88,.06,.41,.03,.21,.08,.6,.14,1.19,.2,1.79,.13,1.35,.22,2.69,.28,4.04,.1,2.55,.05,5.11-.12,7.66-.08,1.2-.19,2.4-.33,3.6-.03,.3-.07,.6-.11,.9,0,.08-.11,.83-.03,.22-.1,.67-.2,1.34-.31,2.01-.42,2.54-.96,5.06-1.6,7.55-1.26,4.92-2.9,9.75-4.86,14.43,.21-.5-.08,.19-.1,.24-.12,.28-.24,.56-.37,.85-.25,.56-.5,1.12-.75,1.68-.57,1.26-1.17,2.51-1.78,3.75-1.16,2.34-2.37,4.65-3.64,6.93-5.69,10.23-12.39,19.85-19.09,29.43-1.28,1.83-.39,4.8,1.52,5.81,2.18,1.15,4.45,.43,5.81-1.52,12.42-17.75,24.94-36.03,30.86-57.13,5.47-19.48,4.87-41.22-6.44-58.57-5.75-8.82-13.69-15.74-23.41-19.8-2.06-.86-4.76,.93-5.23,2.97-.57,2.48,.76,4.31,2.97,5.23h0Z"/><path class="e" d="M491.5,256.95c.32,1.64,.59,3.29,.83,4.95,.12,.84-.05-.44,.05,.4,.05,.45,.11,.89,.16,1.34,.09,.83,.18,1.66,.25,2.49,.29,3.33,.41,6.67,.37,10.01s-.24,6.68-.6,10c-.04,.38-.09,.77-.13,1.15-.03,.26-.06,.51-.09,.77,0,.06-.09,.69-.02,.2,.06-.42-.09,.6-.11,.77-.07,.45-.13,.89-.2,1.33-.26,1.65-.57,3.3-.91,4.93-1.37,6.56-3.36,12.96-5.89,19.16-.02,.04-.26,.63-.08,.2,.19-.47-.12,.28-.16,.38-.15,.35-.31,.71-.46,1.06-.34,.76-.69,1.52-1.04,2.28-.71,1.51-1.46,3.01-2.25,4.48-1.57,2.95-3.27,5.83-5.11,8.62-1.06,1.61-2.17,3.19-3.32,4.73-.27,.36-.54,.72-.81,1.08-.29,.39,.03-.04,.08-.1-.16,.2-.32,.4-.48,.61-.6,.76-1.21,1.5-1.83,2.24-2.44,2.91-5.04,5.67-7.8,8.28-1.62,1.53-1.66,4.49,0,6.01s4.29,1.64,6.01,0c10.13-9.62,18.31-21.34,23.96-34.12s9.17-27.21,9.69-41.56c.29-8.02-.39-16.07-1.91-23.95-.42-2.19-3.16-3.64-5.23-2.97-2.33,.75-3.42,2.88-2.97,5.23h0Z"/><path class="e" d="M485.74,373.32c-.5,1.26-1,2.51-1.51,3.76-.14,.33-.27,.66-.41,.99-.33,.79-.14,.34-.07,.16-.33,.79-.67,1.57-1.01,2.35-1.08,2.48-2.2,4.94-3.36,7.38-2.38,5.01-4.93,9.94-7.65,14.78-5.36,9.55-11.34,18.76-17.9,27.52-1.72,2.3-2.69,3.55-4.56,5.88s-3.6,4.41-5.46,6.56c-3.53,4.1-7.19,8.07-10.98,11.93-7.83,7.97-16.76,15.43-20.86,26.15-3.34,8.73-2.34,20.57,5.12,26.97,9.25,7.93,22.41,5.24,31.57-1.33,4.67-3.35,8.79-7.38,12.86-11.42s7.81-7.96,11.56-12.08c7.55-8.31,14.65-17.01,21.34-26.03,13.19-17.79,24.58-36.93,33.91-57.02,1.14-2.46,2.25-4.94,3.34-7.43,.88-2.03,.67-4.66-1.52-5.81-1.84-.97-4.87-.65-5.81,1.52-8.61,19.79-19.17,38.72-31.49,56.44-3.02,4.34-6.14,8.61-9.37,12.8,.39-.51-.16,.21-.25,.33-.22,.28-.44,.56-.66,.85-.35,.45-.71,.9-1.06,1.35-.89,1.12-1.78,2.24-2.68,3.34-1.71,2.11-3.45,4.19-5.22,6.26-6.96,8.15-14.32,15.96-22.07,23.37-1.97,1.89-3.99,3.74-6.13,5.44-.67,.53-.31,.24-.16,.12-.29,.21-.57,.43-.86,.64-.52,.37-1.05,.74-1.59,1.09-1.19,.78-2.43,1.49-3.71,2.11-.23,.11-1.58,.68-.91,.42-.61,.23-1.22,.45-1.84,.64-.5,.15-1,.29-1.51,.41-.32,.07-.64,.14-.96,.2-.13,.03-1.28,.2-.79,.14,.64-.07-.63,.05-.6,.05-.26,.02-.52,.04-.78,.05-.58,.02-1.16,.02-1.74,0-.32-.01-.64-.05-.96-.07-.18-.01-.82-.14-.01,0-.63-.11-1.25-.23-1.87-.4s-1.22-.36-1.8-.6c.17,.07,.68,.34-.03-.04-.28-.15-.57-.29-.84-.45-.49-.28-.95-.6-1.41-.92,.71,.5,.22,.17,.07,.04-.24-.23-.5-.44-.73-.67-.39-.39-.75-.8-1.1-1.22,.58,.69-.1-.17-.29-.46-.3-.46-.57-.93-.81-1.42-.1-.2-.19-.39-.29-.59-.48-.98,.27,.83-.08-.2-.33-.95-.62-1.9-.83-2.89-.05-.22-.08-.44-.13-.66-.23-1.07,.05,.64-.02-.04-.06-.62-.12-1.25-.14-1.87-.04-1.03,0-2.07,.09-3.1,.02-.23,.05-.46,.07-.69-.08,.92-.05,.31,0,.1,.12-.62,.22-1.25,.37-1.86,.24-1,.54-1.99,.9-2.96,.08-.22,.39-.95,.02-.09,.11-.26,.22-.51,.34-.76,.29-.63,.6-1.24,.93-1.85,.62-1.15,1.31-2.27,2.05-3.35,.35-.51,.71-1.02,1.08-1.52,.5-.68,.2-.27,.09-.13,.25-.33,.52-.65,.78-.97,3.37-4.11,7.26-7.74,11.04-11.48,7.58-7.5,14.68-15.5,21.23-23.92,13.3-17.09,24.48-35.73,33.01-55.64,1.13-2.63,2.22-5.26,3.27-7.92,.82-2.07-.89-4.76-2.97-5.23-2.45-.56-4.35,.75-5.23,2.97h0Z"/><path class="e" d="M141.19,92.87c-3-3.86-7.48-6.96-12.34-7.84-5.34-.96-11.05,.29-15.03,4.14-3.66,3.55-5.44,9.32-3.9,14.26,1.68,5.38,6.32,8.57,10.61,11.78l15.34,11.47c1.79,1.34,4.83,.35,5.81-1.52,1.18-2.23,.38-4.39-1.52-5.81l-11.6-8.67c-1.93-1.44-3.86-2.87-5.78-4.32-.16-.12-.32-.24-.47-.36,.56,.43,.02,.01-.08-.07-.36-.29-.72-.59-1.07-.89-.74-.65-1.41-1.35-2.07-2.08,.5,.55-.35-.52-.46-.71-.1-.17-.19-.33-.28-.5-.05-.1-.36-.84-.19-.37,.15,.42-.04-.15-.05-.2-.06-.23-.12-.47-.18-.7-.02-.08-.12-.67-.04-.14,.09,.6-.01-.38-.01-.51,0-.24,0-.48,.01-.72,0-.08,.06-.68,0-.15-.06,.5,.15-.66,.2-.85,.04-.16,.45-1.25,.27-.86-.22,.49,.12-.2,.17-.31,.14-.27,.31-.52,.46-.78,.03-.05,.36-.56,.09-.16-.29,.43,.15-.18,.24-.28,.28-.32,.59-.61,.9-.89,.04-.03,.54-.4,.17-.15-.4,.28,.27-.16,.36-.21,.16-.1,.33-.2,.49-.29-.02,.01,.99-.5,.53-.29s.27-.1,.39-.14c.18-.06,.36-.12,.55-.18,.43-.13,.88-.19,1.31-.31,.63-.17-.64,.02,.02,0,.19,0,.39-.03,.58-.04,.58-.03,1.16-.02,1.74,.02,.19,.01,.39,.03,.58,.05-.86-.11,.03,.03,.2,.07,.5,.11,1,.25,1.49,.41,.24,.08,.48,.17,.72,.26,.63,.23-.83-.44,.22,.11,.45,.24,.91,.48,1.35,.75s.86,.56,1.28,.87c-.62-.46,.46,.41,.63,.57,.86,.79,1.63,1.66,2.34,2.57,1.37,1.77,4.59,1.55,6.01,0,1.72-1.87,1.46-4.13,0-6.01h0Z"/><path class="e" d="M143.92,96.66c.1-.4,.24-.79,.36-1.18,.18-.58-.34,.56,0,.05,.09-.14,.16-.32,.25-.47,.11-.2,.69-1.07,.45-.74-.29,.4,.06-.06,.11-.12,.2-.22,.4-.43,.61-.64,.23-.22,1.01-.79,.35-.36,.34-.23,.68-.46,1.04-.66,.28-.16,1.21-.48,.42-.23,.45-.14,.9-.27,1.35-.38,.24-.06,.73-.01-.06,0,.18,0,.36-.02,.54-.03,.42-.01,.85,0,1.27,.04-.86-.07,.16,.06,.48,.14,.18,.05,.35,.09,.52,.15,.01,0,1,.4,.51,.17-.4-.19,.62,.35,.79,.45,.21,.13,.4,.27,.61,.4-.06-.04-.49-.44-.14-.11,.31,.29,.61,.59,.92,.87,.12,.11,.5,.62,.03-.02,.14,.2,.28,.4,.41,.6,.14,.22,.26,.46,.39,.69,.02,.04,.29,.62,.11,.21s.06,.18,.07,.22c.08,.25,.16,.5,.22,.75s.12,.51,.17,.76c.01,.06,.08,.69,.04,.21s0,.17,0,.22c0,.33,.02,.66,.02,.99,0,.46-.04,.93-.09,1.39,.09-.81-.1,.42-.16,.65-.11,.46-.23,.91-.38,1.36-.08,.26-.17,.51-.27,.76-.1,.28-.23,.5-.04,.1-.41,.87-.88,1.71-1.41,2.51-.27,.41-.55,.81-.84,1.2s-.03,.04,.02-.03c-.22,.27-.44,.54-.67,.81-1.34,1.55-2.82,2.96-4.33,4.33-3.86,3.48-7.82,6.84-11.74,10.26-1.68,1.47-1.61,4.53,0,6.01,1.79,1.65,4.22,1.56,6.01,0,4.07-3.55,8.22-7.04,12.21-10.68s7.36-7.59,9.12-12.62,1.5-10.87-1.64-15.12c-3.31-4.49-8.71-6.79-14.24-5.93s-10.23,5.39-11.58,10.79c-.54,2.15,.69,4.71,2.97,5.23s4.65-.66,5.23-2.97h0Z"/><path class="e" d="M30.81,182.94c-4.06-3.55-9.23-6.04-14.73-5.87s-10.41,2.64-13.52,7.03-3.43,10.45-.84,15.05,7.29,6.67,11.7,8.8l17.24,8.34c2,.97,4.69,.61,5.81-1.52,1.01-1.9,.61-4.78-1.52-5.81l-13.04-6.31c-3.73-1.8-7.94-3.35-11.26-5.89,.61,.46-.25-.25-.42-.42-.31-.3-.61-.62-.89-.95,.49,.58-.16-.3-.29-.52-.09-.16-.17-.33-.26-.49,.38,.69,.02,.02-.04-.19-.13-.41-.22-.83-.3-1.26,.14,.85,.02-.23,.03-.54s.15-1.35,0-.54c.1-.49,.2-.98,.35-1.46,.07-.24,.16-.48,.25-.71-.07,.18-.35,.67,.04,0,.19-.33,.37-.65,.57-.97,.43-.67,.13-.17,0-.04,.16-.19,.33-.37,.5-.55s1.18-1.06,.53-.56c.69-.53,1.46-.96,2.24-1.33-.73,.34,.31-.1,.56-.18,.48-.15,.96-.27,1.45-.37,.13-.03,.91-.13,.36-.07-.58,.06,.56-.03,.56-.03,.51-.02,1.02,0,1.54,.02,.03,0,.71,.05,.25,0-.51-.05,.55,.1,.65,.12,.54,.11,1.07,.25,1.59,.42,.26,.08,.52,.18,.78,.27s.54,.23,.13,.04c.5,.23,.99,.48,1.47,.75,.54,.31,1.06,.64,1.57,1,.17,.12,.34,.24,.5,.37-.59-.46,.41,.37,.42,.39,1.67,1.46,4.39,1.77,6.01,0,1.47-1.6,1.79-4.45,0-6.01h0Z"/><path class="e" d="M33.59,185.29c.01-.24,.03-.48,.05-.73,0,.09-.16,.68,0,.23,.14-.39,.22-.82,.34-1.22,.06-.2,.34-.68-.02,0,.08-.16,.16-.33,.24-.49,.23-.43,.5-.83,.77-1.23,.34-.51-.45,.41,.02,0,.13-.11,.25-.27,.37-.4,.17-.17,.35-.33,.53-.5,.05-.04,.52-.41,.13-.12s.11-.06,.16-.09c.21-.13,.41-.26,.62-.38s.43-.22,.65-.33c-.36,.18-.4,.14,0,.03s.82-.2,1.23-.31c.47-.13-.16,.02-.23,.02,.24,0,.48-.04,.72-.04,.43,0,.85,.03,1.27,.05,.5,.03-.17,0-.23-.03,.29,.08,.59,.12,.89,.2,.27,.07,1.26,.45,.52,.12,.39,.17,.76,.37,1.12,.59,.24,.15,1.05,.82,.46,.29,.36,.33,.7,.67,1.03,1.03-.53-.57,.14,.21,.29,.46,.22,.36,.41,.73,.6,1.11-.36-.74,.06,.22,.15,.5,.14,.47,.21,.95,.35,1.41,.18,.62-.04-.69,0-.04,.01,.18,.04,.37,.05,.55,.03,.43,.04,.86,.03,1.3s-.04,.87-.07,1.3c-.01,.2-.15,.8,.01-.02-.05,.24-.08,.49-.13,.73-.18,.89-.44,1.76-.75,2.61-.1,.27-.2,.54-.31,.81,.04-.09,.2-.47,0-.03-.25,.52-.5,1.04-.78,1.54-1.01,1.85-2.2,3.58-3.46,5.27-.35,.47-.7,.93-1.06,1.39,.12-.15,.39-.5-.14,.17-.19,.24-.38,.48-.57,.73-.8,1.02-1.59,2.04-2.39,3.06l-5.07,6.51c-1.36,1.75-1.83,4.33,0,6.01,1.52,1.4,4.55,1.87,6.01,0,3.52-4.52,7.13-8.99,10.55-13.58,3.22-4.32,5.84-9.04,6.5-14.46,.61-4.94-.72-10.29-4.31-13.88s-9.44-5.15-14.39-3.63c-5.95,1.83-9.93,7.33-10.26,13.47-.12,2.22,2.04,4.35,4.25,4.25,2.4-.11,4.12-1.87,4.25-4.25h0Z"/><path class="e" d="M186.31,308.83c-3-3.86-7.48-6.96-12.34-7.84-5.34-.96-11.05,.29-15.03,4.14-3.66,3.55-5.44,9.32-3.9,14.26,1.68,5.38,6.32,8.57,10.61,11.78l15.34,11.47c1.79,1.34,4.83,.35,5.81-1.52,1.18-2.23,.38-4.39-1.52-5.81l-11.6-8.67c-1.93-1.44-3.86-2.87-5.78-4.32-.16-.12-.32-.24-.47-.36,.56,.43,.02,.01-.08-.07-.36-.29-.72-.59-1.07-.89-.74-.65-1.41-1.35-2.07-2.08,.5,.55-.35-.52-.46-.71-.1-.17-.19-.33-.28-.5-.05-.1-.36-.84-.19-.37,.15,.42-.04-.15-.05-.2-.06-.23-.12-.47-.18-.7-.02-.08-.12-.67-.04-.14,.09,.6-.01-.38-.01-.51,0-.24,0-.48,.01-.72,0-.08,.06-.68,0-.15-.06,.5,.15-.66,.2-.85,.04-.16,.45-1.25,.27-.86-.22,.49,.12-.2,.17-.31,.14-.27,.31-.52,.46-.78,.03-.05,.36-.56,.09-.16-.29,.43,.15-.18,.24-.28,.28-.32,.59-.61,.9-.89,.04-.03,.54-.4,.17-.15-.4,.28,.27-.16,.36-.21,.16-.1,.33-.2,.49-.29-.02,.01,.99-.5,.53-.29s.27-.1,.39-.14c.18-.06,.36-.12,.55-.18,.43-.13,.88-.19,1.31-.31,.63-.17-.64,.02,.02,0,.19,0,.39-.03,.58-.04,.58-.03,1.16-.02,1.74,.02,.19,.01,.39,.03,.58,.05-.86-.11,.03,.03,.2,.07,.5,.11,1,.25,1.49,.41,.24,.08,.48,.17,.72,.26,.63,.23-.83-.44,.22,.11,.45,.24,.91,.48,1.35,.75s.86,.56,1.28,.87c-.62-.46,.46,.41,.63,.57,.86,.79,1.63,1.66,2.34,2.57,1.37,1.77,4.59,1.55,6.01,0,1.72-1.87,1.46-4.13,0-6.01h0Z"/><path class="e" d="M189.04,312.62c.1-.4,.24-.79,.36-1.18,.18-.58-.34,.56,0,.05,.09-.14,.16-.32,.25-.47,.11-.2,.69-1.07,.45-.74-.29,.4,.06-.06,.11-.12,.2-.22,.4-.43,.61-.64,.23-.22,1.01-.79,.35-.36,.34-.23,.68-.46,1.04-.66,.28-.16,1.21-.48,.42-.23,.45-.14,.9-.27,1.35-.38,.24-.06,.73-.01-.06,0,.18,0,.36-.02,.54-.03,.42-.01,.85,0,1.27,.04-.86-.07,.16,.06,.48,.14,.18,.05,.35,.09,.52,.15,.01,0,1,.4,.51,.17-.4-.19,.62,.35,.79,.45,.21,.13,.4,.27,.61,.4-.06-.04-.49-.44-.14-.11,.31,.29,.61,.59,.92,.87,.12,.11,.5,.62,.03-.02,.14,.2,.28,.4,.41,.6,.14,.22,.26,.46,.39,.69,.02,.04,.29,.62,.11,.21s.06,.18,.07,.22c.08,.25,.16,.5,.22,.75s.12,.51,.17,.76c.01,.06,.08,.69,.04,.21s0,.17,0,.22c0,.33,.02,.66,.02,.99,0,.46-.04,.93-.09,1.39,.09-.81-.1,.42-.16,.65-.11,.46-.23,.91-.38,1.36-.08,.26-.17,.51-.27,.76-.1,.28-.23,.5-.04,.1-.41,.87-.88,1.71-1.41,2.51-.27,.41-.55,.81-.84,1.2s-.03,.04,.02-.03c-.22,.27-.44,.54-.67,.81-1.34,1.55-2.82,2.96-4.33,4.33-3.86,3.48-7.82,6.84-11.74,10.26-1.68,1.47-1.61,4.53,0,6.01,1.79,1.65,4.22,1.56,6.01,0,4.07-3.55,8.22-7.04,12.21-10.68,3.88-3.54,7.36-7.59,9.12-12.62s1.5-10.87-1.64-15.12c-3.31-4.49-8.71-6.79-14.24-5.93s-10.23,5.39-11.58,10.79c-.54,2.15,.69,4.71,2.97,5.23s4.65-.66,5.23-2.97h0Z"/><path class="e" d="M285.86,73.32c-.78-4.82-3.21-9.73-7.07-12.83-4.22-3.38-9.78-5.09-15.12-3.62-4.73,1.3-8.78,5.1-10.13,9.85-1.67,5.86,1.27,11.47,3.65,16.65l7.77,16.97c.93,2.03,4.02,2.68,5.81,1.52,2.09-1.35,2.52-3.65,1.52-5.81l-5.83-12.72c-1.89-4.12-4.11-7.77-4.87-11.97,.11,.59-.02-.12-.02-.22-.01-.23-.02-.45-.02-.68,0-.3,.02-.6,.03-.9,.02-.55,.01,0-.01,.1,.1-.39,.23-.79,.33-1.18,.11-.45-.07,.14-.1,.21,.13-.26,.26-.52,.4-.77,.16-.27,.75-1.04,.23-.43,.27-.31,.54-.62,.83-.9,.21-.21,1.03-.8,.36-.35,.39-.26,.78-.52,1.2-.74,.16-.08,.32-.15,.47-.24,.54-.29-.63,.16-.04,.03,.4-.09,.79-.24,1.18-.34,.78-.2-.36-.03,.44-.07,.53-.03,1.05-.02,1.58,0,.83,.03,.24,.02,.05-.01,.2,.03,.39,.07,.59,.11,.45,.1,.9,.22,1.35,.36,.25,.08,.51,.17,.75,.27-.1-.04-.5-.27-.1-.02,.45,.28,.95,.49,1.4,.78,.17,.11,.33,.22,.5,.33,1.02,.7-.28-.27,.24,.2,.4,.36,.78,.72,1.14,1.11,.14,.15,.27,.3,.4,.44,.82,.92-.21-.34,.19,.24,.3,.44,.59,.88,.86,1.34s.49,.95,.73,1.42c.22,.43,0-.01-.03-.1,.12,.31,.24,.62,.34,.94,.36,1.08,.62,2.18,.8,3.3,.36,2.2,3.21,3.62,5.23,2.97,2.39-.77,3.35-2.87,2.97-5.23h0Z"/><path class="e" d="M286.37,77.93c.29-.31,.61-.59,.91-.89,.42-.44-.53,.3,0,0,.16-.09,.3-.2,.46-.3,.21-.13,.42-.24,.63-.36,.05-.03,.6-.3,.15-.09-.48,.23,.22-.07,.34-.12,.23-.08,.46-.15,.7-.21,.34-.09,1.31-.2,.48-.14,.42-.03,.84-.06,1.27-.05,.24,0,.48,.03,.72,.04,.49,.01-.17-.01-.23-.03,.47,.13,.94,.22,1.4,.37,.76,.24,.11,.05-.04-.03,.21,.11,.42,.21,.62,.33,.31,.18,.59,.38,.89,.57-.75-.5,.31,.31,.48,.48,.12,.13,.24,.26,.36,.39,.16,.17,.52,.8,.1,.11,.21,.35,.45,.69,.65,1.05,.08,.16,.16,.32,.24,.47-.08-.14-.27-.8-.02-.04,.13,.39,.25,.78,.34,1.18,.04,.17,.07,.34,.1,.52-.12-.59-.04-.35-.03,.11s-.02,.87-.03,1.31c.02-.8-.05,.17-.13,.51-.11,.42-.26,.82-.39,1.24,.23-.75-.2,.39-.35,.68-.21,.39-.44,.76-.69,1.12-.06,.09-.54,.73-.23,.33,.28-.36-.12,.13-.15,.16-.65,.72-1.34,1.35-2.04,2-.48,.44,.5-.32-.04,.03-.16,.1-.31,.22-.47,.33-.4,.27-.82,.53-1.24,.77s-.88,.49-1.34,.71c-.26,.13-.52,.25-.78,.37,.41-.18,0,0-.18,.07-2.03,.79-4.13,1.37-6.25,1.88-5.08,1.22-10.2,2.28-15.3,3.41-2.17,.48-3.65,3.12-2.97,5.23,.74,2.28,2.9,3.48,5.23,2.97,5.38-1.19,10.8-2.28,16.15-3.61s10.18-3.22,14.06-6.89c3.6-3.41,6.12-8.45,5.58-13.5-.59-5.48-4.1-10.13-9.22-12.19s-11.88-.5-15.75,3.71c-1.51,1.64-1.74,4.41,0,6.01,1.64,1.5,4.4,1.75,6.01,0h0Z"/></svg>