<svg id="Layer_1" data-name="Layer 1" xmlns="http://www.w3.org/2000/svg" viewBox="0 0 841.89 595.28"><defs><style>.cls-1{font-size:38.41px;}.cls-1,.cls-2,.cls-3,.cls-4{fill:#ef7846;}.cls-1,.cls-2,.cls-3{font-family:InkFree, Ink Free;}.cls-2{font-size:38.41px;}.cls-3{font-size:38.41px;}</style></defs><text class="cls-1" transform="matrix(0.71, 0.71, -0.71, 0.71, 240.55, 60.72)">MARKETING</text><text class="cls-2" transform="translate(127.41 154.8) rotate(24.34)">MARKETING</text><text class="cls-3" transform="translate(135.09 304.5) rotate(5.01)">MARKETING</text><path class="cls-4" d="M460.59,148.91a197,197,0,0,0-38.18,26.28,211.91,211.91,0,0,0-31.26,34.23,219.94,219.94,0,0,0-37.64,84.07,204.33,204.33,0,0,0-4.44,46.14,194.46,194.46,0,0,0,1.87,23.24c.51,3.62,1.27,7.42,3.32,10.52a10.48,10.48,0,0,0,10,5c4.31-.52,7.84-3.52,10.55-6.73a128.45,128.45,0,0,0,8.06-11.47q8-11.94,15.56-24.15Q413.59,311.54,427,286t25-52q11.61-26.5,21.34-53.78,2.35-6.6,4.59-13.25c1-3-3.79-4.36-4.82-1.33q-9,26.68-19.81,52.71t-23.38,51q-12.65,25.28-27,49.64-7.14,12.08-14.68,23.9c-5,7.88-10.08,15.81-15.53,23.4-2,2.81-4.75,6.1-8.24,7-3.17.82-5.45-1.36-6.72-4-1.47-3.06-1.81-6.66-2.23-10q-.69-5.58-1.05-11.19a195.8,195.8,0,0,1,2.27-44.59,213,213,0,0,1,12.08-43.4,216.07,216.07,0,0,1,20.78-39.72A209.48,209.48,0,0,1,418.1,186a194.78,194.78,0,0,1,35.36-27.32q4.76-2.85,9.65-5.41c2.85-1.5.33-5.82-2.52-4.32Z"/><path class="cls-4" d="M464.27,152a261.38,261.38,0,0,0,22.57,38.82,276.48,276.48,0,0,0,28.91,34.7A279.74,279.74,0,0,0,549.82,255a272.28,272.28,0,0,0,38.28,23.48,264.6,264.6,0,0,0,41.72,16.81q2.71.84,5.44,1.6c3.1.88,4.43-3.94,1.33-4.82a257.93,257.93,0,0,1-41.39-15.65A270.71,270.71,0,0,1,557,254,272.27,272.27,0,0,1,523,225.76a267.62,267.62,0,0,1-29-33.44,261.58,261.58,0,0,1-23-37.87c-.81-1.63-1.6-3.28-2.38-4.93a2.52,2.52,0,0,0-3.42-.9,2.55,2.55,0,0,0-.9,3.42Z"/><path class="cls-4" d="M362.63,386.93a315.45,315.45,0,0,1,53.63-12.09A325.68,325.68,0,0,1,471,372.15a330.94,330.94,0,0,1,107,21.67,313.71,313.71,0,0,1,49.22,24c1.92,1.16,3.84,2.34,5.74,3.54,2.73,1.72,5.24-2.6,2.52-4.32A319.88,319.88,0,0,0,586,391.65a328.6,328.6,0,0,0-52.89-16.57,338.45,338.45,0,0,0-55.16-7.62,329.8,329.8,0,0,0-55.41,1.61,320.82,320.82,0,0,0-54.54,11q-3.33,1-6.66,2.05c-3.05,1-1.75,5.81,1.33,4.82Z"/><path class="cls-4" d="M640.18,299.62c15.31,6.39,25,22.16,27.57,38.06,3.28,20.23-3.8,40.64-13.52,58.11-5.7,10.22-12.39,19.84-19.09,29.42a2.5,2.5,0,1,0,4.32,2.53c12.32-17.62,24.8-35.77,30.68-56.72,5.35-19,4.8-40.25-6.26-57.22a49.73,49.73,0,0,0-22.37-19,2.51,2.51,0,0,0-3.07,1.74,2.56,2.56,0,0,0,1.74,3.08Z"/><path class="cls-4" d="M607.3,298.05a100.22,100.22,0,0,1-.41,39.27,105.52,105.52,0,0,1-15.17,36.6,98.42,98.42,0,0,1-14.42,17.19c-2.34,2.22,1.2,5.75,3.53,3.54a105.09,105.09,0,0,0,23.68-33.77A110.75,110.75,0,0,0,614,320.2a104.48,104.48,0,0,0-1.85-23.48,2.51,2.51,0,0,0-3.07-1.75,2.56,2.56,0,0,0-1.75,3.08Z"/><path class="cls-4" d="M601.54,408.35a246.84,246.84,0,0,1-32.09,57.36,241.77,241.77,0,0,1-21.27,24.73c-7.58,7.71-16.43,15-20.41,25.37-3.14,8.19-2.35,19.24,4.67,25.27,8.64,7.41,21,4.46,29.45-1.61a106.61,106.61,0,0,0,12.51-11.15q5.93-5.9,11.55-12.08,11.17-12.3,21.07-25.68a327.26,327.26,0,0,0,33.91-57c1.14-2.47,2.25-4.94,3.33-7.43a2.58,2.58,0,0,0-.89-3.42,2.52,2.52,0,0,0-3.42.89A327.54,327.54,0,0,1,608.45,480a321.08,321.08,0,0,1-41.58,48.65C560,535.22,551,542.73,540.75,540c-8.57-2.32-11-11.93-9.12-19.7,2.36-9.89,10.76-17,17.68-23.87a248.23,248.23,0,0,0,21.22-23.92,251.42,251.42,0,0,0,32.74-55.29q1.61-3.74,3.09-7.5a2.52,2.52,0,0,0-1.74-3.08,2.57,2.57,0,0,0-3.08,1.75Z"/><path class="cls-4" d="M254.07,128.67a19.47,19.47,0,0,0-11.57-7.39,15.29,15.29,0,0,0-13.33,3.7,12.77,12.77,0,0,0-3.44,12.55c1.52,4.89,5.91,7.83,9.81,10.74l15.34,11.47a2.53,2.53,0,0,0,3.42-.9,2.57,2.57,0,0,0-.9-3.42l-11.6-8.68c-1.93-1.44-3.86-2.87-5.79-4.32a23.08,23.08,0,0,1-4-3.67,7.39,7.39,0,0,1-.36-8.92c1.9-2.93,5.54-4.05,8.88-3.8,4.11.3,7.6,3,10,6.18a2.52,2.52,0,0,0,3.54,0,2.57,2.57,0,0,0,0-3.54Z"/><path class="cls-4" d="M256.34,130.76a8,8,0,0,1,6.16-6,7.88,7.88,0,0,1,7.84,3.46c1.88,3,1.48,7,.09,10.08-1.62,3.65-4.58,6.53-7.5,9.17-3.86,3.47-7.82,6.84-11.74,10.25a2.53,2.53,0,0,0,0,3.54,2.55,2.55,0,0,0,3.54,0c4.07-3.55,8.22-7,12.21-10.68,3.64-3.33,7-7.12,8.67-11.85,1.56-4.46,1.43-9.87-1.47-13.78a12.67,12.67,0,0,0-22.62,4.44c-.78,3.12,4,4.45,4.82,1.33Z"/><path class="cls-4" d="M143.69,218.74c-3.72-3.25-8.46-5.51-13.49-5.36a15.29,15.29,0,0,0-12,6.16,12.74,12.74,0,0,0-.84,13.29c2.35,4.18,7,6.18,11.07,8.17l17.25,8.34a2.57,2.57,0,0,0,3.42-.9,2.53,2.53,0,0,0-.9-3.42l-13-6.31c-2.11-1-4.21-2-6.31-3.05a26.68,26.68,0,0,1-5-2.84,7.38,7.38,0,0,1-2.63-8.34c1-3.3,4.11-5.29,7.37-5.93,4.14-.82,8.45,1,11.52,3.73a2.56,2.56,0,0,0,3.54,0,2.54,2.54,0,0,0,0-3.54Z"/><path class="cls-4" d="M146,219.86a7.68,7.68,0,0,1,13.61-4.53c2,2.43,2.36,6,1.74,9-.81,4-3.1,7.42-5.48,10.61-3.08,4.14-6.32,8.16-9.49,12.22a2.58,2.58,0,0,0,0,3.54,2.51,2.51,0,0,0,3.53,0c3.44-4.4,6.95-8.76,10.28-13.23,3-4,5.62-8.49,6.26-13.58.57-4.49-.52-9.36-3.8-12.64a12.67,12.67,0,0,0-21.65,8.6c-.17,3.21,4.83,3.2,5,0Z"/><path class="cls-4" d="M299.19,344.63a19.47,19.47,0,0,0-11.56-7.39,15.29,15.29,0,0,0-13.33,3.7,12.77,12.77,0,0,0-3.45,12.55c1.53,4.89,5.92,7.83,9.81,10.74L296,375.7a2.52,2.52,0,0,0,3.42-.9,2.56,2.56,0,0,0-.89-3.42l-11.61-8.68c-1.93-1.44-3.86-2.87-5.78-4.32a22.72,22.72,0,0,1-4-3.67,7.37,7.37,0,0,1-.37-8.92c1.91-2.93,5.55-4.05,8.89-3.8,4.11.3,7.6,3,10,6.18a2.5,2.5,0,0,0,3.53,0,2.56,2.56,0,0,0,0-3.54Z"/><path class="cls-4" d="M301.47,346.72a8,8,0,0,1,6.16-6,7.88,7.88,0,0,1,7.84,3.46c1.88,3,1.48,6.95.09,10.08-1.63,3.65-4.58,6.53-7.51,9.17-3.85,3.47-7.82,6.84-11.73,10.25a2.5,2.5,0,0,0,3.53,3.54c4.08-3.55,8.22-7,12.21-10.68,3.64-3.33,7-7.12,8.67-11.85,1.56-4.46,1.44-9.87-1.46-13.78a12.67,12.67,0,0,0-22.62,4.44c-.78,3.12,4,4.45,4.82,1.33Z"/><path class="cls-4" d="M398.29,108.35a19.44,19.44,0,0,0-6.62-12,15.27,15.27,0,0,0-13.42-3.17,12.93,12.93,0,0,0-8.91,8.62c-1.52,5.35,1.31,10.58,3.47,15.31l7.78,17a2.52,2.52,0,0,0,3.42.9,2.55,2.55,0,0,0,.89-3.42l-5.83-12.73c-1-2.15-2-4.31-3-6.47a24,24,0,0,1-2.09-5.92,7.35,7.35,0,0,1,4-7.83c3-1.6,6.68-.9,9.45.86,3.52,2.25,5.32,6.28,6,10.27a2.52,2.52,0,0,0,3.07,1.75,2.56,2.56,0,0,0,1.75-3.08Z"/><path class="cls-4" d="M399.25,111.26a8,8,0,0,1,8.53-2.23,7.88,7.88,0,0,1,5,6.83c.13,3.43-1.95,6.5-4.53,8.59-3.14,2.54-7.22,3.68-11.07,4.6-5.08,1.22-10.2,2.28-15.3,3.41-3.14.69-1.81,5.51,1.33,4.82,5.38-1.19,10.8-2.28,16.15-3.61,4.8-1.2,9.63-3,13.28-6.44,3.29-3.12,5.6-7.65,5.07-12.26a12.68,12.68,0,0,0-22-7.25c-2.17,2.37,1.35,5.91,3.54,3.54Z"/></svg>