<svg id="Layer_1" data-name="Layer 1" xmlns="http://www.w3.org/2000/svg" viewBox="0 0 600 600"><defs><style>.cls-1,.cls-2{isolation:isolate;font-family:InkFree, Ink Free;}.cls-1{font-size:38.57px;}.cls-1,.cls-2,.cls-3{fill:#ef7846;}.cls-2{font-size:38.41px;}</style></defs><text class="cls-1" transform="translate(145.89 70.01) rotate(45)">MARKETING</text><text class="cls-2" transform="translate(32.75 164.09) rotate(24.34)">MARKETING</text><text class="cls-2" transform="matrix(1, 0.09, -0.09, 1, 40.43, 313.79)">MARKETING</text><path class="cls-3" d="M365.93,158.2a197.46,197.46,0,0,0-38.18,26.28,212.33,212.33,0,0,0-31.26,34.23,220.15,220.15,0,0,0-37.64,84.07,204.91,204.91,0,0,0-4.44,46.14,196.39,196.39,0,0,0,1.87,23.24c.51,3.62,1.27,7.42,3.32,10.52a10.46,10.46,0,0,0,10,5c4.31-.52,7.84-3.52,10.55-6.73a125,125,0,0,0,8.06-11.47q8-11.94,15.56-24.15,15.17-24.49,28.57-50t25-52Q369,216.8,378.68,189.51q2.35-6.6,4.59-13.25c1-3-3.79-4.36-4.82-1.33q-9,26.69-19.81,52.71t-23.38,51q-12.64,25.29-27,49.64-7.14,12.09-14.68,23.9c-5,7.88-10.08,15.81-15.53,23.4-2,2.81-4.75,6.1-8.24,7-3.17.82-5.45-1.36-6.72-4-1.47-3.06-1.81-6.66-2.23-10q-.69-5.58-1.05-11.19a196.4,196.4,0,0,1,2.27-44.59,213,213,0,0,1,12.08-43.4,216.68,216.68,0,0,1,20.78-39.72,210,210,0,0,1,28.5-34.39A195.12,195.12,0,0,1,358.8,168q4.77-2.85,9.65-5.41c2.85-1.5.33-5.82-2.52-4.32Z"/><path class="cls-3" d="M369.61,161.29a261.75,261.75,0,0,0,22.57,38.82,277.35,277.35,0,0,0,28.91,34.7,279.44,279.44,0,0,0,34.07,29.48,272.28,272.28,0,0,0,38.28,23.48,264.6,264.6,0,0,0,41.72,16.81c1.81.56,3.62,1.1,5.44,1.6,3.1.88,4.43-3.94,1.33-4.82a257.34,257.34,0,0,1-41.39-15.65,269.73,269.73,0,0,1-38.2-22.42,271.69,271.69,0,0,1-34-28.24,267.58,267.58,0,0,1-29-33.44,261.81,261.81,0,0,1-23-37.87c-.81-1.63-1.6-3.28-2.38-4.93a2.53,2.53,0,0,0-3.42-.9,2.56,2.56,0,0,0-.9,3.42Z"/><path class="cls-3" d="M268,396.22a315.67,315.67,0,0,1,53.63-12.09,326.32,326.32,0,0,1,54.74-2.69,331.12,331.12,0,0,1,107,21.67,313.19,313.19,0,0,1,49.22,24c1.92,1.16,3.84,2.34,5.74,3.54,2.73,1.72,5.24-2.6,2.52-4.32a319.88,319.88,0,0,0-49.48-25.39,329.29,329.29,0,0,0-52.89-16.57,338.3,338.3,0,0,0-55.16-7.62,329.83,329.83,0,0,0-55.41,1.61,320.84,320.84,0,0,0-54.54,11q-3.33,1-6.66,2.05c-3.05,1-1.75,5.81,1.33,4.82Z"/><path class="cls-3" d="M545.52,308.91c15.31,6.39,25,22.16,27.57,38.06,3.28,20.23-3.8,40.64-13.52,58.11-5.7,10.22-12.39,19.84-19.09,29.42A2.5,2.5,0,1,0,544.8,437c12.32-17.62,24.8-35.77,30.68-56.72,5.35-19,4.8-40.25-6.26-57.22a49.7,49.7,0,0,0-22.37-19,2.52,2.52,0,0,0-3.07,1.74,2.56,2.56,0,0,0,1.74,3.08Z"/><path class="cls-3" d="M512.64,307.34a100,100,0,0,1-.41,39.27,105.33,105.33,0,0,1-15.17,36.6,98,98,0,0,1-14.42,17.19c-2.34,2.22,1.2,5.75,3.53,3.54a104.94,104.94,0,0,0,23.68-33.77,110.54,110.54,0,0,0,9.49-40.68A104.48,104.48,0,0,0,517.49,306a2.51,2.51,0,0,0-3.07-1.75,2.57,2.57,0,0,0-1.75,3.08Z"/><path class="cls-3" d="M506.88,417.64A246.43,246.43,0,0,1,474.79,475a239.65,239.65,0,0,1-21.27,24.73c-7.58,7.71-16.43,15-20.41,25.37-3.14,8.19-2.35,19.24,4.67,25.27,8.64,7.41,21,4.46,29.45-1.61a105.91,105.91,0,0,0,12.51-11.15q5.94-5.9,11.55-12.08a330.43,330.43,0,0,0,21.07-25.68,326.55,326.55,0,0,0,33.91-57c1.14-2.47,2.25-4.94,3.33-7.43a2.57,2.57,0,0,0-.89-3.42,2.53,2.53,0,0,0-3.42.89,326.52,326.52,0,0,1-31.5,56.4,320.51,320.51,0,0,1-41.58,48.65c-6.87,6.57-15.87,14.08-26.12,11.35-8.57-2.32-11-11.93-9.12-19.7,2.36-9.89,10.76-17,17.68-23.87a248.23,248.23,0,0,0,21.22-23.92,250.8,250.8,0,0,0,32.74-55.29q1.62-3.74,3.09-7.5a2.52,2.52,0,0,0-1.74-3.08,2.57,2.57,0,0,0-3.08,1.75Z"/><path class="cls-3" d="M159.41,138a19.5,19.5,0,0,0-11.57-7.39,15.29,15.29,0,0,0-13.33,3.7,12.77,12.77,0,0,0-3.44,12.55c1.52,4.89,5.91,7.83,9.81,10.74L156.22,169a2.53,2.53,0,0,0,3.42-.9,2.57,2.57,0,0,0-.9-3.42L147.14,156l-5.79-4.32a23.19,23.19,0,0,1-4-3.67,7.4,7.4,0,0,1-.36-8.92c1.9-2.93,5.54-4.05,8.88-3.8,4.11.3,7.6,3,10,6.18a2.52,2.52,0,0,0,3.54,0,2.55,2.55,0,0,0,0-3.54Z"/><path class="cls-3" d="M161.68,140.05a8,8,0,0,1,6.16-6,7.88,7.88,0,0,1,7.84,3.46c1.88,3,1.48,7,.09,10.08-1.62,3.65-4.58,6.53-7.5,9.17-3.86,3.47-7.82,6.84-11.74,10.25a2.5,2.5,0,0,0,3.54,3.54c4.07-3.55,8.22-7,12.21-10.68,3.64-3.33,7-7.12,8.67-11.85,1.56-4.46,1.43-9.87-1.47-13.78a12.67,12.67,0,0,0-22.62,4.44c-.78,3.12,4,4.45,4.82,1.33Z"/><path class="cls-3" d="M49,228c-3.72-3.25-8.46-5.51-13.49-5.36a15.32,15.32,0,0,0-12,6.16,12.76,12.76,0,0,0-.84,13.29c2.35,4.18,7,6.18,11.07,8.17L51,258.63a2.57,2.57,0,0,0,3.42-.9,2.53,2.53,0,0,0-.9-3.42l-13-6.31c-2.11-1-4.21-2-6.31-3.05a26.29,26.29,0,0,1-5-2.84,7.39,7.39,0,0,1-2.63-8.34c1-3.3,4.11-5.29,7.37-5.93,4.14-.82,8.45,1,11.52,3.73A2.5,2.5,0,1,0,49,228Z"/><path class="cls-3" d="M51.34,229.15A7.68,7.68,0,0,1,65,224.62c2,2.43,2.36,6,1.74,9-.81,4-3.1,7.42-5.48,10.61-3.08,4.14-6.32,8.16-9.49,12.22a2.59,2.59,0,0,0,0,3.54,2.5,2.5,0,0,0,3.53,0c3.44-4.4,7-8.76,10.28-13.23,3-4,5.62-8.49,6.26-13.58.57-4.49-.52-9.36-3.8-12.64a12.67,12.67,0,0,0-21.65,8.6c-.17,3.21,4.83,3.2,5,0Z"/><path class="cls-3" d="M204.53,353.92A19.48,19.48,0,0,0,193,346.53a15.29,15.29,0,0,0-13.33,3.7,12.78,12.78,0,0,0-3.45,12.55c1.53,4.89,5.92,7.83,9.81,10.74L201.34,385a2.51,2.51,0,0,0,3.42-.9,2.55,2.55,0,0,0-.89-3.42L192.26,372c-1.93-1.44-3.86-2.87-5.78-4.32a22.83,22.83,0,0,1-4-3.67,7.39,7.39,0,0,1-.37-8.92c1.91-2.93,5.55-4.05,8.89-3.8,4.11.3,7.6,3,10,6.18a2.49,2.49,0,0,0,3.53,0,2.55,2.55,0,0,0,0-3.54Z"/><path class="cls-3" d="M206.81,356a8,8,0,0,1,6.16-6,7.88,7.88,0,0,1,7.84,3.46c1.88,3,1.48,6.95.09,10.08-1.63,3.65-4.58,6.53-7.51,9.17-3.85,3.47-7.82,6.84-11.73,10.25a2.5,2.5,0,0,0,3.53,3.54c4.08-3.55,8.22-7,12.21-10.68,3.64-3.33,7-7.12,8.67-11.85,1.56-4.46,1.44-9.87-1.46-13.78A12.67,12.67,0,0,0,202,354.64c-.78,3.12,4,4.45,4.82,1.33Z"/><path class="cls-3" d="M303.63,117.64a19.43,19.43,0,0,0-6.62-12,15.26,15.26,0,0,0-13.42-3.17,12.94,12.94,0,0,0-8.91,8.62c-1.52,5.35,1.31,10.58,3.47,15.31l7.78,17a2.51,2.51,0,0,0,3.42.9,2.54,2.54,0,0,0,.89-3.42l-5.83-12.73-3-6.47a24.25,24.25,0,0,1-2.09-5.92,7.36,7.36,0,0,1,4-7.83c3-1.6,6.68-.9,9.45.86,3.52,2.25,5.32,6.28,6,10.27a2.52,2.52,0,0,0,3.07,1.75,2.55,2.55,0,0,0,1.75-3.08Z"/><path class="cls-3" d="M304.59,120.55a8,8,0,0,1,8.53-2.23,7.89,7.89,0,0,1,5,6.83c.13,3.43-1.95,6.5-4.53,8.59-3.14,2.54-7.22,3.68-11.07,4.6-5.08,1.22-10.2,2.28-15.3,3.41-3.14.69-1.81,5.51,1.33,4.82,5.38-1.19,10.8-2.28,16.15-3.61,4.8-1.2,9.63-3,13.28-6.44,3.29-3.12,5.6-7.65,5.07-12.26a12.68,12.68,0,0,0-22-7.25C298.88,119.38,302.4,122.92,304.59,120.55Z"/></svg>