<svg id="Layer_1" data-name="Layer 1" xmlns="http://www.w3.org/2000/svg" viewBox="0 0 841.89 595.28"><defs><style>.cls-1{font-size:35.35px;}.cls-1,.cls-2,.cls-3{fill:#ef7846;}.cls-1,.cls-2{font-family:InkFree, Ink Free;}.cls-2{font-size:14.17px;}</style></defs><text class="cls-1" transform="matrix(0.99, -0.13, 0.13, 0.99, 182.3, 246.79)">WEBSITES<tspan x="0" y="42.42">WEDESIGN </tspan><tspan x="0" y="84.84">FOR YOU</tspan></text><text class="cls-2" transform="translate(588.71 282.12) rotate(0.47)">WEBSITES<tspan x="0" y="17">WEDESIGN </tspan><tspan x="0" y="34">FOR YOU</tspan></text><path class="cls-3" d="M151.05,437,128.61,306.62l-11.22-65.18c-.9-5.23-1.91-10.45-2.64-15.71-.68-5-1-10.16.36-15,2.24-8.09,9-13.43,16.22-17.11,8.11-4.16,17.07-6.82,25.77-9.44,9.83-3,19.8-5.49,29.84-7.64a571.85,571.85,0,0,1,60.94-9.25c42.52-4.4,85.3-6.6,128-9.55l65.93-4.58c17.78-1.24,37.93-3.58,54.07,5.77,14.59,8.45,21.09,24.86,25.17,40.4,2.41,9.18,4.23,18.53,6.23,27.81l6.82,31.68L541,290.87c2.26,10.5,4.8,21,6.56,31.58,1.7,10.26,2.33,21-.7,31.06A52,52,0,0,1,534,374.57c-13,13.45-30.84,20.16-48.79,24.07-10,2.18-20.17,3.61-30.3,5.13l-32.68,4.88L292,428.11l-64.93,9.69-32.68,4.89c-5.38.8-10.76,1.7-16.17,2.38-5,.62-10.12,1-15-.26-7.19-1.83-14.47-9-11.46-17,1-2.56-3.13-3.67-4.1-1.13-2.91,7.65,1.95,15.85,8.52,19.8,8.67,5.21,19.6,3.21,29,1.81l67.08-10,135-20.17,67.08-10c20.55-3.07,41.67-5.68,60.6-14.81,15.19-7.34,28.87-19.53,34.92-35.59,7.51-20,.74-42.14-3.55-62.06L532,228.93c-3.82-17.75-6.54-36.64-15-52.94a52,52,0,0,0-15.51-18.51c-7.45-5.37-16.4-7.95-25.43-9-9.41-1.13-18.94-.63-28.37,0L414,150.8c-44.67,3.1-89.36,5.94-134,9.36-42.16,3.23-84.61,7.83-125.2,20.23-9,2.74-18.17,5.55-26.47,10-7.15,3.81-13.63,9.27-16.6,17-3.67,9.59-1,20.33.68,30.06l5.76,33.44,23.17,134.64L147,438.1c.46,2.69,4.56,1.55,4.1-1.13Z"/><path class="cls-3" d="M167.53,414.82,146.47,298.87,136,241.29c-1.51-8.34-4.47-18.31-.46-26.39,3.15-6.34,9.59-10.17,15.86-12.91,7.78-3.41,16.13-5.74,24.3-8,8.83-2.44,17.77-4.49,26.76-6.24,18-3.5,36.27-5.78,54.55-7.48,37.9-3.52,76-5.34,114-7.76l58.72-3.75c15.69-1,33.33-2.84,47.67,5.05,13.14,7.23,19.23,21.46,23,35.27,2.23,8.14,3.93,16.44,5.8,24.67l6.47,28.6,6.39,28.23c2.11,9.32,4.53,18.64,6,28.09,1.39,8.94,1.53,18.24-1.68,26.82A46.5,46.5,0,0,1,511,363.11c-12.38,11.36-28.79,16.55-45,19.66-18.64,3.59-37.64,5.66-56.43,8.31l-116,16.35-58.37,8.23-28.8,4.06c-4.85.69-9.7,1.46-14.57,2-4.46.52-9.09.84-13.49-.25-6.15-1.53-13-7.54-10.26-14.47,1-2.55-3.11-3.66-4.1-1.13-2.7,6.91,2,14.31,8,17.68,7.82,4.39,17.37,2.81,25.8,1.62l60.32-8.5L378,399.79l60.32-8.5c18.44-2.6,37.39-4.6,54.69-11.93,13.9-5.89,27.12-15.94,33.36-30.07,7.73-17.49,2-36.81-2-54.48L511,235.69c-3.59-15.82-6.13-32.81-14-47.24a46.33,46.33,0,0,0-14.3-16.32c-6.68-4.58-14.58-6.8-22.54-7.78-8.38-1-16.87-.67-25.28-.15-9.82.61-19.65,1.26-29.47,1.88-40,2.56-80,4.92-120,7.7-37.72,2.62-75.71,6.28-112.24,16.52-8.25,2.31-16.61,4.74-24.44,8.26-6.56,2.95-13.12,7.2-16.6,13.71-4.19,7.85-2.64,16.79-1.13,25.13q2.75,15.07,5.48,30.14L158.17,387l5.26,29c.49,2.69,4.59,1.55,4.1-1.12Z"/><path class="cls-3" d="M377.94,310.47l73.74-13.77,20.83-3.89A2.13,2.13,0,0,0,474,290.2a2.16,2.16,0,0,0-2.61-1.49l-73.75,13.78-20.82,3.88a2.13,2.13,0,1,0,1.13,4.1Z"/><path class="cls-3" d="M388.84,333.67l63.63-12.75,18.11-3.63c2.68-.53,1.54-4.63-1.13-4.1l-63.63,12.75-18.11,3.63c-2.68.54-1.54,4.63,1.13,4.1Z"/><path class="cls-3" d="M396.28,355.28l52.73-8.4,15-2.38a2.14,2.14,0,0,0,1.48-2.61,2.17,2.17,0,0,0-2.61-1.49l-52.73,8.4-15,2.38a2.14,2.14,0,0,0-1.49,2.61,2.19,2.19,0,0,0,2.62,1.49Z"/><path class="cls-3" d="M598.74,362.63l55.74.56,15.75.16c2.73,0,2.74-4.23,0-4.25l-55.75-.56-15.74-.16c-2.74,0-2.74,4.22,0,4.25Z"/><path class="cls-3" d="M603.35,381.11l61.95-.19c2.74,0,2.74-4.26,0-4.25l-61.95.19c-2.73,0-2.74,4.26,0,4.25Z"/><path class="cls-3" d="M605.67,397.93l50.9,1.88c2.74.1,2.73-4.15,0-4.25l-50.9-1.88c-2.74-.1-2.73,4.15,0,4.25Z"/><path class="cls-3" d="M558.32,245.36c1.41,23.13,3,46.25,4.19,69.39.61,11.42,1,22.87.56,34.3a263.78,263.78,0,0,1-4,34c-1.85,10.86-3.67,22-2.78,33,.75,9.39,3.77,18.93,11.37,25s17.19,8.21,26.41,10a220.18,220.18,0,0,0,66.9,3q8.35-.92,16.63-2.44c2.59-.48,5.24-.9,7.77-1.63a9.44,9.44,0,0,0,5.74-4c1.24-2.1,1.46-4.56,1.71-6.93q.46-4.31.88-8.61.87-8.73,1.58-17.48,1.43-17.25,2.32-34.54,1.8-34.57,1.45-69.21-.17-17.31-.87-34.61c-.23-5.52-.41-11.06-.81-16.57a35.71,35.71,0,0,0-2.72-12.46,14.94,14.94,0,0,0-9.75-8.29,33.52,33.52,0,0,0-7.34-.92c-2.84-.12-5.69-.22-8.54-.32l-34.88-1.32L599,233.42c-5.67-.22-11.37-.59-17-.58-5,0-10.3.66-14.69,3.33a15.46,15.46,0,0,0-7.43,10c-.51,2.67,3.58,3.82,4.1,1.13.76-4,3.81-6.86,7.42-8.43,4.59-2,9.87-1.82,14.76-1.64,11.27.4,22.54.85,33.81,1.28l33.88,1.28,16.94.64c2.68.1,5.37.17,8.05.32a20.07,20.07,0,0,1,6.56,1.23c7.8,3.27,7.67,14.06,8,21.1q.86,16.79,1.21,33.6.71,33.5-.59,67t-4.59,67.09c-.28,2.79-.56,5.57-.86,8.36-.2,1.88-.31,4.36-1.86,5.68s-4.23,1.63-6.25,2c-2.65.55-5.32,1-8,1.48a217,217,0,0,1-64.56.87q-7.92-1.09-15.76-2.79A84.62,84.62,0,0,1,579,442.65a30.27,30.27,0,0,1-10.75-6.81A26.29,26.29,0,0,1,562,424.4c-2.69-9.65-1.81-20.18-.45-30,1.5-10.83,3.81-21.54,4.89-32.43a263.89,263.89,0,0,0,.9-33.27c-.31-11.14-1.05-22.26-1.73-33.38l-2.06-33.65-1-16.33c-.17-2.72-4.42-2.73-4.25,0Z"/><path class="cls-3" d="M575.79,254.77q.84,28.57,1.05,57.17.24,29,.07,58c0,9.72,0,19.43-.2,29.15-.14,8.28-.05,17,3.75,24.57a22.72,22.72,0,0,0,1.41,2.44,10.91,10.91,0,0,0,2.81,2.47,26.91,26.91,0,0,0,5.75,3.35,33.77,33.77,0,0,0,6.21,1.46c2.28.45,4.55.92,6.83,1.4,9.13,1.9,18.26,3.85,27.53,5a100.62,100.62,0,0,0,27.84-.07q3.54-.56,7-1.44a38.77,38.77,0,0,0,6.43-2c3-1.41,4.39-4.86,5.12-7.92,1-4.18,1.43-8.53,2-12.78.66-4.8,1.27-9.59,1.83-14.4q1.66-14.4,2.68-28.86,2-28.86,1.4-57.84-.32-14.55-1.27-29.1-.46-7.24-1.1-14.49c-.22-2.47-.43-4.93-.68-7.39a14.9,14.9,0,0,0-1.34-5c-2.58-5.28-8.63-6.81-14-7.5-7.19-.93-14.31-1.31-21.78-1.76l-14.88-.89-7.19-.43c-2.32-.14-4.67-.46-7-.5-4.2-.07-8.41,1.48-12.61.88-2.32-.33-4.64-.86-7-1.3-1.12-.2-2.23-.44-3.36-.62a13.8,13.8,0,0,0-3.87.39A78.77,78.77,0,0,0,576,249.58c-2.59.85-1.48,4.95,1.13,4.1a91.79,91.79,0,0,1,16.07-3.27h-1.13l9.34,1.74a26.53,26.53,0,0,0,8.62,0,29.26,29.26,0,0,1,7.81-.42c3.11.43,6.34.42,9.49.61l19.33,1.16c5.21.31,10.4.57,15.58,1.15,5.77.65,13.93.78,15.57,7.58a60.35,60.35,0,0,1,.91,8.81c.28,3.2.53,6.39.76,9.59q.67,9.3,1.09,18.62a639.15,639.15,0,0,1-1,74.92q-1.37,18.74-3.84,37.35c-.4,3.06-.83,6.1-1.28,9.15a62.93,62.93,0,0,1-1.31,7.23c-.41,1.53-1,3.51-2.46,4.36a16.25,16.25,0,0,1-3.36,1.15c-1.54.46-3.1.87-4.67,1.23-11.71,2.66-23.89,2.08-35.69.28-5.95-.91-11.86-2.1-17.75-3.33-3-.61-5.93-1.24-8.9-1.84-2.72-.56-5.73-.8-8.32-1.81a30.1,30.1,0,0,1-7-4.45l.77.76c-5.61-8.32-4.84-18.79-4.77-28.36q.13-17.41.2-34.83c.06-22.8,0-45.61-.33-68.41q-.29-18.95-.83-37.89c-.08-2.73-4.33-2.74-4.25,0Z"/></svg>