<svg id="Layer_1" data-name="Layer 1" xmlns="http://www.w3.org/2000/svg" viewBox="0 0 600 600"><defs><style>.cls-1,.cls-2,.cls-3{isolation:isolate;}.cls-2{font-size:35.3px;}.cls-2,.cls-3,.cls-4{fill:#ef7846;}.cls-2,.cls-3{font-family:InkFree, Ink Free;}.cls-3{font-size:14.17px;}</style></defs><g class="cls-1"><text class="cls-2" transform="translate(77.8 245.22) rotate(-7.48)">WEBSITES</text><text class="cls-2" transform="translate(83.32 287.22) rotate(-7.48)">WEDESIGN </text><text class="cls-2" transform="translate(88.83 329.21) rotate(-7.48)">FOR YOU</text></g><g class="cls-1"><text class="cls-3" transform="translate(484.21 280.55) rotate(0.47)">WEBSITES</text><text class="cls-3" transform="translate(484.07 297.55) rotate(0.47)">WEDESIGN </text><text class="cls-3" transform="translate(483.93 314.55) rotate(0.47)">FOR YOU</text></g><path class="cls-4" d="M46.55,435.43,24.11,305.05,12.89,239.87c-.9-5.23-1.91-10.45-2.64-15.71-.68-5-1-10.16.36-15,2.24-8.09,9-13.43,16.22-17.11,8.11-4.16,17.07-6.82,25.77-9.44,9.83-3,19.8-5.49,29.84-7.64a574.79,574.79,0,0,1,60.94-9.25c42.52-4.4,85.3-6.6,128-9.55l65.93-4.58c17.78-1.24,37.93-3.58,54.07,5.77,14.59,8.45,21.09,24.86,25.17,40.4,2.41,9.18,4.23,18.53,6.23,27.81l6.82,31.68,6.9,32.05c2.26,10.5,4.8,21,6.56,31.58,1.7,10.26,2.33,21-.7,31.06A51.84,51.84,0,0,1,429.5,373c-13,13.45-30.84,20.16-48.79,24.07-10,2.18-20.17,3.61-30.3,5.13l-32.68,4.88L187.5,426.54l-64.93,9.69-32.68,4.89c-5.38.8-10.76,1.7-16.17,2.38-5,.62-10.12,1-15-.26-7.19-1.83-14.47-9-11.46-17,1-2.56-3.13-3.67-4.1-1.13-2.91,7.65,2,15.85,8.52,19.8,8.67,5.21,19.6,3.21,29,1.81l67.08-10,135-20.17,67.08-10c20.55-3.07,41.67-5.68,60.6-14.81,15.19-7.34,28.87-19.53,34.92-35.59,7.51-20,.74-42.14-3.55-62.06L427.5,227.36c-3.82-17.75-6.54-36.64-15-52.94A52,52,0,0,0,397,155.91c-7.45-5.37-16.4-7.95-25.43-9-9.41-1.13-18.94-.63-28.37,0l-33.69,2.32c-44.67,3.1-89.36,5.94-134,9.36-42.16,3.23-84.61,7.83-125.2,20.23-9,2.74-18.17,5.55-26.47,10-7.15,3.81-13.63,9.27-16.6,17-3.67,9.59-1,20.33.68,30.06l5.76,33.44L36.84,404l5.66,32.57c.46,2.69,4.56,1.55,4.1-1.13Z"/><path class="cls-4" d="M63,413.25,42,297.3,31.5,239.72C30,231.38,27,221.41,31,213.33c3.15-6.34,9.59-10.17,15.86-12.91,7.78-3.41,16.13-5.74,24.3-8C80,190,89,187.93,98,186.18c18-3.5,36.27-5.78,54.55-7.48,37.9-3.52,76-5.34,114-7.76l58.72-3.75c15.69-1,33.33-2.84,47.67,5.05,13.14,7.23,19.23,21.46,23,35.27,2.23,8.14,3.93,16.44,5.8,24.67l6.47,28.6L414.56,289c2.11,9.32,4.53,18.64,6,28.09,1.39,8.94,1.53,18.24-1.68,26.82a46.45,46.45,0,0,1-12.38,17.62c-12.38,11.36-28.79,16.55-45,19.66-18.64,3.59-37.64,5.66-56.43,8.31l-116,16.35-58.37,8.23-28.8,4.06c-4.85.69-9.7,1.46-14.57,2-4.46.52-9.09.84-13.49-.25-6.15-1.53-13-7.54-10.26-14.47,1-2.55-3.11-3.66-4.1-1.13-2.7,6.91,2,14.31,8,17.68,7.82,4.39,17.37,2.81,25.8,1.62l60.32-8.5,119.9-16.88,60.32-8.5c18.44-2.6,37.39-4.6,54.69-11.93,13.9-5.89,27.12-15.94,33.36-30.07,7.73-17.49,2-36.81-2-54.48L406.5,234.12c-3.59-15.82-6.13-32.81-14-47.24a46.4,46.4,0,0,0-14.3-16.32c-6.68-4.58-14.58-6.8-22.54-7.78-8.38-1-16.87-.67-25.28-.15-9.82.61-19.65,1.26-29.47,1.88-40,2.56-80,4.92-120,7.7-37.72,2.62-75.71,6.28-112.24,16.52C60.42,191,52.06,193.47,44.23,197c-6.56,2.95-13.12,7.2-16.6,13.71-4.19,7.85-2.64,16.79-1.13,25.13Q29.26,250.9,32,266L53.67,385.43l5.26,29c.49,2.69,4.59,1.55,4.1-1.12Z"/><path class="cls-4" d="M273.44,308.9l73.74-13.77L368,291.24a2.13,2.13,0,0,0,1.49-2.61,2.16,2.16,0,0,0-2.61-1.49l-73.75,13.78-20.82,3.88a2.13,2.13,0,0,0,.89,4.17l.24-.07Z"/><path class="cls-4" d="M284.34,332.1,348,319.35l18.11-3.63c2.68-.53,1.54-4.63-1.13-4.1l-63.63,12.75L283.21,328c-2.68.54-1.54,4.63,1.13,4.1Z"/><path class="cls-4" d="M291.78,353.71l52.73-8.4,15-2.38a2.14,2.14,0,0,0,1.48-2.61,2.18,2.18,0,0,0-2.61-1.49l-52.73,8.4-15,2.38a2.15,2.15,0,0,0-1.49,2.61,2.19,2.19,0,0,0,2.62,1.49Z"/><path class="cls-4" d="M494.24,361.06l55.74.56,15.75.16c2.73,0,2.74-4.23,0-4.25L510,357l-15.74-.16C491.5,356.81,491.5,361,494.24,361.06Z"/><path class="cls-4" d="M498.85,379.54l61.95-.19c2.74,0,2.74-4.26,0-4.25l-61.95.19C496.12,375.29,496.11,379.55,498.85,379.54Z"/><path class="cls-4" d="M501.17,396.36l50.9,1.88c2.74.1,2.73-4.15,0-4.25l-50.9-1.88C498.43,392,498.44,396.26,501.17,396.36Z"/><path class="cls-4" d="M453.82,243.79c1.41,23.13,3,46.25,4.19,69.39.61,11.42,1,22.87.56,34.3a262.31,262.31,0,0,1-4,34c-1.85,10.86-3.67,22-2.78,33,.75,9.39,3.77,18.93,11.37,25s17.19,8.21,26.41,10a219.94,219.94,0,0,0,66.9,3q8.35-.92,16.63-2.44c2.59-.48,5.24-.9,7.77-1.63a9.43,9.43,0,0,0,5.74-4c1.24-2.1,1.46-4.56,1.71-6.93q.46-4.31.88-8.61.87-8.73,1.58-17.48,1.44-17.25,2.32-34.54,1.8-34.56,1.45-69.21-.16-17.31-.87-34.61c-.23-5.52-.41-11.06-.81-16.57A35.64,35.64,0,0,0,590.15,244a15,15,0,0,0-9.75-8.29,34.14,34.14,0,0,0-7.34-.92c-2.84-.12-5.69-.22-8.54-.32l-34.88-1.32-35.14-1.3c-5.67-.22-11.37-.59-17-.58-5,0-10.3.66-14.69,3.33a15.49,15.49,0,0,0-7.43,10c-.51,2.67,3.58,3.82,4.1,1.13.76-4,3.81-6.86,7.42-8.43,4.59-2,9.87-1.82,14.76-1.64,11.27.4,22.54.85,33.81,1.28l33.88,1.28,16.94.64c2.68.1,5.37.17,8.05.32a20.12,20.12,0,0,1,6.56,1.23c7.8,3.27,7.67,14.06,8,21.1q.87,16.8,1.21,33.6.72,33.51-.59,67t-4.59,67.09c-.28,2.79-.56,5.57-.86,8.36-.2,1.88-.31,4.36-1.86,5.68s-4.23,1.63-6.25,2c-2.65.55-5.32,1-8,1.48a217,217,0,0,1-64.56.87q-7.92-1.08-15.76-2.79a84.42,84.42,0,0,1-13.14-3.72,30.22,30.22,0,0,1-10.75-6.81,26.3,26.3,0,0,1-6.25-11.44c-2.69-9.65-1.81-20.18-.45-30,1.5-10.83,3.81-21.54,4.89-32.43a263.89,263.89,0,0,0,.9-33.27c-.31-11.14-1-22.26-1.73-33.38l-2.06-33.65-1-16.33c-.17-2.72-4.42-2.73-4.25,0Z"/><path class="cls-4" d="M471.29,253.2q.84,28.57,1,57.17.24,29,.07,58c0,9.72,0,19.43-.2,29.15-.14,8.28,0,17,3.75,24.57a22.72,22.72,0,0,0,1.41,2.44,10.86,10.86,0,0,0,2.81,2.47,26.67,26.67,0,0,0,5.75,3.35,34,34,0,0,0,6.21,1.46c2.28.45,4.55.92,6.83,1.4,9.13,1.9,18.26,3.85,27.53,5a100.62,100.62,0,0,0,27.84-.07c2.36-.37,4.7-.85,7-1.44a38.93,38.93,0,0,0,6.43-2c3-1.41,4.39-4.86,5.12-7.92a128.11,128.11,0,0,0,2-12.78c.66-4.8,1.27-9.59,1.83-14.4q1.66-14.4,2.68-28.86,2-28.86,1.4-57.84-.31-14.55-1.27-29.1-.45-7.23-1.1-14.49c-.22-2.47-.43-4.93-.68-7.39a14.79,14.79,0,0,0-1.34-5c-2.58-5.28-8.63-6.81-14-7.5-7.19-.93-14.31-1.31-21.78-1.76l-14.88-.89-7.19-.43c-2.32-.14-4.67-.46-7-.5-4.2-.07-8.41,1.48-12.61.88-2.32-.33-4.64-.86-7-1.3-1.12-.2-2.23-.44-3.36-.62a14,14,0,0,0-3.87.39A78.57,78.57,0,0,0,471.5,248c-2.59.85-1.48,5,1.13,4.1a91.79,91.79,0,0,1,16.07-3.27h-1.13l9.34,1.74a26.53,26.53,0,0,0,8.62,0,29.21,29.21,0,0,1,7.81-.42c3.11.43,6.34.42,9.49.61l19.33,1.16c5.21.31,10.4.57,15.58,1.15,5.77.65,13.93.78,15.57,7.58a60.63,60.63,0,0,1,.91,8.81c.28,3.2.53,6.39.76,9.59q.67,9.3,1.09,18.62a639.17,639.17,0,0,1-1,74.92q-1.37,18.75-3.84,37.35c-.4,3.06-.83,6.1-1.28,9.15a60.84,60.84,0,0,1-1.31,7.23c-.41,1.53-1,3.51-2.46,4.36a15.87,15.87,0,0,1-3.36,1.15c-1.54.46-3.1.87-4.67,1.23-11.71,2.66-23.89,2.08-35.69.28-6-.91-11.86-2.1-17.75-3.33-3-.61-5.93-1.24-8.9-1.84-2.72-.56-5.73-.8-8.32-1.81a30,30,0,0,1-7-4.45l.77.76c-5.61-8.32-4.84-18.79-4.77-28.36q.13-17.4.2-34.83c.06-22.8,0-45.61-.33-68.41q-.28-18.94-.83-37.89c-.08-2.73-4.33-2.74-4.25,0Z"/></svg>