<?xml version="1.0" encoding="UTF-8"?><svg id="a" xmlns="http://www.w3.org/2000/svg" viewBox="0 0 600 600"><defs><style>.b{font-size:35.3px;}.b,.c{font-family:InkFree, Ink Free;isolation:isolate;stroke-width:2px;}.b,.c,.d{fill:#ef7846;stroke:#ef7846;stroke-miterlimit:10;}.c{font-size:14.17px;}.d{stroke-width:4px;}</style></defs><g><text class="b" transform="translate(77.8 245.22) rotate(-7.48)"><tspan x="0" y="0">WEBSITES</tspan></text><text class="b" transform="translate(83.32 287.22) rotate(-7.48)"><tspan x="0" y="0">WEDESIGN</tspan></text><text class="b" transform="translate(88.83 329.21) rotate(-7.48)"><tspan x="0" y="0">FOR YOU</tspan></text></g><g><text class="c" transform="translate(484.21 280.55) rotate(.47)"><tspan x="0" y="0">WEBSITES</tspan></text><text class="c" transform="translate(484.07 297.55) rotate(.47)"><tspan x="0" y="0">WEDESIGN</tspan></text><text class="c" transform="translate(483.93 314.55) rotate(.47)"><tspan x="0" y="0">FOR YOU</tspan></text></g><path class="d" d="M46.55,435.43l-22.44-130.38-11.22-65.18c-.9-5.23-1.91-10.45-2.64-15.71-.68-5-1-10.16,.36-15,2.24-8.09,9-13.43,16.22-17.11,8.11-4.16,17.07-6.82,25.77-9.44,9.83-3,19.8-5.49,29.84-7.64,20.13-4.17,40.48-7.26,60.94-9.25,42.52-4.4,85.3-6.6,128-9.55l65.93-4.58c17.78-1.24,37.93-3.58,54.07,5.77,14.59,8.45,21.09,24.86,25.17,40.4,2.41,9.18,4.23,18.53,6.23,27.81l6.82,31.68,6.9,32.05c2.26,10.5,4.8,21,6.56,31.58,1.7,10.26,2.33,21-.7,31.06-2.53,7.95-6.94,15.18-12.86,21.06-13,13.45-30.84,20.16-48.79,24.07-10,2.18-20.17,3.61-30.3,5.13l-32.68,4.88-130.23,19.46-64.93,9.69-32.68,4.89c-5.38,.8-10.76,1.7-16.17,2.38-5,.62-10.12,1-15-.26-7.19-1.83-14.47-9-11.46-17,1-2.56-3.13-3.67-4.1-1.13-2.91,7.65,2,15.85,8.52,19.8,8.67,5.21,19.6,3.21,29,1.81l67.08-10,135-20.17,67.08-10c20.55-3.07,41.67-5.68,60.6-14.81,15.19-7.34,28.87-19.53,34.92-35.59,7.51-20,.74-42.14-3.55-62.06l-14.31-66.73c-3.82-17.75-6.54-36.64-15-52.94-3.64-7.3-8.95-13.64-15.5-18.51-7.45-5.37-16.4-7.95-25.43-9-9.41-1.13-18.94-.63-28.37,0l-33.69,2.32c-44.67,3.1-89.36,5.94-134,9.36-42.16,3.23-84.61,7.83-125.2,20.23-9,2.74-18.17,5.55-26.47,10-7.15,3.81-13.63,9.27-16.6,17-3.67,9.59-1,20.33,.68,30.06l5.76,33.44,23.16,134.68,5.66,32.57c.46,2.69,4.56,1.55,4.1-1.13h-.05Z"/><path class="d" d="M63,413.25l-21-115.95-10.5-57.58c-1.5-8.34-4.5-18.31-.5-26.39,3.15-6.34,9.59-10.17,15.86-12.91,7.78-3.41,16.13-5.74,24.3-8,8.84-2.42,17.84-4.49,26.84-6.24,18-3.5,36.27-5.78,54.55-7.48,37.9-3.52,76-5.34,114-7.76l58.72-3.75c15.69-1,33.33-2.84,47.67,5.05,13.14,7.23,19.23,21.46,23,35.27,2.23,8.14,3.93,16.44,5.8,24.67l6.47,28.6,6.35,28.22c2.11,9.32,4.53,18.64,6,28.09,1.39,8.94,1.53,18.24-1.68,26.82-2.69,6.76-6.93,12.8-12.38,17.62-12.38,11.36-28.79,16.55-45,19.66-18.64,3.59-37.64,5.66-56.43,8.31l-116,16.35-58.37,8.23-28.8,4.06c-4.85,.69-9.7,1.46-14.57,2-4.46,.52-9.09,.84-13.49-.25-6.15-1.53-13-7.54-10.26-14.47,1-2.55-3.11-3.66-4.1-1.13-2.7,6.91,2,14.31,8,17.68,7.82,4.39,17.37,2.81,25.8,1.62l60.32-8.5,119.9-16.88,60.32-8.5c18.44-2.6,37.39-4.6,54.69-11.93,13.9-5.89,27.12-15.94,33.36-30.07,7.73-17.49,2-36.81-2-54.48l-13.37-59.11c-3.59-15.82-6.13-32.81-14-47.24-3.41-6.49-8.31-12.09-14.3-16.32-6.68-4.58-14.58-6.8-22.54-7.78-8.38-1-16.87-.67-25.28-.15-9.82,.61-19.65,1.26-29.47,1.88-40,2.56-80,4.92-120,7.7-37.72,2.62-75.71,6.28-112.24,16.52-8.25,2.27-16.61,4.74-24.44,8.27-6.56,2.95-13.12,7.2-16.6,13.71-4.19,7.85-2.64,16.79-1.13,25.13,1.84,10.04,3.67,20.09,5.5,30.16l21.67,119.43,5.26,29c.49,2.69,4.59,1.55,4.1-1.12l-.03-.06Z"/><path class="d" d="M273.44,308.9l73.74-13.77,20.82-3.89c1.13-.31,1.8-1.48,1.49-2.61-.33-1.12-1.48-1.78-2.61-1.49l-73.75,13.78-20.82,3.88c-1.15,.25-1.89,1.38-1.64,2.53,.25,1.15,1.38,1.89,2.53,1.64h0l.24-.07h0Z"/><path class="d" d="M284.34,332.1l63.66-12.75,18.11-3.63c2.68-.53,1.54-4.63-1.13-4.1l-63.63,12.75-18.14,3.63c-2.68,.54-1.54,4.63,1.13,4.1Z"/><path class="d" d="M291.78,353.71l52.73-8.4,15-2.38c1.12-.32,1.78-1.48,1.48-2.61-.33-1.11-1.48-1.77-2.61-1.49l-52.73,8.4-15,2.38c-1.12,.32-1.78,1.48-1.49,2.61,.34,1.11,1.49,1.77,2.62,1.49h0Z"/><path class="d" d="M494.24,361.06l55.74,.56,15.75,.16c2.73,0,2.74-4.23,0-4.25l-55.73-.53-15.74-.16c-2.76-.03-2.76,4.16-.02,4.22Z"/><path class="d" d="M498.85,379.54l61.95-.19c2.74,0,2.74-4.26,0-4.25l-61.95,.19c-2.73,0-2.74,4.26,0,4.25Z"/><path class="d" d="M501.17,396.36l50.9,1.88c2.74,.1,2.73-4.15,0-4.25l-50.9-1.88c-2.74-.11-2.73,4.15,0,4.25Z"/><path class="d" d="M453.82,243.79c1.41,23.13,3,46.25,4.19,69.39,.61,11.42,1,22.87,.56,34.3-.59,11.41-1.93,22.77-4,34-1.85,10.86-3.67,22-2.78,33,.75,9.39,3.77,18.93,11.37,25s17.19,8.21,26.41,10c22.02,4.41,44.58,5.42,66.9,3,5.57-.61,11.11-1.43,16.63-2.44,2.59-.48,5.24-.9,7.77-1.63,2.36-.55,4.41-1.98,5.74-4,1.24-2.1,1.46-4.56,1.71-6.93,.31-2.87,.6-5.74,.88-8.61,.58-5.82,1.11-11.65,1.58-17.48,.96-11.5,1.73-23.01,2.32-34.54,1.2-23.04,1.68-46.11,1.45-69.21-.11-11.54-.4-23.08-.87-34.61-.23-5.52-.41-11.06-.81-16.57-.15-4.28-1.07-8.5-2.72-12.46-1.85-4.08-5.43-7.12-9.75-8.29-2.41-.57-4.87-.88-7.34-.92-2.84-.12-5.69-.22-8.54-.32l-34.88-1.32-35.14-1.3c-5.67-.22-11.37-.59-17-.58-5,0-10.3,.66-14.69,3.33-3.77,2.15-6.46,5.77-7.43,10-.51,2.67,3.58,3.82,4.1,1.13,.76-4,3.81-6.86,7.42-8.43,4.59-2,9.87-1.82,14.76-1.64,11.27,.4,22.54,.85,33.81,1.28l33.88,1.28,16.94,.64c2.68,.1,5.37,.17,8.05,.32,2.24,.04,4.46,.46,6.56,1.23,7.8,3.27,7.67,14.06,8,21.1,.58,11.2,.98,22.4,1.21,33.6,.48,22.34,.28,44.67-.59,67s-2.4,44.69-4.59,67.09c-.28,2.79-.56,5.57-.86,8.36-.2,1.88-.31,4.36-1.86,5.68s-4.23,1.63-6.25,2c-2.65,.55-5.32,1-8,1.48-21.36,3.51-43.12,3.8-64.56,.87-5.28-.72-10.53-1.65-15.76-2.79-4.47-.88-8.87-2.13-13.14-3.72-4.03-1.48-7.69-3.8-10.75-6.81-3.01-3.23-5.16-7.16-6.25-11.44-2.69-9.65-1.81-20.18-.45-30,1.5-10.83,3.81-21.54,4.89-32.43,1-11.06,1.3-22.17,.9-33.27-.31-11.14-1-22.26-1.73-33.38l-2.06-33.65-1-16.33c-.17-2.72-4.42-2.73-4.25,0l.02,.02Z"/><path class="d" d="M471.29,253.2c.56,19.05,.89,38.1,1,57.17,.16,19.33,.18,38.67,.07,58,0,9.72,0,19.43-.2,29.15-.14,8.28,0,17,3.75,24.57,.42,.84,.89,1.66,1.41,2.44,.79,.98,1.74,1.82,2.81,2.47,1.77,1.35,3.7,2.48,5.75,3.35,2.02,.68,4.1,1.17,6.21,1.46,2.28,.45,4.55,.92,6.83,1.4,9.13,1.9,18.26,3.85,27.53,5,9.24,1.27,18.61,1.24,27.84-.07,2.36-.37,4.7-.85,7-1.44,2.2-.48,4.35-1.15,6.43-2,3-1.41,4.39-4.86,5.12-7.92,.88-4.22,1.55-8.49,2-12.78,.66-4.8,1.27-9.59,1.83-14.4,1.11-9.6,2-19.22,2.68-28.86,1.33-19.24,1.8-38.52,1.4-57.84-.21-9.7-.63-19.4-1.27-29.1-.3-4.82-.67-9.65-1.1-14.49-.22-2.47-.43-4.93-.68-7.39-.15-1.73-.6-3.43-1.34-5-2.58-5.28-8.63-6.81-14-7.5-7.19-.93-14.31-1.31-21.78-1.76l-14.88-.89-7.19-.43c-2.32-.14-4.67-.46-7-.5-4.2-.07-8.41,1.48-12.61,.88-2.32-.33-4.64-.86-7-1.3-1.12-.2-2.23-.44-3.36-.62-1.3-.05-2.6,.08-3.87,.39-4.46,.56-8.87,1.5-13.17,2.81-2.59,.85-1.48,5,1.13,4.1,5.25-1.57,10.63-2.66,16.07-3.27h-1.13l9.34,1.74c2.85,.47,5.77,.47,8.62,0,2.57-.49,5.2-.63,7.81-.42,3.11,.43,6.34,.42,9.49,.61l19.33,1.16c5.21,.31,10.4,.57,15.58,1.15,5.77,.65,13.93,.78,15.57,7.58,.52,2.91,.82,5.86,.91,8.81,.28,3.2,.53,6.39,.76,9.59,.45,6.2,.81,12.41,1.09,18.62,1.13,24.97,.8,49.99-1,74.92-.91,12.5-2.19,24.95-3.84,37.35-.4,3.06-.83,6.1-1.28,9.15-.29,2.43-.73,4.85-1.31,7.23-.41,1.53-1,3.51-2.46,4.36-1.07,.51-2.2,.89-3.36,1.15-1.54,.46-3.1,.87-4.67,1.23-11.71,2.66-23.89,2.08-35.69,.28-6-.91-11.86-2.1-17.75-3.33-3-.61-5.93-1.24-8.9-1.84-2.72-.56-5.73-.8-8.32-1.81-2.53-1.15-4.88-2.65-7-4.45l.77,.76c-5.61-8.32-4.84-18.79-4.77-28.36,.09-11.6,.15-23.21,.2-34.83,.06-22.8,0-45.61-.33-68.41-.19-12.63-.46-25.26-.83-37.89-.08-2.73-4.33-2.74-4.25,0v.02Z"/></svg>