<svg id="Layer_1" data-name="Layer 1" xmlns="http://www.w3.org/2000/svg" viewBox="0 0 841.89 595.28"><defs><style>.cls-1{font-size:28.1px;}.cls-1,.cls-2,.cls-3{fill:#ef7846;}.cls-1,.cls-2{font-family:InkFree, Ink Free;}.cls-2{font-size:11.26px;}</style></defs><text class="cls-1" transform="translate(243.88 251.9) rotate(-7.49)">WEBSITES<tspan x="0" y="33.72">WEDESIGN </tspan><tspan x="0" y="67.43">FOR YOU</tspan></text><text class="cls-2" transform="translate(566.9 279.98) rotate(0.47)">WEBSITES<tspan x="0" y="13.51">WEDESIGN </tspan><tspan x="0" y="27.02">FOR YOU</tspan></text><path class="cls-3" d="M219.47,403,201.64,299.35l-8.92-51.8c-.72-4.16-1.53-8.31-2.1-12.49-.53-3.87-.77-7.92.28-11.72C192.65,217,198,212.87,203.59,210c6.42-3.29,13.5-5.39,20.38-7.47,7.82-2.35,15.74-4.35,23.72-6.06A450.38,450.38,0,0,1,296,189.13c33.8-3.5,67.81-5.25,101.7-7.6l52.41-3.63c14.05-1,30-2.86,42.76,4.52,11.49,6.66,16.59,19.62,19.8,31.85,1.92,7.3,3.37,14.73,5,22.11l5.42,25.18,5.49,25.51c1.8,8.34,3.82,16.67,5.21,25.1,1.34,8.08,1.83,16.51-.55,24.45a41.05,41.05,0,0,1-10.05,16.56c-10.3,10.63-24.39,15.92-38.59,19-8,1.74-16,2.87-24.08,4.08l-26,3.88L331,395.61l-51.61,7.71-26,3.88c-4.24.63-8.48,1.34-12.74,1.88-3.89.49-8,.79-11.81-.19-5.5-1.4-11.11-6.87-8.8-12.95,1-2.56-3.14-3.66-4.1-1.13-2.38,6.26,1.59,13,7,16.23,7,4.21,15.8,2.62,23.41,1.48l53.31-8,107.32-16,53.31-8c16.38-2.45,33.19-4.54,48.27-11.82,12.19-5.88,23.12-15.67,28-28.55,6-16,.61-33.65-2.82-49.56l-11.42-53c-3-14.15-5.22-29.19-12-42.18a41.74,41.74,0,0,0-12.48-14.87c-6-4.31-13.18-6.37-20.43-7.24-7.48-.91-15.05-.5-22.55,0l-26.77,1.86c-35.5,2.46-71,4.72-106.51,7.44-33.54,2.57-67.33,6.23-99.62,16.1-7.16,2.18-14.52,4.43-21.15,8-5.79,3.09-11,7.52-13.39,13.78-2.95,7.7-.81,16.32.54,24.13l4.57,26.58,18.42,107,4.46,25.91c.46,2.69,4.56,1.55,4.1-1.13Z"/><path class="cls-3" d="M232.57,385.35,215.83,293.2l-8.31-45.77c-1.18-6.49-3.54-14.36-.42-20.64,2.48-5,7.54-8,12.46-10.11a140.07,140.07,0,0,1,19.21-6.3q10.53-2.9,21.27-5c14.29-2.77,28.75-4.58,43.24-5.92,30.13-2.8,60.4-4.25,90.6-6.18l46.67-3c12.38-.79,26.35-2.28,37.67,4,10.35,5.69,15.12,16.91,18.1,27.77,1.78,6.47,3.13,13.07,4.62,19.61l5.14,22.74,5.08,22.43c1.68,7.41,3.6,14.82,4.77,22.33,1.09,7,1.19,14.34-1.34,21.08a36.42,36.42,0,0,1-9.72,13.8c-9.79,9-22.78,13.06-35.57,15.52-14.82,2.85-29.92,4.5-44.86,6.61l-92.18,13-46.4,6.54L263,389c-3.82.54-7.64,1.14-11.47,1.59a29.72,29.72,0,0,1-10.6-.19c-4.67-1.16-9.91-5.68-7.85-11,1-2.54-3.11-3.65-4.1-1.12-2.21,5.67,1.65,11.78,6.57,14.54,6.33,3.55,14,2.3,20.84,1.34l47.95-6.76L399.59,374l47.94-6.76c14.7-2.07,29.79-3.68,43.58-9.52,11.11-4.72,21.68-12.77,26.67-24.06,6.21-14,1.65-29.46-1.56-43.65l-10.64-47c-2.85-12.62-4.89-26.15-11.14-37.66a37.36,37.36,0,0,0-11.53-13.13c-5.37-3.68-11.73-5.45-18.13-6.24a108.83,108.83,0,0,0-20.1-.12l-23.42,1.5c-31.8,2-63.62,3.91-95.41,6.12-30,2.08-60.26,5-89.34,13.14A137.94,137.94,0,0,0,217,213.2c-5.28,2.37-10.56,5.81-13.35,11.06-3.4,6.35-2.17,13.55-.94,20.3l4.35,24,17.24,94.92,4.18,23c.49,2.69,4.59,1.55,4.1-1.13Z"/><path class="cls-3" d="M399.51,303,458,292l16.71-3.11a2.13,2.13,0,0,0-1.13-4.1l-58.47,10.91-16.7,3.12a2.16,2.16,0,0,0-1.49,2.62,2.18,2.18,0,0,0,2.62,1.48Z"/><path class="cls-3" d="M408.18,321.39l50.55-10.13,14.41-2.89c2.68-.53,1.55-4.63-1.13-4.1L421.46,314.4l-14.41,2.89c-2.68.54-1.55,4.63,1.13,4.1Z"/><path class="cls-3" d="M414.09,338.57l53.8-8.57a2.13,2.13,0,0,0,1.49-2.61,2.19,2.19,0,0,0-2.62-1.49L413,334.47a2.13,2.13,0,0,0-1.49,2.61,2.18,2.18,0,0,0,2.62,1.49Z"/><path class="cls-3" d="M574.89,344.42l56.83.57c2.74,0,2.74-4.22,0-4.25l-56.83-.57c-2.73,0-2.73,4.23,0,4.25Z"/><path class="cls-3" d="M578.56,359.11l49.25-.15c2.73,0,2.73-4.26,0-4.25l-49.25.15c-2.73,0-2.74,4.26,0,4.25Z"/><path class="cls-3" d="M580.4,372.49,620.87,374c2.73.11,2.73-4.14,0-4.25l-40.47-1.48c-2.73-.1-2.73,4.15,0,4.25Z"/><path class="cls-3" d="M542.33,250.78c1.13,18.41,2.37,36.83,3.34,55.25.49,9.16.79,18.35.42,27.52a209.94,209.94,0,0,1-3.2,26.91c-1.46,8.63-2.89,17.47-2.13,26.24.65,7.54,3.12,15.16,9.26,20s13.71,6.53,21.08,8A177.5,177.5,0,0,0,597.69,418a174.28,174.28,0,0,0,26.93-.86c4.45-.49,8.9-1.14,13.3-2,3.72-.69,8.56-1,10.75-4.6a13.29,13.29,0,0,0,1.45-5.65c.24-2.3.48-4.6.7-6.89q.67-6.9,1.25-13.81,1.15-13.81,1.86-27.66,1.44-27.69,1.15-55.43-.15-13.86-.72-27.72c-.18-4.34-.3-8.71-.66-13a27.21,27.21,0,0,0-2.32-9.9,12.27,12.27,0,0,0-7.88-6.5c-4.09-1.1-8.62-.84-12.82-1l-27.92-1.06-27.91-1c-4.55-.18-9.11-.5-13.66-.45-4,.05-8.22.63-11.68,2.82a12.71,12.71,0,0,0-5.93,8.06c-.52,2.67,3.57,3.81,4.1,1.13,1.53-7.8,11.31-7.91,17.48-7.68q13.32.48,26.64,1l26.92,1,13.46.51c3.66.14,8-.26,11.43,1.19,6.1,2.57,5.85,11.31,6.13,16.78q.68,13.35,1,26.72.54,26.61-.49,53.21t-3.65,53.09q-.33,3.33-.68,6.65c-.16,1.44-.27,3.32-1.56,4.23s-3.36,1.1-4.94,1.42q-3.17.65-6.34,1.16a168.28,168.28,0,0,1-25.56,2.19,170.7,170.7,0,0,1-25.36-1.59c-7.69-1.07-15.75-2.32-23-5.22a23.19,23.19,0,0,1-8.34-5.44,20.79,20.79,0,0,1-4.77-9.14c-2-7.61-1.26-15.87-.17-23.56,1.22-8.63,3-17.17,3.87-25.85a211,211,0,0,0,.68-26.25c-.51-17.68-1.92-35.34-3-53l-.8-13.08c-.16-2.72-4.42-2.74-4.25,0Z"/><path class="cls-3" d="M556.22,258.25c.91,30.73,1,61.48.89,92.22,0,7.74-.08,15.47-.17,23.21-.09,6.65.11,13.69,3.39,19.66a9.18,9.18,0,0,0,1.29,2,18.61,18.61,0,0,0,2.25,1.69,19.91,19.91,0,0,0,4.62,2.57,33.69,33.69,0,0,0,5.18,1.14l5.45,1.12c7.36,1.54,14.73,3.09,22.2,4a78.94,78.94,0,0,0,22-.25q2.58-.42,5.13-1.08a22.94,22.94,0,0,0,5.5-1.83c2.39-1.35,3.41-4.18,4-6.7.73-3.28,1.09-6.65,1.55-10q.79-5.85,1.48-11.72,1.35-11.59,2.14-23.25,1.57-23,1-46.12-.25-11.49-1-23c-.26-3.94-.57-7.86-.92-11.79-.28-3.17-.19-6.69-1.77-9.55-2.28-4.12-7-5.29-11.37-5.84-5.84-.75-11.59-1-17.71-1.42l-11.4-.68-6-.36c-1.82-.11-3.68-.37-5.5-.38-3.3,0-6.59,1.15-9.88.68-1.74-.25-3.46-.64-5.18-1-.93-.18-1.87-.38-2.82-.53a11.89,11.89,0,0,0-3.4.32,63.81,63.81,0,0,0-10.5,2.28c-2.59.84-1.48,5,1.13,4.1a74,74,0,0,1,12.77-2.6h-1.13c4.57.85,9.08,2.09,13.74,1.49a28.4,28.4,0,0,1,6.5-.47c2.41.25,4.83.36,7.25.5l15.36.92c4.23.26,8.47.42,12.67.91,4.45.53,11,.45,12.3,5.66a42.39,42.39,0,0,1,.71,6.67c.22,2.54.42,5.07.61,7.61q.54,7.47.88,14.93a509.94,509.94,0,0,1-.79,59.29q-1.07,14.82-3,29.55a116.14,116.14,0,0,1-2,13.16c-.3,1.18-.68,2.77-1.76,3.48a10.68,10.68,0,0,1-2.75,1c-1.23.36-2.48.69-3.73,1-9.24,2.08-18.87,1.6-28.17.17-4.71-.72-9.38-1.66-14-2.63-2.28-.48-4.55-1-6.83-1.42a40.61,40.61,0,0,1-6.77-1.47A24.35,24.35,0,0,1,564.2,392l.76.76c-4.47-6.68-3.78-15.07-3.72-22.73q.1-13.71.15-27.43c.05-18,0-36.08-.26-54.11q-.23-15.12-.66-30.24c-.08-2.72-4.33-2.74-4.25,0Z"/></svg>