<svg id="Layer_1" data-name="Layer 1" xmlns="http://www.w3.org/2000/svg" viewBox="0 0 841.89 595.28"><defs><style>.cls-1{font-size:12.02px;}.cls-1,.cls-2,.cls-3{fill:#ef7846;}.cls-1,.cls-2{font-family:InkFree, Ink Free;}.cls-2{font-size:4.82px;}</style></defs><text class="cls-1" transform="matrix(0.99, -0.13, 0.13, 0.99, 328.94, 287.85)">WEBSITES<tspan x="0" y="14.43">WEDESIGN </tspan><tspan x="0" y="28.86">FOR YOU</tspan></text><text class="cls-2" transform="translate(467.17 299.87) rotate(0.47)">WEBSITES<tspan x="0" y="5.78">WEDESIGN </tspan><tspan x="0" y="11.56">FOR YOU</tspan></text><path class="cls-3" d="M318.83,352.4l-7.59-44.06-3.7-21.54c-.56-3.25-1.65-6.87-1.14-10.18.47-3,2.71-4.95,5.26-6.29a47.88,47.88,0,0,1,8.61-3.2q4.91-1.49,9.92-2.57a191,191,0,0,1,20.9-3.21c14.28-1.49,28.66-2.23,43-3.22l22.41-1.56c5.91-.41,12.64-1.33,18.14,1.46,5.2,2.64,7.52,8.18,8.95,13.52,1.73,6.47,2.91,13.11,4.32,19.65,1.55,7.16,3.27,14.31,4.59,21.51a25.29,25.29,0,0,1,.18,10.43,16.83,16.83,0,0,1-4.19,7.54c-4.23,4.52-10.07,6.83-16,8.18-7,1.6-14.21,2.37-21.3,3.43l-43.88,6.56-22,3.27-11.09,1.66c-3.38.5-7,1.46-10.43,1.13-2.59-.24-5.83-2.32-4.75-5.33.54-1.52-1.88-2.17-2.42-.66-1,2.69.51,5.51,2.74,7.07,2.81,1.95,6.47,1.54,9.66,1.08,7.71-1.12,15.41-2.31,23.12-3.46l46.35-6.92,23.18-3.46c7-1.05,14.23-2,20.7-5.1,5.19-2.52,9.82-6.67,12-12.11,2.67-6.77.51-14.25-.95-21l-5-23.12c-1.32-6.12-2.26-12.61-5.14-18.24A17.68,17.68,0,0,0,429.51,254a46.08,46.08,0,0,0-9.32-.14c-3.9.24-7.79.54-11.68.81-15.4,1.07-30.82,2.05-46.22,3.23-14.52,1.11-29.16,2.69-43.13,7-5.32,1.64-12.38,3.56-14.65,9.29-1.27,3.18-.53,6.66,0,9.9l2,11.75,7.92,46,1.94,11.26c.27,1.58,2.68.91,2.41-.67Z"/><path class="cls-3" d="M324.43,344.87,317.37,306l-3.57-19.68c-.51-2.81-1.61-6.27-.31-9,1-2.16,3.32-3.44,5.44-4.33a86.72,86.72,0,0,1,17.35-4.75c6-1.16,12.09-1.91,18.18-2.47,12.69-1.18,25.44-1.79,38.16-2.6l19.83-1.27c5.35-.34,11.46-1.11,16.4,1.5,4.46,2.36,6.5,7.11,7.78,11.74,1.6,5.82,2.74,11.8,4.08,17.68,1.42,6.27,3.09,12.54,4.19,18.87a18.68,18.68,0,0,1-.29,9.19,15,15,0,0,1-4.05,6c-4.11,3.87-9.62,5.62-15,6.68-6.22,1.21-12.56,1.9-18.83,2.79l-39,5.5-19.51,2.75-9.88,1.4c-3,.42-6.28,1.23-9.35,1-2.16-.2-5.23-1.84-4.27-4.46.55-1.52-1.87-2.17-2.41-.67a5.46,5.46,0,0,0,2.17,6.06c2.37,1.83,5.52,1.74,8.35,1.38,6.93-.88,13.83-1.94,20.75-2.92L395,340.5l21-3c6.32-.89,12.81-1.57,18.75-4.07,4.79-2,9.37-5.44,11.6-10.27,2.71-5.87,1-12.25-.33-18.23l-4.6-20.32c-1.23-5.45-2.11-11.26-4.65-16.3a16.06,16.06,0,0,0-12.09-8.89c-6.12-1-12.54,0-18.67.34-13.76.88-27.51,1.71-41.26,2.65-13,.89-26.05,2.1-38.63,5.57-4.88,1.34-11.37,2.75-14.36,7.28-1.66,2.5-1.44,5.53-1,8.35.57,3.42,1.23,6.83,1.85,10.24l7.51,41.31L322,345.53c.29,1.58,2.7.91,2.41-.66Z"/><path class="cls-3" d="M395.63,310l32.17-6c1.58-.3.91-2.71-.67-2.41l-32.16,6c-1.58.29-.91,2.7.66,2.41Z"/><path class="cls-3" d="M399.34,317.92l27.8-5.57c1.58-.32.91-2.73-.66-2.42l-27.81,5.57c-1.57.32-.9,2.73.67,2.42Z"/><path class="cls-3" d="M401.87,325.27l23-3.67c1.59-.25.92-2.66-.66-2.41l-23,3.67c-1.58.25-.91,2.66.67,2.41Z"/><path class="cls-3" d="M470.59,327.78l24.32.25a1.25,1.25,0,0,0,0-2.5l-24.32-.25a1.25,1.25,0,0,0,0,2.5Z"/><path class="cls-3" d="M472.16,334.07l21.07-.07a1.25,1.25,0,0,0,0-2.5l-21.07.07a1.25,1.25,0,0,0,0,2.5Z"/><path class="cls-3" d="M473,339.79l17.31.64c1.61.06,1.61-2.44,0-2.5L473,337.29c-1.61-.06-1.61,2.44,0,2.5Z"/><path class="cls-3" d="M456.32,287.37c.49,8.13,1.06,16.26,1.47,24.4a118.6,118.6,0,0,1,.08,12.22c-.23,4.06-1,8-1.6,12-1,6.37-1.88,14.73,4.22,18.91,2.66,1.83,6,2.49,9.12,3.08a76.07,76.07,0,0,0,11.66,1.3,74.62,74.62,0,0,0,11.86-.56c1.84-.23,3.68-.52,5.49-.89,1.61-.32,3.21-.66,4-2.25s.63-3.51.79-5.12q.31-3.19.58-6.39c.34-4.1.6-8.21.81-12.32q.6-12.07.43-24.19-.09-6.16-.37-12.33c-.14-3,.07-6.65-1.86-9.16a6,6,0,0,0-4.29-2.2c-2.14-.25-4.34-.21-6.5-.29l-13.78-.53c-4.5-.17-9-.51-13.54-.48-3.33,0-7.2,1.22-8,4.9-.35,1.57,2.06,2.24,2.42.66.76-3.42,5.15-3.11,7.84-3l11.31.42,10.83.41,5.41.21c1.62.06,3.77-.17,5.28.54,2.59,1.22,2.26,5.44,2.37,7.78q.27,5.55.38,11.1.21,11.1-.23,22.22t-1.53,22.41c-.09.9-.18,1.8-.28,2.7-.08.72-.06,1.57-.72,2a7.52,7.52,0,0,1-2.45.59c-.93.18-1.87.35-2.81.49a72.64,72.64,0,0,1-11,.82,73.39,73.39,0,0,1-10.57-.77,36.2,36.2,0,0,1-9.67-2.36c-6.53-3-5.66-11.08-4.73-17,.63-4,1.38-7.93,1.64-11.95a110.37,110.37,0,0,0,0-12.47c-.4-8.3-1-16.6-1.49-24.89-.1-1.6-2.6-1.61-2.5,0Z"/><path class="cls-3" d="M462.26,290.57c.4,13.6.44,27.2.37,40.8,0,3.36-.12,6.73-.06,10.09,0,2.52.24,6.06,2.1,8,2.13,2.22,5.47,2.43,8.29,3a93.66,93.66,0,0,0,9.54,1.64,32.4,32.4,0,0,0,9.63-.31,11.65,11.65,0,0,0,4.06-1.26,4.53,4.53,0,0,0,1.67-2.84,78,78,0,0,0,1.32-9.39q.58-5.06.94-10.12.69-10.12.43-20.29-.14-5.12-.5-10.21c-.11-1.63-.25-3.26-.4-4.89a7.52,7.52,0,0,0-.89-3.67c-1.19-1.8-3.38-2.22-5.37-2.45-3-.35-6.07-.49-9.11-.68l-5.55-.33c-.89-.05-1.78-.18-2.66-.15s-1.67.22-2.51.28c-1.83.15-3.57-.75-5.37-.62a23.72,23.72,0,0,0-5.47,1.11c-1.53.48-.88,2.9.66,2.41a27,27,0,0,1,4.33-.95c1.5-.22,3,.39,4.46.55a28.31,28.31,0,0,0,3.9-.28c1.51,0,3.08.18,4.59.27l9.17.55a24.09,24.09,0,0,1,5.28.67c2.38.7,2,3.18,2.22,5.25q.39,4.74.59,9.5.39,9.32,0,18.63t-1.58,18.31c-.2,1.58-.41,3.16-.67,4.73-.16,1-.24,2.18-1.17,2.66a14.49,14.49,0,0,1-4.56,1,27.79,27.79,0,0,1-4.65.18,55.76,55.76,0,0,1-8.91-1.18l-4.11-.85a15.46,15.46,0,0,1-4.33-1.08,4.2,4.2,0,0,1-2.23-2.63,14.42,14.42,0,0,1-.63-4.19c-.09-3.08,0-6.19.06-9.28.08-14,0-28-.37-42-.05-1.6-2.55-1.61-2.5,0Z"/></svg>